<svg width="300" height="304" viewBox="0 0 300 304" fill="none" xmlns="http://www.w3.org/2000/svg">
<path d="M242.721 46.0803C238.593 36.1596 239.336 23.9128 246.464 15.467C256.522 3.54984 277.89 1.61787 292.344 0.407249C301.225 0.382884 295.624 20.259 294.381 24.786C287.829 48.6456 273.282 59.3416 248.218 52.3759C244.967 56.239 242.094 60.1571 239.464 64.4624L238.212 63.7183C236.301 62.6108 234.276 61.7691 232.213 60.9873C235.06 55.6516 239.345 51.0903 242.721 46.0803ZM288.426 8.402C270.78 10.9611 243.848 13.3939 248.218 38.0136C255.262 31.1447 260.123 28.5851 268.907 23.8739C269.894 25.8673 270.978 27.768 272.284 29.5753L273.081 30.9396C265.404 34.3138 257.134 38.3344 252.551 45.6447C273.68 50.3717 283.256 39.3796 287.508 20.02C287.945 18.0312 290.454 7.90567 288.426 8.402Z" fill="#F3D38A"/>
<path d="M146.001 61.8937C145.518 61.9079 145.035 61.9104 144.552 61.9011C144.069 61.8918 143.586 61.8707 143.104 61.8379C142.622 61.8051 142.141 61.7605 141.661 61.7042C141.181 61.6484 140.703 61.5806 140.226 61.5007C139.749 61.4214 139.275 61.3307 138.803 61.2284C138.331 61.1256 137.862 61.0115 137.396 60.8863C136.929 60.7605 136.466 60.6238 136.007 60.4761C135.547 60.3284 135.091 60.1693 134.64 59.9986C134.188 59.8285 133.74 59.6478 133.298 59.4564C132.855 59.2644 132.417 59.0618 131.984 58.8485C131.552 58.6352 131.125 58.4115 130.704 58.1774C130.282 57.9439 129.866 57.7 129.457 57.4457C129.047 57.1913 128.644 56.9272 128.248 56.6532C127.851 56.3797 127.462 56.0964 127.079 55.8033C126.697 55.5107 126.322 55.2088 125.955 54.8976C125.587 54.5869 125.228 54.2673 124.876 53.9386C124.524 53.6099 124.181 53.273 123.847 52.9279C123.512 52.5828 123.185 52.2297 122.868 51.8688C122.551 51.5078 122.242 51.1392 121.943 50.7629C121.644 50.3866 121.355 50.0035 121.075 49.6136C120.795 49.2231 120.524 48.8263 120.264 48.4232C120.003 48.0196 119.753 47.6102 119.513 47.1951C119.273 46.7795 119.044 46.3584 118.824 45.9318C118.605 45.5052 118.396 45.0734 118.199 44.6364C118.001 44.1994 117.814 43.7581 117.638 43.3123C117.462 42.866 117.297 42.4159 117.144 41.962C116.99 41.5081 116.848 41.0508 116.717 40.5903C116.586 40.1293 116.467 39.6655 116.359 39.199C116.251 38.7319 116.154 38.2627 116.07 37.7912C115.985 37.3198 115.912 36.8467 115.851 36.372C115.789 35.8973 115.74 35.4212 115.702 34.9437C115.665 34.4663 115.639 33.9883 115.625 33.5097C115.612 33.0312 115.61 32.5526 115.62 32.0741C115.629 31.595 115.65 31.1167 115.684 30.6393C115.718 30.1618 115.763 29.6852 115.82 29.2094C115.877 28.7341 115.946 28.2605 116.027 27.7885C116.108 27.3165 116.2 26.8467 116.304 26.3791C116.408 25.9115 116.523 25.4466 116.65 24.9844C116.777 24.5224 116.916 24.0638 117.065 23.6086C117.215 23.1534 117.376 22.702 117.548 22.2546C117.72 21.8072 117.903 21.3643 118.098 20.9258C118.292 20.4872 118.496 20.0537 118.712 19.6252C118.927 19.1967 119.154 18.7736 119.39 18.3561C119.627 17.9386 119.873 17.5271 120.131 17.1215C120.387 16.7161 120.654 16.3171 120.931 15.9245C121.208 15.532 121.494 15.1464 121.79 14.7678C122.086 14.3892 122.391 14.0181 122.705 13.6543C123.019 13.2906 123.342 12.9347 123.674 12.5867C124.006 12.2387 124.347 11.899 124.695 11.5675C125.044 11.236 125.401 10.9133 125.765 10.5992C126.13 10.2851 126.502 9.98008 126.882 9.68415C127.263 9.38816 127.65 9.1016 128.043 8.82448C128.437 8.54736 128.838 8.27998 129.245 8.02233C129.653 7.76473 130.066 7.51719 130.486 7.27972C130.906 7.0422 131.331 6.81504 131.762 6.59825C132.193 6.38145 132.629 6.17526 133.07 5.97968C133.511 5.78411 133.957 5.59939 134.407 5.42552C134.857 5.25161 135.311 5.08876 135.77 4.937C136.228 4.78523 136.69 4.6447 137.155 4.51541C137.621 4.38612 138.089 4.26823 138.56 4.16175C139.031 4.05521 139.505 3.96021 139.981 3.87675C140.456 3.79329 140.934 3.72148 141.414 3.66132C141.893 3.60111 142.374 3.5526 142.856 3.51579C143.337 3.47898 143.82 3.4539 144.303 3.44056C144.785 3.42721 145.268 3.42563 145.75 3.4358C146.233 3.44592 146.715 3.46777 147.197 3.50135C147.678 3.53493 148.158 3.58016 148.638 3.63704C149.117 3.69397 149.594 3.76253 150.071 3.84271C150.547 3.92283 151.02 4.01446 151.491 4.11761C151.962 4.22081 152.431 4.33536 152.897 4.46126C153.362 4.58722 153.825 4.72441 154.284 4.87284C154.743 5.02122 155.197 5.18067 155.648 5.3512C156.099 5.52173 156.546 5.70311 156.987 5.89535C157.429 6.08759 157.867 6.29047 158.299 6.50399C158.731 6.71745 159.157 6.94127 159.577 7.17546C159.999 7.40964 160.413 7.65393 160.822 7.90829C161.231 8.16266 161.633 8.42682 162.028 8.70077C162.424 8.97472 162.813 9.2581 163.195 9.55092C163.576 9.84374 163.95 10.1456 164.317 10.4566C164.683 10.7676 165.042 11.0874 165.393 11.4158C165.744 11.7443 166.087 12.081 166.421 12.4261C166.755 12.7713 167.08 13.1243 167.397 13.4852C167.714 13.8461 168.021 14.2145 168.32 14.5904C168.618 14.9662 168.907 15.3491 169.186 15.739C169.466 16.1289 169.735 16.5254 169.995 16.9284C170.255 17.3314 170.505 17.7405 170.745 18.1557C170.984 18.5709 171.213 18.9916 171.432 19.4179C171.651 19.8442 171.859 20.2756 172.056 20.712C172.253 21.1485 172.44 21.5894 172.615 22.0349C172.791 22.4804 172.955 22.9299 173.109 23.3833C173.262 23.8368 173.404 24.2937 173.534 24.7539C173.665 25.2144 173.784 25.6777 173.892 26.1436C174 26.6101 174.096 27.0789 174.18 27.5497C174.265 28.0206 174.338 28.4932 174.399 28.9673C174.46 29.4415 174.51 29.9171 174.547 30.394C174.585 30.8709 174.61 31.3483 174.624 31.8263C174.638 32.3043 174.64 32.7823 174.63 33.2603C174.62 33.7389 174.599 34.2166 174.565 34.6935C174.532 35.1704 174.487 35.6465 174.43 36.1218C174.373 36.5965 174.304 37.0696 174.223 37.541C174.143 38.0125 174.051 38.4817 173.948 38.9488C173.844 39.4158 173.728 39.8802 173.601 40.3418C173.475 40.8034 173.337 41.2614 173.187 41.7159C173.038 42.1709 172.878 42.6218 172.706 43.0687C172.535 43.5155 172.352 43.958 172.158 44.396C171.965 44.8341 171.76 45.2673 171.545 45.6955C171.33 46.1237 171.104 46.5465 170.868 46.9638C170.632 47.3811 170.386 47.7921 170.13 48.1968C169.873 48.6021 169.607 49.001 169.331 49.3937C169.055 49.7859 168.769 50.1712 168.474 50.5496C168.179 50.9275 167.875 51.2983 167.561 51.662C167.248 52.0257 166.925 52.3815 166.594 52.7293C166.263 53.0772 165.923 53.4168 165.575 53.7482C165.227 54.0797 164.871 54.4024 164.507 54.7163C164.143 55.0308 163.771 55.3359 163.392 55.6318C163.013 55.9277 162.627 56.2143 162.234 56.4916C161.841 56.7688 161.441 57.0366 161.034 57.2947C160.628 57.5523 160.215 57.8 159.796 58.038C159.377 58.2753 158.952 58.5026 158.522 58.7197C158.092 58.9368 157.657 59.1435 157.217 59.3399C156.777 59.5357 156.332 59.7208 155.882 59.8953C155.433 60.0692 154.979 60.2325 154.521 60.385C154.064 60.5371 153.603 60.6782 153.139 60.8083C152.674 60.938 152.206 61.0564 151.736 61.1636C151.266 61.2708 150.793 61.3665 150.318 61.4507C149.842 61.5349 149.365 61.6074 148.887 61.6681C148.408 61.7288 147.928 61.778 147.447 61.8158C146.966 61.8535 146.484 61.8795 146.001 61.8937ZM143.159 11.3684C142.806 11.3998 142.454 11.4397 142.104 11.4883C141.753 11.5369 141.403 11.594 141.055 11.6596C140.708 11.7252 140.362 11.7993 140.017 11.8818C139.673 11.9644 139.331 12.0552 138.991 12.1544C138.652 12.2537 138.315 12.3611 137.98 12.4767C137.646 12.5924 137.315 12.7161 136.987 12.8479C136.659 12.9797 136.334 13.1195 136.013 13.2672C135.692 13.4149 135.374 13.5703 135.061 13.7334C134.747 13.8966 134.438 14.0672 134.132 14.2455C133.828 14.4238 133.527 14.6094 133.231 14.8023C132.936 14.9952 132.645 15.1952 132.359 15.4023C132.073 15.6094 131.792 15.8234 131.517 16.0442C131.242 16.265 130.972 16.4924 130.708 16.7264C130.445 16.9603 130.187 17.2005 129.935 17.4471C129.683 17.6936 129.437 17.9462 129.198 18.2048C128.959 18.4633 128.726 18.7275 128.499 18.9974C128.273 19.2673 128.054 19.5426 127.841 19.8232C127.629 20.1038 127.423 20.3894 127.225 20.6801C127.026 20.9707 126.835 21.266 126.652 21.566C126.468 21.8659 126.292 22.1702 126.123 22.4788C125.955 22.7874 125.794 23.0998 125.641 23.4162C125.488 23.7326 125.343 24.0526 125.205 24.3761C125.069 24.6996 124.94 25.0263 124.819 25.3561C124.698 25.6859 124.585 26.0184 124.481 26.3536C124.377 26.6889 124.281 27.0266 124.193 27.3668C124.106 27.7064 124.027 28.0483 123.956 28.3923C123.885 28.7363 123.823 29.0816 123.77 29.4284C123.717 29.7751 123.672 30.123 123.636 30.4719C123.6 30.8208 123.572 31.1706 123.554 31.5212C123.535 31.8717 123.525 32.2223 123.524 32.5729C123.523 32.924 123.53 33.2746 123.546 33.6246C123.562 33.9752 123.587 34.3252 123.621 34.6747C123.654 35.0241 123.697 35.3725 123.747 35.7198C123.798 36.0665 123.858 36.4122 123.926 36.7568C123.994 37.1013 124.071 37.4437 124.156 37.7839C124.241 38.1246 124.334 38.4628 124.436 38.7987C124.538 39.135 124.649 39.4683 124.767 39.7987C124.885 40.1296 125.012 40.4572 125.147 40.7815C125.281 41.1058 125.424 41.4268 125.575 41.7446C125.725 42.0618 125.884 42.3755 126.051 42.6856C126.217 42.9951 126.391 43.3006 126.573 43.6019C126.754 43.9033 126.943 44.2 127.139 44.492C127.335 44.7841 127.539 45.0712 127.749 45.3534C127.96 45.6351 128.178 45.9118 128.402 46.1836C128.626 46.4549 128.857 46.7207 129.095 46.981C129.332 47.2413 129.576 47.4957 129.827 47.744C130.077 47.9923 130.333 48.2343 130.595 48.47C130.857 48.7057 131.125 48.9351 131.399 49.1583C131.672 49.3809 131.951 49.5966 132.235 49.8055C132.52 50.015 132.81 50.2171 133.104 50.4118C133.398 50.6071 133.697 50.7949 134.001 50.9754C134.305 51.1553 134.613 51.3282 134.925 51.4939C135.237 51.659 135.554 51.8165 135.874 51.9664C136.194 52.1163 136.518 52.2585 136.845 52.393C137.172 52.527 137.503 52.653 137.836 52.7712C138.169 52.8888 138.506 52.9984 138.845 53.1002C139.184 53.2019 139.525 53.2951 139.869 53.3799C140.212 53.4652 140.558 53.5418 140.906 53.6096C141.253 53.6774 141.602 53.737 141.952 53.7884C142.302 53.8393 142.653 53.8817 143.006 53.9156C143.359 53.9495 143.712 53.9747 144.065 53.9911C144.419 54.008 144.773 54.0162 145.128 54.0157C145.481 54.0151 145.835 54.0058 146.189 53.9878C146.543 53.9697 146.896 53.9432 147.248 53.9082C147.598 53.8732 147.947 53.8297 148.295 53.7778C148.643 53.7264 148.989 53.6662 149.334 53.5973C149.679 53.5289 150.022 53.4521 150.363 53.3668C150.704 53.2815 151.042 53.1879 151.379 53.0862C151.715 52.985 152.049 52.8754 152.38 52.7572C152.711 52.6397 153.039 52.5139 153.364 52.3799C153.689 52.2464 154.01 52.105 154.328 51.9557C154.646 51.8064 154.96 51.6495 155.27 51.4848C155.58 51.3202 155.886 51.1482 156.187 50.9688C156.489 50.7894 156.786 50.6029 157.078 50.4093C157.371 50.2157 157.658 50.015 157.94 49.8072C158.223 49.5994 158.5 49.385 158.773 49.164C159.044 48.9431 159.31 48.7155 159.571 48.4815C159.831 48.2474 160.086 48.007 160.335 47.7604C160.584 47.5143 160.827 47.2621 161.063 47.004C161.299 46.7458 161.529 46.4822 161.752 46.2132C161.975 45.9435 162.192 45.669 162.402 45.3895C162.611 45.1095 162.814 44.8248 163.009 44.5355C163.205 44.2456 163.394 43.9514 163.575 43.6528C163.756 43.3542 163.93 43.0512 164.096 42.7438C164.262 42.437 164.42 42.1261 164.571 41.811C164.722 41.496 164.865 41.1777 165 40.8561C165.135 40.5345 165.263 40.2097 165.382 39.8815C165.501 39.5534 165.612 39.2228 165.715 38.8897C165.817 38.5566 165.912 38.2211 165.998 37.8831C166.084 37.5451 166.162 37.2052 166.231 36.8634C166.3 36.5221 166.361 36.1792 166.413 35.8347C166.466 35.4896 166.51 35.1436 166.545 34.7969C166.581 34.4501 166.608 34.1029 166.625 33.755C166.644 33.4072 166.653 33.0591 166.654 32.7107C166.656 32.3618 166.648 32.0134 166.632 31.6655C166.616 31.3172 166.591 30.9696 166.558 30.6228C166.524 30.2761 166.482 29.9302 166.432 29.5851C166.381 29.24 166.323 28.8965 166.255 28.5547C166.188 28.2129 166.112 27.8727 166.028 27.5342C165.944 27.1956 165.851 26.8595 165.75 26.5259C165.649 26.1918 165.54 25.8606 165.423 25.5325C165.306 25.2038 165.181 24.8781 165.048 24.5554C164.914 24.2329 164.773 23.9139 164.624 23.5982C164.475 23.2825 164.319 22.9706 164.155 22.6626C163.99 22.3545 163.818 22.0506 163.639 21.7508C163.459 21.451 163.273 21.1558 163.078 20.8651C162.884 20.5744 162.684 20.2886 162.475 20.0077C162.267 19.7267 162.052 19.451 161.83 19.1804C161.609 18.9099 161.381 18.6449 161.146 18.3854C160.911 18.1259 160.67 17.8723 160.423 17.6246C160.175 17.3768 159.922 17.1351 159.663 16.8996C159.403 16.6641 159.138 16.4351 158.868 16.2124C158.597 15.9898 158.321 15.7738 158.04 15.5645C157.759 15.3552 157.473 15.1529 157.181 14.9575C156.89 14.7621 156.594 14.5738 156.293 14.3928C155.993 14.2117 155.688 14.0381 155.379 13.8718C155.07 13.7055 154.757 13.5468 154.44 13.3957C154.123 13.2445 153.803 13.1012 153.479 12.9657C153.155 12.8301 152.828 12.7025 152.497 12.5828C152.167 12.463 151.834 12.3514 151.498 12.2478C151.162 12.1443 150.824 12.0489 150.483 11.9617C150.143 11.8746 149.8 11.7957 149.456 11.7251C149.111 11.6546 148.765 11.5924 148.417 11.5387C148.07 11.4849 147.722 11.4395 147.372 11.4027C147.022 11.3657 146.672 11.3373 146.32 11.3174C145.969 11.2976 145.618 11.2862 145.266 11.2833C144.914 11.2804 144.563 11.2861 144.211 11.3003C143.86 11.3145 143.509 11.3372 143.159 11.3684Z" fill="#F3D38A"/>
<path d="M85.7572 40.2819C85.6755 40.2934 85.5935 40.3027 85.5112 40.3098C85.429 40.3175 85.3467 40.3229 85.2645 40.3262C85.1817 40.3295 85.0992 40.3309 85.0169 40.3303C84.9341 40.3298 84.8516 40.327 84.7693 40.3221C84.6865 40.3177 84.6043 40.3112 84.5226 40.3024C84.4403 40.2937 84.3584 40.283 84.2767 40.2704C84.195 40.2578 84.1138 40.2433 84.0332 40.2269C83.9521 40.2105 83.8718 40.1919 83.7923 40.1712C83.7122 40.1509 83.6327 40.1285 83.5538 40.1039C83.4749 40.0798 83.3968 40.0536 83.3195 40.0251C83.2416 39.9972 83.1649 39.9674 83.0893 39.9357C83.0131 39.9034 82.9378 39.8695 82.8632 39.834C82.7887 39.7984 82.7153 39.7612 82.643 39.7224C82.5707 39.683 82.4992 39.642 82.4285 39.5994C82.3579 39.5572 82.2886 39.5132 82.2207 39.4673C82.1523 39.4213 82.0849 39.3738 82.0187 39.3245C81.953 39.2753 81.8884 39.2244 81.8249 39.1719C81.7614 39.1194 81.6993 39.0656 81.6386 39.0103C81.5779 38.9545 81.5185 38.8977 81.4606 38.8397C81.4026 38.7812 81.346 38.7216 81.2908 38.6609C81.2362 38.5996 81.1829 38.5373 81.131 38.4738C81.0791 38.4104 81.0289 38.3456 80.9803 38.2794C80.9312 38.2132 80.884 38.1459 80.8387 38.0776C80.7935 38.0092 80.7499 37.9397 80.7079 37.8692C80.666 37.7986 80.6259 37.7273 80.5879 37.6551C80.5492 37.5823 80.5125 37.5091 80.4777 37.4352C80.4429 37.3608 80.4101 37.2859 80.3792 37.2104C80.3483 37.1344 80.3193 37.0579 80.2922 36.9807C80.2646 36.9036 80.2393 36.8257 80.2161 36.7469C80.1929 36.6687 80.1714 36.5897 80.1515 36.5098C80.1322 36.4305 80.1148 36.3507 80.0993 36.2703C80.0839 36.1899 80.0703 36.1092 80.0587 36.0283C80.0471 35.9473 80.0378 35.8661 80.0306 35.7846C80.0229 35.7031 80.0173 35.6217 80.014 35.5402C80.0107 35.4581 80.0093 35.3764 80.0099 35.2949C80.0104 35.2128 80.0129 35.1311 80.0173 35.0496C80.0223 34.9676 80.0289 34.8861 80.0372 34.8051C80.046 34.7236 80.0568 34.6424 80.0695 34.5615C80.0822 34.4805 80.0968 34.4001 80.1134 34.3203C80.1305 34.2399 80.1493 34.16 80.1697 34.0807C80.1901 34.002 80.2128 33.9235 80.2376 33.8453C80.2619 33.7671 80.2884 33.6894 80.3171 33.6123C80.3452 33.5357 80.3753 33.4597 80.4073 33.3842C80.4399 33.3093 80.4741 33.2349 80.51 33.1611C80.5453 33.0873 80.5829 33.0145 80.6226 32.9429C80.6618 32.8707 80.7029 32.7996 80.746 32.7296C80.7891 32.6601 80.8338 32.5915 80.8801 32.5237C80.9265 32.4559 80.9745 32.3894 81.0242 32.3243C81.0739 32.2587 81.1252 32.1944 81.1782 32.1315C81.2307 32.0686 81.285 32.0071 81.3413 31.9469C81.3971 31.8868 81.4542 31.828 81.5127 31.7706C81.5718 31.7131 81.632 31.6574 81.6932 31.6032C81.7551 31.5485 81.818 31.4955 81.882 31.4441C81.9466 31.3927 82.012 31.3429 82.0783 31.2948C82.1451 31.2461 82.213 31.1993 82.282 31.1545C82.351 31.1096 82.4211 31.0664 82.4923 31.0249C82.5635 30.9833 82.6355 30.9434 82.7084 30.9051C82.7818 30.8673 82.8558 30.8312 82.9303 30.7968C83.0054 30.7623 83.0813 30.7298 83.158 30.6992C83.2342 30.668 83.3112 30.639 83.389 30.6122C83.4674 30.5854 83.5461 30.5603 83.625 30.5367C83.704 30.5138 83.7837 30.4924 83.8643 30.4727C83.9443 30.4536 84.0249 30.4364 84.1061 30.4211C84.1872 30.4057 84.2687 30.3924 84.3504 30.3809C84.4321 30.3694 84.514 30.3601 84.5963 30.353C84.6785 30.3453 84.7611 30.3398 84.8439 30.3366C84.9261 30.3327 85.0086 30.3311 85.0914 30.3316C85.1737 30.3327 85.2562 30.3355 85.339 30.3398C85.4213 30.3442 85.5035 30.3508 85.5858 30.3595C85.668 30.3683 85.75 30.379 85.8317 30.3915C85.9128 30.4041 85.994 30.4186 86.0751 30.435C86.1557 30.4514 86.236 30.47 86.3161 30.4908C86.3961 30.511 86.4756 30.5335 86.5545 30.5581C86.6335 30.5821 86.7116 30.6084 86.7889 30.6368C86.8667 30.6647 86.9437 30.6945 87.0199 30.7262C87.0961 30.7585 87.1711 30.7924 87.2451 30.828C87.3196 30.8635 87.3933 30.9007 87.4662 30.9395C87.5385 30.9789 87.61 31.0197 87.6807 31.0618C87.7508 31.1044 87.82 31.1487 87.8885 31.1947C87.9569 31.2406 88.0243 31.2882 88.0905 31.3374C88.1562 31.3866 88.2208 31.4375 88.2843 31.49C88.3478 31.5425 88.4099 31.5964 88.4706 31.6516C88.5313 31.7069 88.5906 31.7637 88.6486 31.8223C88.7066 31.8808 88.7631 31.9404 88.8183 32.0011C88.8735 32.0623 88.9271 32.1247 88.979 32.1881C89.0309 32.2516 89.0811 32.3164 89.1297 32.3826C89.1783 32.4487 89.2252 32.516 89.2704 32.5844C89.3163 32.6527 89.3601 32.7222 89.4021 32.7928C89.4435 32.8633 89.4835 32.9347 89.5222 33.0069C89.5608 33.0796 89.5975 33.1532 89.6323 33.2275C89.6671 33.3014 89.6999 33.3763 89.7308 33.4523C89.7617 33.5283 89.7907 33.6049 89.8178 33.682C89.8454 33.7591 89.8708 33.8371 89.8939 33.9158C89.9171 33.994 89.9387 34.0731 89.9585 34.1529C89.9778 34.2322 89.9952 34.3121 90.0107 34.3925C90.0261 34.4729 90.0397 34.5535 90.0513 34.6345C90.0629 34.7154 90.0722 34.7966 90.0794 34.8781C90.0872 34.9596 90.0927 35.0414 90.096 35.1234C90.0993 35.2049 90.1007 35.2867 90.1001 35.3687C90.0996 35.4502 90.0971 35.532 90.0927 35.614C90.0877 35.6955 90.0811 35.777 90.0728 35.8585C90.064 35.94 90.0532 36.0209 90.0405 36.1013C90.0278 36.1822 90.0129 36.2629 89.9958 36.3433C89.9792 36.4232 89.9607 36.5027 89.9403 36.582C89.9193 36.6613 89.8967 36.7401 89.8724 36.8183C89.8476 36.8965 89.8211 36.9739 89.7929 37.0505C89.7642 37.1276 89.7339 37.2039 89.7018 37.2793C89.6698 37.3543 89.6359 37.4287 89.6 37.5025C89.5641 37.5763 89.5263 37.6491 89.4866 37.7207C89.4474 37.7929 89.4062 37.8637 89.3632 37.9332C89.3201 38.0032 89.2754 38.0721 89.229 38.1399C89.1827 38.2077 89.1347 38.2742 89.085 38.3393C89.0353 38.4049 88.9839 38.4692 88.931 38.5321C88.878 38.5949 88.8236 38.6565 88.7678 38.7166C88.7121 38.7768 88.6547 38.8356 88.5956 38.893C88.5371 38.9504 88.4769 39.0062 88.4151 39.0604C88.3533 39.1151 88.2903 39.1681 88.2263 39.2195C88.1623 39.2709 88.0969 39.3207 88.0301 39.3688C87.9633 39.4175 87.8954 39.4643 87.8264 39.5091C87.7574 39.554 87.6873 39.5972 87.6161 39.6387C87.5449 39.6803 87.4728 39.72 87.3999 39.7577C87.3265 39.796 87.2523 39.8323 87.1772 39.8668C87.1027 39.9012 87.0271 39.9338 86.9503 39.9644C86.8736 39.995 86.7963 40.024 86.7185 40.0514C86.6407 40.0782 86.562 40.1031 86.4825 40.126C86.4036 40.1496 86.3238 40.1709 86.2432 40.19C86.1632 40.2092 86.0826 40.2264 86.0014 40.2417C85.9203 40.257 85.8389 40.2704 85.7572 40.2819Z" fill="#F3D38A"/>
<path d="M39.2935 53.7843C34.2923 51.3486 36.1736 46.3394 41.203 46.0827C62.2512 43.318 71.6111 73.0704 60.6622 74.1573C59.0608 73.7291 58.2312 73.0983 57.1042 71.9309C56.3913 58.7492 53.7127 53.6637 39.2935 53.7843Z" fill="#F3D38A"/>
<path d="M113.343 120.859C91.6555 141.963 78.0082 164.457 43.9203 148.993C33.758 144.383 22.7023 139.667 13.1809 134.01C4.6753 128.956 1.94996 118.123 9.29018 110.77C22.1169 97.9235 43.3084 121.671 58.3311 121.489C79.8306 121.23 95.6913 69.478 142.804 68.8201C145.541 68.5485 148.533 68.8439 151.263 69.1638C178.645 72.378 195.421 91.4188 212.986 109.729C229.873 127.334 233.22 122.13 253.615 112.855C262.136 108.98 270.888 103.261 279.51 110.392C287.323 116.857 285.422 128.984 277.16 133.97C267.05 140.072 239.295 153.018 229.306 153.601C204.405 155.055 191.324 135.006 175.218 120.859C170.841 140.225 172.298 150.96 181.664 167.438C204.201 207.093 166.759 217.783 178.492 243.158C184.904 257.024 197.837 262.81 197.298 279.922C197.008 289.092 191.722 297.395 185.127 303.571C183.045 302.066 181.126 300.226 179.252 298.473C194.533 282.626 191.983 274.812 178.981 258.494C168.62 245.492 164.356 231.711 172.495 215.94C183.554 194.515 185.34 190.528 172.557 167.455C164.089 152.168 164.404 138.254 167.08 121.684C170.449 100.808 172.861 106.925 183.652 118.175C192.2 127.088 205.254 140.113 216.57 143.925C230.919 148.758 242.632 141.933 255.189 135.896C260.011 133.578 274.816 128.415 276.368 123.45C277.601 119.506 274.566 114.631 270.177 114.686C267.467 114.72 264.586 116.571 262.185 117.688L249.933 123.25C241.845 126.915 234.159 130.943 225.031 128.484C207.258 123.695 191.14 86.9182 155.367 77.7293C127.099 71.2664 105.212 90.5205 87.7291 110.079C70.9501 128.849 64.74 135.273 40.4012 123.992L26.3216 117.311C23.9013 116.141 20.8517 114.321 18.0801 114.71C14.6971 115.185 12.4829 119.188 13.1059 122.361C14.0319 127.079 20.701 129.204 24.5298 131L36.5973 136.642C47.6505 141.914 54.9975 147.343 67.6074 145.519C92.9332 141.853 110.545 103.927 117.8 109.664C120.58 111.862 122.315 126.485 122.787 130.391C125.316 151.353 123.721 154.787 114.563 172.191C102.927 194.3 101 224.81 113.899 246.836C118.921 255.414 124.384 258.078 125.773 269.255C127.695 284.718 118.617 292.893 110.134 303.571C108.612 301.419 106.749 299.483 105.087 297.432C111.69 288.546 119.658 282.262 117.664 269.497C116.516 262.146 111.092 257.522 107.428 251.47C92.809 227.324 94.6389 193.619 107.321 169.082C117.872 148.668 117.436 145.102 113.343 120.859Z" fill="#F3D38A"/>
<path d="M252.388 90.276C252.304 90.2929 252.22 90.3077 252.136 90.3203C252.051 90.3329 251.967 90.3435 251.882 90.3523C251.797 90.3605 251.711 90.367 251.626 90.372C251.541 90.3763 251.455 90.3788 251.37 90.3793C251.284 90.3793 251.199 90.3774 251.113 90.3736C251.028 90.3703 250.943 90.3646 250.858 90.3564C250.773 90.3487 250.688 90.3389 250.603 90.3268C250.519 90.3148 250.434 90.3009 250.351 90.285C250.267 90.2691 250.183 90.2511 250.1 90.2309C250.017 90.2112 249.934 90.1893 249.852 90.1652C249.77 90.1412 249.689 90.1152 249.609 90.0873C249.528 90.0594 249.448 90.0296 249.369 89.9979C249.289 89.9661 249.211 89.9325 249.133 89.897C249.056 89.8614 248.979 89.8242 248.903 89.7854C248.828 89.746 248.753 89.705 248.679 89.6623C248.605 89.6191 248.533 89.5746 248.461 89.5286C248.389 89.4821 248.319 89.434 248.25 89.3842C248.181 89.3345 248.113 89.2831 248.046 89.23C247.979 89.1775 247.914 89.1231 247.85 89.0668C247.786 89.0104 247.723 88.9527 247.662 88.8937C247.601 88.8346 247.541 88.7741 247.483 88.7123C247.425 88.65 247.369 88.5866 247.313 88.522C247.258 88.4575 247.205 88.3916 247.153 88.3243C247.101 88.2571 247.051 88.1884 247.002 88.1184C246.954 88.0489 246.907 87.9781 246.862 87.9059C246.817 87.8337 246.774 87.7607 246.732 87.6869C246.691 87.6131 246.651 87.5381 246.614 87.4621C246.576 87.3861 246.539 87.3092 246.505 87.2316C246.472 87.1539 246.44 87.0754 246.409 86.9961C246.379 86.9168 246.351 86.837 246.325 86.7566C246.299 86.6756 246.275 86.5944 246.252 86.5129C246.23 86.4309 246.21 86.3486 246.191 86.266C246.173 86.1834 246.157 86.1003 246.143 86.0166C246.129 85.9329 246.117 85.8493 246.107 85.7656C246.096 85.6814 246.088 85.5969 246.083 85.5121C246.077 85.4279 246.073 85.3434 246.071 85.2586C246.07 85.1738 246.07 85.0893 246.072 85.0051C246.075 84.9203 246.08 84.8356 246.086 84.7508C246.092 84.6666 246.101 84.5823 246.112 84.4981C246.122 84.4144 246.135 84.3308 246.15 84.2471C246.165 84.164 246.182 84.0811 246.201 83.9985C246.219 83.9159 246.24 83.8339 246.263 83.7524C246.286 83.6709 246.311 83.59 246.338 83.5096C246.365 83.4292 246.394 83.3493 246.424 83.27C246.455 83.1913 246.488 83.1131 246.523 83.0354C246.557 82.9583 246.593 82.8817 246.632 82.8057C246.67 82.7302 246.71 82.6556 246.753 82.5817C246.795 82.5079 246.838 82.4352 246.884 82.3635C246.929 82.2919 246.977 82.2216 247.026 82.1527C247.075 82.0832 247.126 82.0151 247.178 81.9484C247.231 81.8811 247.285 81.8155 247.34 81.7515C247.396 81.687 247.453 81.6241 247.511 81.5628C247.57 81.501 247.631 81.4409 247.692 81.3823C247.754 81.3238 247.817 81.2667 247.881 81.2109C247.946 81.1551 248.012 81.101 248.079 81.0485C248.146 80.9965 248.214 80.9459 248.284 80.8967C248.353 80.8475 248.424 80.7999 248.496 80.7539C248.568 80.708 248.641 80.664 248.715 80.6219C248.789 80.5798 248.864 80.5393 248.94 80.5005C249.016 80.4622 249.093 80.4255 249.171 80.3905C249.249 80.3555 249.328 80.3224 249.407 80.2913C249.487 80.2601 249.567 80.2311 249.648 80.2043C249.729 80.1769 249.81 80.1515 249.892 80.128C249.974 80.1045 250.057 80.0832 250.14 80.064C250.253 80.0378 250.367 80.0151 250.482 79.9959C250.597 79.9773 250.712 79.9623 250.828 79.9508C250.943 79.9393 251.06 79.9319 251.176 79.9287C251.292 79.9248 251.408 79.9248 251.525 79.9287C251.641 79.9325 251.757 79.9401 251.872 79.9516C251.988 79.9631 252.103 79.9784 252.218 79.9976C252.333 80.0167 252.447 80.0394 252.56 80.0657C252.673 80.0919 252.785 80.122 252.897 80.1559C253.008 80.1898 253.118 80.2273 253.226 80.2683C253.335 80.3093 253.442 80.3539 253.548 80.402C253.654 80.4501 253.758 80.5018 253.86 80.5571C253.962 80.6118 254.062 80.6697 254.16 80.731C254.259 80.7928 254.355 80.8576 254.449 80.9254C254.544 80.9932 254.635 81.0638 254.724 81.1371C254.814 81.2109 254.901 81.2877 254.985 81.3676C255.069 81.4469 255.15 81.5289 255.229 81.6137C255.308 81.6985 255.384 81.7857 255.457 81.8754C255.53 81.9651 255.6 82.0572 255.666 82.1519C255.733 82.2459 255.797 82.3425 255.857 82.4414C255.917 82.5399 255.974 82.6403 256.027 82.7425C256.081 82.8448 256.131 82.9487 256.178 83.0543C256.225 83.1598 256.268 83.2667 256.307 83.375C256.347 83.4833 256.383 83.5927 256.415 83.7032C256.448 83.8142 256.476 83.926 256.501 84.0387C256.525 84.1508 256.546 84.264 256.564 84.3783C256.581 84.4921 256.594 84.6064 256.604 84.7213C256.614 84.8361 256.619 84.9512 256.621 85.0666C256.623 85.1815 256.621 85.2966 256.615 85.412C256.61 85.5269 256.6 85.6414 256.586 85.7557C256.573 85.8706 256.556 85.9846 256.535 86.0978C256.514 86.211 256.489 86.3234 256.461 86.435C256.432 86.5471 256.4 86.6579 256.364 86.7673C256.328 86.8766 256.288 86.9849 256.245 87.0921C256.202 87.1993 256.156 87.3049 256.105 87.4088C256.055 87.5127 256.001 87.6147 255.944 87.7148C255.887 87.8154 255.827 87.9139 255.763 88.0101C255.699 88.1069 255.633 88.2013 255.563 88.2931C255.493 88.3856 255.42 88.4753 255.344 88.5622C255.268 88.6497 255.19 88.7345 255.108 88.8165C255.027 88.8986 254.942 88.9781 254.856 89.0553C254.769 89.1318 254.679 89.2054 254.588 89.2759C254.496 89.347 254.402 89.4149 254.305 89.4794C254.209 89.5439 254.111 89.6052 254.01 89.6632C253.91 89.7217 253.808 89.7766 253.704 89.8281C253.6 89.8795 253.494 89.9276 253.387 89.9724C253.28 90.0167 253.171 90.0578 253.061 90.0955C252.951 90.1327 252.84 90.1663 252.728 90.1964C252.616 90.2265 252.503 90.253 252.388 90.276Z" fill="#F3D38A"/>
<path d="M84.3127 174.657C84.2277 174.67 84.1427 174.68 84.0577 174.688C83.9721 174.697 83.8865 174.703 83.801 174.707C83.7154 174.711 83.6299 174.714 83.5443 174.714C83.4587 174.714 83.3732 174.712 83.2876 174.708C83.2021 174.704 83.1165 174.698 83.0309 174.69C82.9454 174.682 82.8604 174.672 82.7759 174.659C82.6909 174.647 82.6064 174.633 82.5225 174.617C82.4381 174.6 82.3544 174.582 82.2716 174.562C82.1883 174.542 82.1055 174.519 82.0232 174.494C81.941 174.47 81.8596 174.444 81.779 174.416C81.6984 174.387 81.6183 174.357 81.5388 174.326C81.4593 174.293 81.3807 174.259 81.3029 174.223C81.2256 174.187 81.1488 174.15 81.0727 174.11C80.997 174.07 80.9222 174.029 80.8483 173.986C80.7749 173.943 80.7023 173.898 80.6305 173.851C80.5587 173.804 80.4884 173.756 80.4194 173.705C80.3504 173.655 80.2825 173.603 80.2157 173.55C80.1489 173.497 80.0837 173.442 80.0203 173.385C79.9562 173.328 79.8936 173.27 79.8323 173.211C79.7716 173.151 79.7119 173.09 79.6534 173.028C79.5955 172.965 79.5392 172.902 79.4845 172.837C79.4293 172.771 79.3761 172.704 79.3247 172.637C79.2728 172.569 79.2229 172.5 79.1749 172.43C79.1263 172.36 79.0796 172.289 79.0349 172.216C78.9902 172.144 78.9471 172.07 78.9057 171.996C78.8649 171.921 78.8257 171.846 78.7882 171.769C78.7506 171.693 78.715 171.616 78.6813 171.538C78.6477 171.46 78.6159 171.381 78.5861 171.301C78.5563 171.221 78.5287 171.141 78.5033 171.06C78.4774 170.979 78.4534 170.897 78.4313 170.815C78.4098 170.733 78.3902 170.651 78.3725 170.567C78.3548 170.484 78.3391 170.401 78.3253 170.317C78.3115 170.233 78.2999 170.149 78.2905 170.065C78.2811 169.98 78.2737 169.896 78.2682 169.811C78.2627 169.726 78.2593 169.641 78.2582 169.557C78.2571 169.472 78.2582 169.387 78.2615 169.302C78.2643 169.217 78.2693 169.132 78.2764 169.048C78.2836 168.963 78.293 168.879 78.3046 168.795C78.3156 168.71 78.3289 168.626 78.3443 168.543C78.3598 168.46 78.3772 168.376 78.3965 168.293C78.4164 168.211 78.4379 168.129 78.4611 168.047C78.4848 167.966 78.5105 167.885 78.5381 167.804C78.5657 167.724 78.5952 167.644 78.6267 167.565C78.6582 167.486 78.6916 167.408 78.7269 167.33C78.7622 167.253 78.7995 167.177 78.8387 167.101C78.8773 167.026 78.9182 166.951 78.9612 166.877C79.0037 166.804 79.0482 166.731 79.0945 166.66C79.1409 166.588 79.1889 166.518 79.2386 166.449C79.2883 166.38 79.3399 166.312 79.3934 166.245C79.4464 166.179 79.5011 166.114 79.5574 166.05C79.6137 165.986 79.6714 165.923 79.7304 165.862C79.7901 165.8 79.8511 165.741 79.9134 165.682C79.9758 165.624 80.0396 165.568 80.1047 165.512C80.1699 165.457 80.2364 165.403 80.3043 165.351C80.3716 165.3 80.4403 165.249 80.5104 165.201C80.5811 165.152 80.6526 165.105 80.7249 165.059C80.7978 165.014 80.8715 164.971 80.946 164.929C81.0205 164.887 81.0961 164.847 81.1729 164.809C81.2496 164.771 81.3271 164.735 81.4055 164.701C81.4839 164.667 81.5631 164.635 81.6432 164.604C81.7232 164.573 81.8038 164.545 81.885 164.519C81.9666 164.492 82.0486 164.467 82.1309 164.445C82.2137 164.422 82.297 164.401 82.3809 164.383C82.4643 164.365 82.5482 164.348 82.6327 164.333C82.7469 164.314 82.8617 164.298 82.9771 164.286C83.0925 164.274 83.2081 164.265 83.324 164.26C83.44 164.256 83.5562 164.255 83.6726 164.258C83.7886 164.261 83.9042 164.268 84.0196 164.278C84.1355 164.289 84.2506 164.303 84.3649 164.321C84.4797 164.339 84.5937 164.361 84.7068 164.387C84.82 164.412 84.9321 164.442 85.043 164.475C85.1545 164.507 85.2646 164.544 85.3734 164.584C85.4821 164.624 85.5895 164.667 85.6955 164.714C85.8015 164.761 85.9055 164.812 86.0077 164.866C86.1103 164.919 86.2111 164.977 86.3099 165.037C86.4087 165.097 86.5053 165.161 86.5997 165.228C86.6941 165.295 86.7863 165.365 86.8762 165.438C86.9662 165.51 87.0534 165.586 87.1379 165.664C87.2229 165.743 87.3052 165.824 87.3846 165.908C87.4641 165.991 87.5406 166.078 87.614 166.167C87.6874 166.256 87.7581 166.347 87.826 166.44C87.8933 166.534 87.9576 166.629 88.0189 166.727C88.0802 166.825 88.1381 166.925 88.1928 167.026C88.2474 167.128 88.2985 167.231 88.346 167.335C88.394 167.44 88.4382 167.547 88.4785 167.654C88.5193 167.762 88.5566 167.871 88.5902 167.981C88.6234 168.091 88.6529 168.202 88.6788 168.314C88.7048 168.426 88.7271 168.539 88.7459 168.653C88.7641 168.766 88.7788 168.88 88.7898 168.995C88.8008 169.109 88.808 169.224 88.8113 169.338C88.8141 169.454 88.8133 169.569 88.8088 169.684C88.8044 169.799 88.7964 169.913 88.7848 170.028C88.7727 170.142 88.7567 170.256 88.7368 170.369C88.7175 170.482 88.6943 170.595 88.6672 170.707C88.6402 170.818 88.6093 170.929 88.5745 171.039C88.5403 171.149 88.5022 171.258 88.4602 171.365C88.4183 171.472 88.373 171.578 88.3244 171.682C88.2759 171.787 88.2237 171.889 88.168 171.99C88.1122 172.091 88.0534 172.19 87.9916 172.287C87.9292 172.384 87.8638 172.479 87.7953 172.572C87.7269 172.665 87.6554 172.755 87.5809 172.844C87.5058 172.932 87.4283 173.018 87.3482 173.101C87.2682 173.184 87.1854 173.264 87.0998 173.342C87.0143 173.42 86.9262 173.494 86.8357 173.566C86.7446 173.637 86.6516 173.706 86.5566 173.773C86.4617 173.838 86.3645 173.901 86.2652 173.96C86.1658 174.02 86.0645 174.076 85.9613 174.129C85.8581 174.182 85.7532 174.231 85.6466 174.277C85.5407 174.323 85.433 174.365 85.3237 174.404C85.2144 174.444 85.104 174.479 84.9925 174.511C84.881 174.543 84.7684 174.571 84.6547 174.595C84.5415 174.619 84.4275 174.64 84.3127 174.657Z" fill="#F3D38A"/>
<path d="M226.83 219.207C223.51 185.936 237.264 170.705 270.532 166.637C281.045 166.371 288.92 167.19 299.038 170.048C297.792 191.016 289.508 215.834 269.577 226.021C256.77 232.566 245.187 229.745 232.213 225.613C231.162 226.298 230.085 226.942 229.203 227.839C224.807 232.526 220.82 237.667 217.767 243.313C215.798 241.435 213.728 239.984 211.426 238.545C215.121 231.857 220.79 223.919 226.83 219.207ZM272.284 174.444C247.331 177.384 233.935 185.484 234.104 211.476C237.946 207.781 256.873 191.7 262.158 197.137C267.347 202.476 255.086 205.027 250.32 208.868C246.11 211.284 240.961 215.149 238.212 219.207C249.515 222.434 256.32 224.336 267.262 218.297C281.239 210.585 289.306 191.495 290.469 176.003C284.456 174.502 278.452 174.217 272.284 174.444Z" fill="#F3D38A"/>
<path d="M5.97479 199.784C-4.01716 204.492 -2.31127 180.103 17.4754 177.39C20.1905 176.988 23.9699 177.951 23.5559 181.423C23.011 185.989 16.0846 184.531 12.2332 187.544C7.00807 191.63 9.24629 197.121 5.97479 199.784Z" fill="#F3D38A"/>
<path d="M139.307 281.457C142.157 277.584 145.913 274.414 148.115 270.068C157.68 251.195 117.398 240.354 133.438 210.011C139.033 199.428 148.522 195.035 159.471 191.675L159.936 191.702C160.61 192.504 161.76 197.555 162.212 198.936C155.331 201.152 149.003 203.366 143.959 208.808C123.612 230.761 156.893 244.23 157.546 262.466C157.906 272.554 151.738 279.771 145.136 286.733L143.556 285.376C142.084 284.161 140.711 282.754 139.307 281.457Z" fill="#F3D38A"/>
<path d="M32.6609 196.913C34.3989 196.623 36.1312 196.438 37.8857 196.271C51.8138 194.786 70.296 200.458 75.7071 214.651C77.5768 219.556 78.2094 227.346 75.977 232.211C78.327 235.832 80.2488 239.704 82.6293 243.314C80.8773 244.192 79.1003 245.005 77.3151 245.813C76.473 246.229 75.5904 246.582 74.7292 246.959C73.185 243.435 71.4039 240.017 69.4481 236.703C59.4506 237.311 49.656 239.096 42.4721 230.233C36.8259 223.266 31.6938 205.665 32.6609 196.913ZM41.2011 203.96C41.2293 209.466 45.5672 222.304 49.6502 226.23C53.3258 229.765 58.9662 230.296 63.8565 229.782C59.2966 223.234 50.2273 224.334 53.9741 217.703C58.375 213.489 66.5004 220.664 69.4481 223.659C68.1142 208.336 54.7218 204.71 41.2011 203.96Z" fill="#F3D38A"/>
</svg>
