<svg width="388" height="246" viewBox="0 0 388 246" fill="none" xmlns="http://www.w3.org/2000/svg">
<path d="M220.345 72.5128C217.152 71.6635 210.499 66.6 207.967 64.3331C190.893 49.0499 191.289 24.943 205.841 8.03723C208.147 5.35824 210.851 3.08815 213.196 0.47901L213.309 0.351026C216.813 -0.513976 219.533 2.82559 221.886 4.91769C237.911 19.1599 244.695 39.8909 232.855 59.1651C231.046 62.1102 223.615 71.7241 220.345 72.5128ZM214.882 10.1479C213.364 12.1494 211.311 13.6769 209.805 15.6895C201.985 26.1365 200.203 41.2961 207.876 52.2795C209.176 54.142 214.536 58.9323 214.882 60.6255C218.07 53.222 207.558 35.6963 214.882 30.721C221.355 29.5878 220.703 37.5742 221.227 41.9405C221.584 44.9212 223.499 56.5823 222.966 58.902C226.149 56.8709 229.607 48.1858 230.428 44.4413C233.174 31.9111 226.21 17.5827 215.934 10.1493C215.585 10.1423 215.229 10.1169 214.882 10.1479Z" fill="#C6D8B7"/>
<path d="M279.781 72.5128C257.579 75.3272 245.967 63.4185 263.069 43.8486C268.812 37.2754 276.693 33.4893 285.395 32.8907C291.128 32.2523 304.561 33.9514 309.185 37.5516C314.312 41.5431 303.996 58.1127 301.082 61.6154C295.704 68.0793 288.139 71.7098 279.781 72.5128ZM285.395 40.616C269.87 41.805 271.033 50.344 264.267 55.863C271.699 53.7808 280.818 47.2765 286.636 45.9611C291.711 44.8131 296.208 53.3782 280.109 57.1322L279.781 57.2064C278.002 59.2013 269.4 62.7361 266.478 63.469C282.571 67.2521 292.867 63.0378 299.93 48.304C300.632 46.8382 302.097 44.5232 301.8 42.8271C297.183 40.4687 290.487 40.1047 285.395 40.616Z" fill="#C6D8B7"/>
<path d="M179.502 125.404C174.398 128.157 169.193 130.864 163.437 131.958C129.21 138.465 95.0185 106.37 89.0806 74.6066C85.9743 57.9901 92.0788 59.3281 109.059 57.2061C145.75 54.8234 182.105 79.7984 183.186 118.12C186.012 120.286 196.437 127.752 197.776 130.089C199.096 127.912 198.639 123.062 198.921 120.44C201.284 98.475 224.527 83.3635 245.454 85.9653C255.53 87.2184 248.737 117.839 243.103 122.25C252.345 120.406 264.049 116.466 273.729 114.07C275.154 112.831 276.424 109.575 277.481 107.896C290.966 86.4695 315.495 86.1257 336.158 97.1958C344.514 101.673 342.769 103.751 338.551 111.428C327.707 131.161 303.738 139.709 283.724 127.946C280.852 126.258 278.339 123.945 275.406 122.379L275.159 122.25C255.742 124.05 238.526 133.636 220.342 139.622C222.895 140.898 230.641 145.078 232.146 146.967C272.066 143.348 273.309 197.46 260.502 196.5C241.621 195.085 222.785 179.101 224.911 159.072C225.154 156.778 226.396 154.721 226.471 152.39C224.614 150.581 208.535 141.97 205.736 141.186C216.095 148.099 205.161 161.256 198.619 166.619C190.938 172.913 181.334 175.498 171.456 174.529C166.348 174.028 152.718 170.51 149.604 166.536C147.686 164.086 150.446 160.335 151.657 158.228C160.999 141.969 173.9 132.947 193.481 136.428C188.672 133.048 184.151 129.018 179.502 125.404ZM111.078 65.2563C105.834 65.4464 100.867 66.2956 95.8048 67.645C99.0025 86.2955 107.941 102.846 123.813 114.027C137.06 123.359 156.591 129.081 171.612 120.494C162.746 114.127 153.058 108.427 143.759 102.683C142.208 101.771 125.9 92.5819 135.672 90.1493C139.739 89.1367 169.711 110.115 174.74 113.03C173.153 99.2916 165.959 87.4304 155.128 78.86C145.144 70.9607 123.949 62.0458 111.078 65.2563ZM237.231 94.1877C224.863 96.4606 211.104 103.205 207.846 116.374C207.228 118.873 207.045 122.17 205.736 124.376C212.31 120.954 225.383 103.01 230.007 104.486C233.918 105.736 232.898 110.634 229.954 112.3C229.609 113.101 210.459 131.935 209.183 132.7C229.499 132.472 242.679 117.883 242.384 97.8301C242.367 96.675 242.466 95.1594 241.782 94.1877C240.276 94.1676 238.732 94.0737 237.231 94.1877ZM307.208 98.2405C292.479 98.4792 291.192 106.39 284.447 112.3C290.757 110.885 304.059 107.004 310.14 106.762C313.333 106.635 315.738 110.271 313.391 112.895C311.199 115.345 292.888 118.685 288.671 119.278H284.447L284.695 119.38C286.726 120.231 288.36 121.751 290.366 122.66C306.39 129.922 325.682 121.742 332.786 105.914C332.975 105.492 333.033 105.168 333.018 104.71C329.395 99.9158 314.138 97.1204 307.208 98.2405ZM183.186 143.437C171.515 144.801 163.561 152.685 158.307 162.55C168.48 167.347 187.401 169.076 195.134 159.208L195.126 158.986C196.489 157.985 198.305 156.815 198.644 155.06C194.908 156.178 180.403 159.221 176.717 159.353C172.16 159.517 170.854 153.718 175.124 152.014C180.891 149.713 191.626 149.224 198.644 146.967C195.273 144.062 187.521 142.622 183.186 143.437ZM238.694 155.06C241.258 156.97 259.889 177.309 248.733 178.241C244.268 178.614 237.656 162.264 232.271 159.062L232.146 158.986L232.207 159.262C232.735 161.71 232.435 164.322 233.023 166.729C233.495 168.657 235.53 171.657 235.436 173.472C237.427 175.142 238.596 177.537 240.407 179.374C247.001 186.061 250.926 185.425 258.113 187.992C264.927 180.726 254.039 154.121 238.694 155.06Z" fill="#C6D8B7"/>
<path d="M31.0398 98.2407C11.8341 99.1351 -22.1009 77.9236 20.5652 74.2629C36.5582 73.1398 74.2424 95.8871 31.0398 98.2407ZM19.4987 82.2567C16.7711 82.6908 14.0824 83.3334 11.4625 84.2076C17.7223 88.8138 24.5749 90.9405 32.3596 90.1911C34.8308 90.0105 37.2429 89.596 39.6723 89.1214C33.9083 84.7421 27.0037 81.0511 19.4987 82.2567Z" fill="#C6D8B7"/>
<path d="M128.094 92.2267C122.884 92.3413 115.16 86.0378 121.874 82.2559C127.319 82.4109 135.121 88.1758 128.094 92.2267Z" fill="#C6D8B7"/>
<path d="M111.078 162.549C91.1474 162.298 69.9156 123.753 81.2853 119.278C105.479 121.287 122.465 156.457 111.078 162.549ZM87.2918 130.088C90.0588 139.787 96.2266 148.779 106.282 151.849C102.841 142.137 98.2288 132.53 87.2918 130.088Z" fill="#C6D8B7"/>
<path d="M29.9118 187.992C0.462208 191.545 -5.66384 149.069 23.8503 144.601C50.4224 140.848 58.7383 182.382 29.9118 187.992ZM23.8503 152.391C5.20328 157.043 9.92822 182.078 29.9118 180.897C49.4593 168.746 39.3671 150.741 23.8503 152.391Z" fill="#C6D8B7"/>
<path d="M373.675 179.473C364.494 178.914 356.476 176.48 349.076 170.958C335.622 160.919 332.637 153.993 352.036 152.391C361.6 152.145 370.307 154.44 377.542 160.867C390.309 172.209 393.952 179.658 373.675 179.473ZM348.731 160.408C354.147 165.05 368.656 174.277 376.302 171.693C375.625 163.908 356.135 159.012 348.731 160.408Z" fill="#C6D8B7"/>
<path d="M343.637 213.919C324.481 212.927 304.499 175.949 316.166 171.692C337.055 168.721 356.623 211.697 343.637 213.919ZM321.246 180.896C324.041 190.556 328.889 199.567 338.75 203.465C341.136 197.234 328.112 181.931 321.246 180.896Z" fill="#C6D8B7"/>
<path d="M88.35 229.455C81.9246 229.693 71.3538 232.269 70.3835 224.417C67.466 200.809 81.5511 177.607 106.284 174.626C110.851 174.211 120.809 173.852 122.821 179.22C125.774 187.098 124.287 198.187 120.839 205.689C113.6 221.438 102.655 224.124 88.35 229.455ZM109.062 182.354C87.486 183.542 77.4189 202.202 78.0355 221.941C91.7491 221.512 99.5427 218.213 109.612 209.106C114.395 202.581 116.643 196.085 116.542 187.992L104.7 199.836C102.901 201.65 98.9572 207.023 96.045 206.9C84.1198 206.396 105.975 187.376 107.233 186.103C108.153 185.172 112.497 182.211 109.062 182.354Z" fill="#C6D8B7"/>
<path d="M227.137 244.659C223.021 246.158 216.239 243.557 212.748 241.354C195.02 230.173 200.721 205.511 221.523 201.088C252.241 198.102 255.083 241.708 227.137 244.659ZM221.523 209.105C202.241 215.393 212.038 240.971 226.472 236.59C244.585 234.186 241.757 206.676 221.523 209.105Z" fill="#C6D8B7"/>
</svg>
