<svg width="52" height="52" viewBox="0 0 52 52" fill="none" xmlns="http://www.w3.org/2000/svg">
<circle cx="26" cy="25.9995" r="18.6684" transform="rotate(-35 26 25.9995)" fill="#FFF4EB"/>
<path d="M16.1396 31.1521C15.461 31.6273 15.2961 32.5626 15.7713 33.2412C16.2464 33.9198 17.1818 34.0848 17.8604 33.6096L16.1396 31.1521ZM35.6794 20.5962C35.8233 19.7804 35.2785 19.0024 34.4627 18.8585L21.1678 16.5143C20.3519 16.3704 19.5739 16.9152 19.4301 17.731C19.2862 18.5469 19.831 19.3249 20.6468 19.4687L32.4645 21.5525L30.3807 33.3702C30.2369 34.186 30.7816 34.964 31.5975 35.1079C32.4133 35.2517 33.1913 34.707 33.3352 33.8911L35.6794 20.5962ZM17.8604 33.6096L35.0626 21.5645L33.3418 19.107L16.1396 31.1521L17.8604 33.6096Z" fill="#132420"/>
</svg>
