<svg width="21" height="20" viewBox="0 0 21 20" fill="none" xmlns="http://www.w3.org/2000/svg">
<path d="M1.13964 15.1521C0.461028 15.6273 0.296106 16.5626 0.771272 17.2412C1.24644 17.9198 2.18176 18.0848 2.86036 17.6096L1.13964 15.1521ZM20.6794 4.59623C20.8233 3.78038 20.2785 3.0024 19.4627 2.85854L6.16776 0.514292C5.35192 0.370437 4.57393 0.915189 4.43008 1.73103C4.28622 2.54687 4.83097 3.32486 5.64682 3.46872L17.4645 5.55249L15.3807 17.3702C15.2369 18.186 15.7816 18.964 16.5975 19.1079C17.4133 19.2517 18.1913 18.707 18.3352 17.8911L20.6794 4.59623ZM2.86036 17.6096L20.0626 5.56448L18.3418 3.10703L1.13964 15.1521L2.86036 17.6096Z" fill="#132420"/>
</svg>
