<svg width="212" height="160" viewBox="0 0 212 160" fill="none" xmlns="http://www.w3.org/2000/svg">
<path d="M149.854 84.505C136.364 84.7625 124.346 75.3878 121.309 62.2309C119.88 56.0386 121.7 58.6815 117.998 53.2481C111.566 43.8046 112.047 31.3519 118.089 21.8286C123.938 12.6085 141.386 3.15897 152.443 0.71875C155.393 0.770444 155.881 5.15396 156.413 7.34921C161.315 27.5988 156.066 53.0313 132.822 57.8374C130.282 58.3628 127.666 58.4221 125.145 59.0223C125.679 60.268 125.981 61.597 126.383 62.8893C129.64 73.3411 137.67 78.1768 148.268 79.8646C149.333 76.0463 150.131 72.6987 152.138 69.192C163.56 49.2376 187.608 52.4351 205.535 60.812C213.573 64.5676 213.476 64.3127 207.532 73.0134C198.089 86.0418 182.376 100.259 164.878 95.4697C159.148 93.9008 152.822 89.7623 149.854 84.505ZM150.938 6.08446C139.035 10.5728 125.589 15.8311 120.024 28.2587C116.036 37.1637 118.349 43.5336 122.226 51.4805C126.479 39.646 132.215 32.0575 142.011 24.2467L143.889 22.862C138.743 34.4003 130.714 41.2646 126.455 53.74C150.572 53.9091 156.335 28.1007 151.834 8.34545C151.69 7.71307 151.571 6.58283 151.177 6.08897L150.938 6.08446ZM177.759 59.0223C166.266 59.5503 155.825 67.2281 153.694 78.7725C168.097 74.4257 170.749 72.5356 186.092 72.5717C177.289 77.0691 165.718 79.9835 156.001 82.9477C153.793 83.6985 157.125 85.7527 158.307 86.7178C175.845 101.042 197.182 81.4666 206.24 66.3252C199.758 62.7197 185.393 57.6246 177.759 59.0223Z" fill="#FFF4EB"/>
<path d="M90.1865 57.5781C89.6467 58.2586 89.106 59.1515 88.2654 59.4727C84.2686 60.9974 74.7947 58.5773 70.6096 56.5758C52.766 48.0432 49.4058 25.8188 52.9141 8.26984C53.2992 6.34311 53.6883 2.1353 55.9418 1.45264C57.4687 1.49861 58.9716 2.01886 60.4237 2.4535C75.6001 6.99606 93.8886 17.1914 96.4439 34.412C97.7087 42.9346 95.2368 50.7293 90.1865 57.5781ZM58.0191 6.62667C53.852 28.0697 57.8679 53.4119 84.0934 55.1314C79.845 43.4921 70.6728 34.6133 66.426 22.8627L68.4937 24.6509C74.9564 30.6062 80.321 37.3832 84.6803 45.0149C86.0009 47.327 86.9393 49.8701 88.3282 52.1281C91.848 45.1499 93.6285 39.4675 90.9557 31.4444C86.6049 18.3828 70.7391 10.0385 58.0191 6.62667Z" fill="#FFF4EB"/>
<path d="M60.3653 79.1529C61.5036 81.8325 63.7436 89.6955 62.0334 92.0168C59.1025 95.9937 49.0527 101.1 44.4107 101.778C26.8139 104.348 10.3486 87.7588 2.30127 73.8806C-0.600194 68.8768 -1.54402 67.6964 4.21342 65.1267C11.0321 62.0828 17.8191 60.3608 25.2474 59.6587C36.3065 59.4078 53.1389 62.9782 58.0175 74.3072C73.7899 74.3203 88.5671 83.4862 90.5565 100.214C91.0842 104.653 90.7804 103.687 93.0841 107.383C97.9762 115.233 99.5317 124.155 96.1706 133.031C91.0626 146.523 77.0988 152.715 64.5409 157.586C62.4566 158.394 57.1332 161.42 55.8739 158.182C52.7197 150.071 52.438 131.172 55.5837 123.644C56.0698 119.837 60.3121 113.653 62.9537 111.001C69.1378 104.791 77.4372 102.135 86.064 102.104C83.8537 88.758 74.3708 79.0992 60.3653 79.1529ZM25.2474 64.3077C18.5449 64.9666 11.4263 66.6906 5.42181 69.8048C6.21199 71.8179 7.5327 73.6864 8.757 75.4621C16.4517 86.6215 32.4885 101.956 47.5228 96.0348C50.4883 94.867 52.8502 93.0577 55.5837 91.5274C51.6823 89.1911 47.4711 87.4551 43.2699 85.7427C36.3588 82.9156 31.0087 80.8483 24.3425 77.2337C36.6997 76.9838 46.9453 81.69 57.6595 87.3096C55.5139 69.9152 41.039 64.1104 25.2474 64.3077ZM83.4952 107.015C58.6461 108.691 54.8566 134.855 59.7161 154.368C71.2451 150.043 85.5845 144.788 91.1163 132.773L91.1826 132.627C94.8395 124.363 93.3357 115.946 88.3266 108.757C85.0478 122.04 78.5298 130.989 67.4562 138.441C71.8597 128.827 78.4334 123.094 82.2013 112.24C82.4403 111.552 84.0601 107.304 83.4952 107.015Z" fill="#FFF4EB"/>
<path d="M118.186 94.5462C120.455 93.954 122.821 93.692 125.144 93.3999C149.326 92.7565 160.834 109.398 163.856 132.012C165.65 145.439 165.026 142.914 152.899 143.197C150.871 142.783 148.755 142.7 146.708 142.369C122.726 138.497 103.551 117.253 118.186 94.5462ZM125.144 98.1823L124.019 98.3028C123.783 100.038 131.783 108.814 133.093 110.158C137.795 114.985 142.962 119.46 146.554 125.232C135.467 122.081 126.162 110.696 119.886 101.352C117.396 108.632 117.179 116.975 122.226 123.216C128.555 135.075 147.347 138.588 159.644 138.443C159.229 117.655 148.403 96.8965 125.144 98.1823Z" fill="#FFF4EB"/>
</svg>
