<svg width="208" height="146" viewBox="0 0 208 146" fill="none" xmlns="http://www.w3.org/2000/svg">
<path d="M162.39 26.5503C164.257 20.9182 165.992 15.2479 167.881 9.62095C169.118 5.93947 169.35 1.44464 173.898 0.779421C176.237 0.643341 178.652 0.775233 180.999 0.773663C195.843 0.762672 193.202 3.5879 190.246 14.9207L185.593 33.2549C184.851 36.2905 183.902 39.4324 183.482 42.5293L183.455 42.7318C196.672 43.373 207.798 55.6825 207.893 68.7179L207.894 81.0938C207.896 83.6861 208.045 86.3627 207.82 88.9436C206.666 102.144 195.655 113.272 182.552 114.838C177.862 115.399 172.882 115.081 168.154 115.074C166.687 121.641 166.446 127.67 161.376 132.735C155.784 138.324 150.754 138.459 143.386 138.458L100.796 138.456C97.9577 146.319 88.6477 147.546 83.0549 141.963C77.317 146.365 72.8741 147.239 67.1304 141.963C61.9989 146.795 56.2087 146.967 51.0505 141.963C46.4971 146.314 39.3575 147.259 35.0936 141.963C20.2825 154.889 6.98802 129.242 25.7066 125.06C25.428 123.732 25.2699 122.382 25.1783 121.029C22.1282 121.876 19.2567 122.185 16.0981 122.105C10.0113 122.009 -7.3658 120.424 3.49194 112.021C9.50392 107.368 13.1875 106.42 20.4237 104.943C12.5294 101.874 6.27416 95.2215 2.48878 87.7827C-0.672644 81.5701 -0.906022 77.9954 7.21401 79.8686C13.9135 81.4136 19.6885 84.4137 25.1783 88.4966C24.2457 82.4128 24.5447 69.8295 28.8248 65.7785C30.2391 64.4397 32.1021 64.792 33.3415 66.1538C39.0915 72.4726 42.4547 82.8639 42.1688 91.3255C47.9951 84.1384 55.583 79.0076 65.1621 78.7077C65.1988 76.8769 64.5809 73.1614 65.8318 71.6949C66.6408 70.747 68.3452 70.7282 69.2296 71.5776C70.6848 72.9746 70.1758 76.7628 70.1564 78.7077C73.1647 79.0641 75.9084 79.8597 78.7151 80.9734C77.994 75.3748 76.7054 69.4009 75.6414 63.8195L70.5947 37.0296C70.2387 35.2035 69.7559 33.3114 69.714 31.4471C69.5784 25.3241 80.8551 26.5404 84.4535 26.543L162.39 26.5503ZM174.565 5.97296C173.429 8.75685 168.068 24.2072 168.154 26.5503C172.304 26.5566 176.461 26.6116 180.61 26.5503C181.045 26.6022 181.346 26.7189 181.741 26.5127C183.872 19.7683 185.461 12.811 187.282 5.97296H174.565ZM76.0514 31.7606C73.8051 32.1103 75.5964 35.6128 76.0184 37.7968L78.9109 52.8227C80.9064 63.3595 82.5579 73.9805 84.7456 84.4801C86.4574 85.9472 88.2178 87.3896 89.719 89.0786C98.5112 98.9737 99.494 113.805 92.8571 125.06C97.4241 126.01 100.436 128.687 101.226 133.27L143.023 133.273C150.66 133.27 157.301 133.059 160.767 124.511C162.737 119.651 163.839 109.34 165.21 103.713C168.411 86.066 172.387 67.8522 176.3 50.3691L179.27 37.3106C179.701 35.4599 180.22 33.6187 180.61 31.7606H166.132C165.321 34.9439 162.877 43.2442 161.41 46.126C160.512 47.8914 157.783 48.007 156.92 46.1113C156.091 44.2884 160.158 34.4822 160.754 31.7606L85.3934 31.7591C82.2888 31.7591 79.1518 31.6602 76.0514 31.7606ZM182.101 47.6522C181.665 49.6039 181.239 51.5514 180.61 53.4528C196.152 55.0329 196.607 65.0348 196.602 77.8939C196.598 86.3554 197.317 93.8445 189.867 99.8121C183.871 104.615 177.575 103.732 170.383 103.713C170.04 105.795 169.602 107.885 169.341 109.976H174.565C176.984 109.978 179.453 110.068 181.855 109.762C192.467 108.407 201.585 99.1213 202.713 88.5086C202.97 86.0911 202.899 83.6359 202.899 81.2069L202.898 73.3739C202.902 71.4834 202.995 69.5354 202.826 67.6538C201.855 56.8972 192.853 48.332 182.101 47.6522ZM179.83 58.8515L171.555 98.5136C175.139 98.5231 179.078 98.9025 182.564 97.9688C192.631 94.5867 191.427 85.6619 191.408 77.393C191.402 74.4903 191.594 71.4578 191.367 68.5677C190.876 62.3143 185.756 58.6495 179.83 58.8515ZM31.2717 71.9827C28.6326 80.595 29.5825 89.3288 33.8034 97.235C34.2061 97.9881 34.6962 99.0391 35.3533 99.596L35.4989 99.6065C38.1746 92.6632 36.8949 77.2443 31.2717 71.9827ZM63.6583 83.8798C51.3243 85.5002 41.9949 96.4693 41.8436 108.78C41.8112 111.422 41.7274 113.162 44.1161 114.612C48.6251 110.359 55.3395 110.079 59.4374 115.074C65.1506 106.314 80.2927 113.135 76.8483 125.06C79.2764 125.104 81.141 126.113 83.0549 127.563L83.2606 127.817C83.656 127.662 84.0178 127.165 84.3493 126.887C100.468 113.372 90.0196 86.446 70.1564 83.8798C70.136 84.6544 70.1172 85.4227 70.1564 86.1968C73.2018 85.463 75.4513 87.1478 73.4438 89.9521C68.4201 96.9691 54.3263 88.3909 62.0633 85.5834C63.1483 85.8352 64.1521 86.1942 65.1621 86.6642C65.1281 85.7331 65.081 84.8099 65.1621 83.8798C64.6657 83.8793 64.1526 83.85 63.6583 83.8798ZM7.20893 85.0124C8.97381 93.4232 21.4597 101.232 29.8527 102.221C25.3731 92.2613 16.2365 88.8122 7.20893 85.0124ZM24.7541 109.976C18.8714 109.323 11.8405 112.209 7.20893 115.661C10.1966 116.234 13.0469 116.753 16.0981 116.899C28.0147 117.081 26.447 112.614 33.2625 111.012C30.9077 110.064 27.268 109.357 24.7541 109.976ZM35.0936 116.178C28.2258 116.299 28.8478 127.597 36.0503 126.259C43.4517 125.547 41.6944 114.68 35.0936 116.178ZM51.0505 116.178C44.1963 117.33 45.0351 127.238 52.4391 126.259C58.7949 125.94 57.9728 115.972 51.0505 116.178ZM65.8957 116.178C59.2201 118.236 61.3826 127.531 68.2986 126.259C74.9345 125.429 72.7343 115.272 65.8957 116.178ZM74.4481 129.541C67.5478 130.962 68.0337 140.284 76.0514 140.477C83.4973 138.104 81.1457 128.56 74.4481 129.541ZM90.395 129.541C83.2308 130.615 84.1408 140.38 91.6973 140.477C98.5771 138.247 97.4315 129.52 90.395 129.541ZM41.8897 130.179C34.7941 132.599 37.4619 141.715 44.1161 140.477C50.5981 138.342 49.112 129.542 41.8897 130.179ZM58.2152 130.179C50.9819 132.501 53.7744 141.676 60.3778 140.477C66.8718 138.442 65.203 129.329 58.2152 130.179ZM26.1868 130.179C19.211 131.661 20.7816 141.328 28.064 140.477C34.0835 138.86 34.083 130.51 26.1868 130.179Z" fill="#FFF4EB"/>
</svg>
