<svg width="188" height="141" viewBox="0 0 188 141" fill="none" xmlns="http://www.w3.org/2000/svg">
<path d="M132.95 74.335C120.983 74.5634 110.32 66.2462 107.626 54.5734C106.358 49.0797 107.972 51.4245 104.689 46.604C98.9815 38.2257 99.4083 27.1776 104.769 18.7286C109.958 10.5485 125.438 2.16496 135.248 0C137.865 0.045863 138.298 3.93491 138.77 5.88253C143.119 23.8479 138.462 46.4116 117.84 50.6755C115.586 51.1417 113.266 51.1943 111.029 51.7268C111.503 52.832 111.77 54.011 112.128 55.1576C115.016 64.4304 122.141 68.7206 131.544 70.218C132.489 66.8304 133.196 63.8605 134.977 60.7493C145.11 43.0458 166.446 45.8826 182.35 53.3146C189.482 56.6466 189.396 56.4204 184.123 64.1396C175.745 75.6984 161.804 88.3117 146.28 84.0629C141.196 82.671 135.584 78.9992 132.95 74.335ZM133.912 4.76044C123.352 8.74251 111.423 13.4076 106.486 24.4334C102.948 32.3339 105 37.9853 108.439 45.0357C112.212 34.5362 117.302 27.8037 125.992 20.8739L127.659 19.6454C123.093 29.8822 115.969 35.9722 112.191 47.0403C133.588 47.1904 138.701 24.2932 134.707 6.76639C134.579 6.20535 134.474 5.2026 134.124 4.76445L133.912 4.76044ZM157.708 51.7268C147.511 52.1952 138.248 59.007 136.358 69.2491C149.136 65.3926 151.488 63.7157 165.101 63.7478C157.291 67.7379 147.026 70.3236 138.405 72.9533C136.446 73.6195 139.402 75.442 140.45 76.2982C156.01 89.0063 174.94 71.6393 182.976 58.2059C177.225 55.0071 164.481 50.4867 157.708 51.7268Z" fill="#FFF4EB"/>
<path d="M80.0143 50.4448C79.5354 51.0485 79.0556 51.8407 78.3099 52.1257C74.7639 53.4784 66.3587 51.3313 62.6457 49.5555C46.8149 41.9855 43.8337 22.268 46.9463 6.6986C47.2879 4.98921 47.6332 1.25605 49.6325 0.650391C50.9872 0.691178 52.3205 1.15275 53.6088 1.53835C67.0733 5.5685 83.2988 14.6138 85.5658 29.8919C86.688 37.4531 84.4949 44.3686 80.0143 50.4448ZM51.4754 5.24079C47.7784 24.265 51.3413 46.7486 74.6085 48.2741C70.8393 37.9478 62.7018 30.0705 58.934 19.6453L60.7685 21.2318C66.5022 26.5154 71.2616 32.5279 75.1292 39.2987C76.3008 41.3501 77.1334 43.6063 78.3656 45.6096C81.4884 39.4185 83.068 34.3771 80.6968 27.259C76.8367 15.6708 62.7606 8.26774 51.4754 5.24079Z" fill="#FFF4EB"/>
<path d="M53.556 69.5864C54.5659 71.9637 56.5532 78.9397 55.0359 80.9991C52.4356 84.5275 43.5195 89.0576 39.4011 89.6592C23.7893 91.939 9.18126 77.2214 2.04168 64.9088C-0.53249 60.4694 -1.36985 59.4221 3.73814 57.1424C9.78769 54.4418 15.809 52.9141 22.3994 52.2911C32.2111 52.0685 47.1447 55.2361 51.473 65.2873C65.4662 65.2988 78.5765 73.4308 80.3415 88.2717C80.8097 92.2097 80.5402 91.3526 82.584 94.632C86.9243 101.596 88.3044 109.512 85.3224 117.387C80.7906 129.357 68.4019 134.85 57.2606 139.172C55.4114 139.889 50.6885 142.573 49.5712 139.701C46.7728 132.505 46.5229 115.737 49.3138 109.059C49.745 105.681 53.5088 100.195 55.8524 97.8415C61.3389 92.3326 68.7021 89.9758 76.3559 89.9486C74.3949 78.108 65.9816 69.5387 53.556 69.5864ZM22.3994 56.4157C16.453 57.0003 10.1374 58.5298 4.81022 61.2927C5.51126 63.0787 6.68299 64.7365 7.7692 66.3118C14.596 76.2124 28.8237 89.8168 42.1621 84.564C44.7931 83.5278 46.8886 81.9226 49.3138 80.565C45.8524 78.4922 42.1162 76.952 38.3889 75.4328C32.2574 72.9246 27.5109 71.0905 21.5966 67.8836C32.5599 67.6619 41.6498 71.8372 51.1554 76.8229C49.2518 61.3907 36.4097 56.2407 22.3994 56.4157ZM74.0768 94.3052C52.0307 95.7924 48.6687 119.005 52.98 136.317C63.2086 132.48 75.9304 127.818 80.8382 117.158L80.897 117.029C84.1414 109.697 82.8072 102.229 78.3632 95.8507C75.4542 107.636 69.6715 115.575 59.847 122.187C63.7538 113.657 69.586 108.571 72.9288 98.9413C73.1409 98.3304 74.578 94.5621 74.0768 94.3052Z" fill="#FFF4EB"/>
<path d="M104.855 83.2439C106.868 82.7185 108.968 82.4861 111.028 82.2269C132.482 81.6561 142.692 96.4209 145.374 116.483C146.965 128.396 146.412 126.156 135.652 126.407C133.853 126.039 131.976 125.966 130.16 125.673C108.883 122.237 91.8711 103.39 104.855 83.2439ZM111.028 86.4699L110.03 86.5768C109.821 88.1161 116.919 95.9021 118.081 97.0946C122.252 101.377 126.836 105.347 130.023 110.468C120.187 107.673 111.932 97.5723 106.364 89.2823C104.154 95.7409 103.962 103.143 108.439 108.68C114.054 119.201 130.727 122.317 141.637 122.189C141.268 103.746 131.664 85.3292 111.028 86.4699Z" fill="#FFF4EB"/>
</svg>
