<svg width="211" height="159" viewBox="0 0 211 159" fill="none" xmlns="http://www.w3.org/2000/svg">
<path d="M37.7985 40.5172C39.9513 26.7365 45.9675 14.9164 55.1388 4.29419C56.5369 2.67458 57.848 0.856937 59.8788 0.00153707C64.8316 -0.170399 78.7038 14.1324 81.6909 17.6411C83.7343 20.0422 85.3592 23.0262 87.4976 25.2523L87.6596 25.4181C90.7938 23.7222 91.5913 25.6087 93.6171 27.7667C98.4362 32.8999 102.699 38.9166 104.377 45.8387C110.499 42.73 116.032 60.4429 116.982 64.3102L117.441 64.0114C120.559 61.9961 135.968 52.8768 139.217 53.7275C140.405 54.0382 141.046 55.4841 141.612 56.4619C156.894 47.3578 169.174 42.6881 187.486 40.9195C190.625 40.6161 207.003 39.7935 209.305 41.4443C210.858 42.5588 210.096 47.3067 210.026 48.9041C209.755 55.1007 207.244 74.3216 203.176 79.4134C204.515 79.7066 205.954 80.3401 205.959 81.9181C207.287 87.8288 194.996 108.603 189.654 111.66C196.873 112.315 193.46 117.096 190.697 121.043C183.921 130.72 177.938 134.757 168.473 140.74C171.948 146.531 167.83 147.482 162.895 150.091C153.779 154.909 144.656 158.484 134.228 158.936C122.064 159.677 103.308 153.911 95.3043 144.211C89.6075 148.204 83.4159 151.314 77.1888 154.409C74.6054 155.693 70.7094 158.748 68.3634 155.534C65.7474 151.95 70.8188 150.102 73.0522 149.085C79.6 146.104 85.7009 142.666 91.6374 138.599C90.2286 134.385 89.2123 130.157 88.1615 125.851C70.7509 137.662 55.5024 136.95 37.3395 125.291C34.2923 123.336 13.2763 109.182 22.2675 105.766C11.0737 91.6828 4.16875 83.1541 0.703957 64.3594C-0.496291 57.8475 -0.996777 56.7597 6.32669 56.2612C16.3896 55.5766 24.1088 56.8062 33.6694 59.8596C32.9021 56.5268 32.0087 43.0578 34.6233 40.8541C35.4735 40.1374 36.7882 40.4122 37.7985 40.5172ZM60.9967 6.85891C52.5251 15.6101 45.2347 28.1589 44.3375 40.5056C44.0614 44.3016 45.5089 52.6466 38.8386 48.4741C38.3931 54.8838 39.6967 61.1744 42.2629 67.0496C44.5801 72.355 48.3284 76.8825 38.8386 75.222C43.9925 96.7437 65.3269 115.816 87.6596 118.157C87.8532 112.158 83.9648 106.034 81.6942 100.256C77.1693 97.4237 72.5689 94.448 67.4937 92.6748C65.6193 92.0202 59.8374 91.5295 59.2549 89.3286C57.2525 81.7611 78.2564 92.6269 78.8668 92.835L79.0111 92.8857C76.4751 88.4857 75.5449 83.2236 73.3721 79.4134C67.0887 75.8214 53.7547 66.8084 52.2294 60.5759C51.9901 59.5986 52.0288 58.0915 53.304 57.9156C55.805 57.5713 57.0197 60.7462 58.3615 62.2299C61.7797 66.0088 66.8052 70.6789 71.3459 73.0907C69.4841 68.2102 68.0673 63.2238 66.7586 58.1743C65.4866 53.716 60.1288 25.0272 62.121 21.5439C63.1597 19.7269 65.3586 20.7866 65.6137 22.5258C65.854 24.1641 65.861 25.8499 65.9881 27.5016C67.5016 47.1133 74.2781 65.9324 81.6942 84.0361C84.9742 79.5819 87.9217 73.7545 89.4241 68.4458C89.8799 66.8337 90.0722 62.3887 91.5858 61.4957C92.8051 60.7757 94.3387 61.6881 94.4192 63.0383C94.8075 69.5645 87.4775 84.4555 83.6692 89.168C84.7805 93.4376 87.6708 98.9446 89.3086 103.262C92.6524 90.7897 100.84 75.9972 111.873 68.4122C110.331 61.7617 108.939 58.5675 105.606 52.6333C104.546 53.7229 103.426 54.5542 102.099 55.3004C98.3952 54.186 99.6644 51.847 99.0252 48.7162C97.8519 42.9735 94.0226 36.6871 89.8343 32.6104C85.0733 36.8473 83.1603 29.5303 80.4534 25.7992C76.2628 20.0229 67.4104 10.5708 60.9967 6.85891ZM198.609 46.491C180.597 46.9274 160.776 50.9328 145.741 61.3221C142.838 63.3283 134.537 71.3621 135.481 61.1564C130.885 63.3854 126.41 65.6143 122.119 68.3897C101.867 81.4891 89.9376 104.106 95.038 127.977C95.484 130.063 95.978 132.325 96.8365 134.287C100.714 131.141 107.781 126.859 110.846 123.631C110.25 113.495 109.723 108.084 113.513 98.2923C114.142 96.6682 115.233 92.6168 117.461 92.4608C121.632 92.1689 117.906 98.3001 117.484 99.4966C114.928 106.74 116.047 112.637 115.587 119.769C119.806 117.578 126.19 112.693 130.26 109.718C130.117 104.661 134.819 80.2517 140.638 80.19C144.627 80.1476 140.231 85.9318 139.714 86.9975C136.812 92.9855 135.359 99.1195 135.481 105.766C143.086 99.5739 151.457 93.9186 159.201 87.653C169.447 79.3623 178.858 69.697 187.352 59.6709C189.836 56.739 193.052 59.0255 190.821 61.9758C189.314 63.9686 184.675 69.744 182.828 70.9588C181.621 75.5097 150.979 101.659 145.869 105.499C143.264 107.458 140.438 109.293 138.197 111.66C144.687 111.578 150.863 112.862 157.364 111.775C158.659 111.558 160.816 110.409 161.925 111.568C168.37 118.307 138.038 115.863 133.078 115.279C128.027 117.922 119.083 124.859 114.565 128.44C121.585 128.386 127.574 129.292 133.814 132.689C135.356 133.528 139.487 135.548 139.511 137.628C139.568 142.481 133.568 137.481 132.522 136.977C126.409 134.029 119.873 132.966 113.11 133.12C106.083 133.279 104.972 135.803 99.5168 139.919C119.499 157.521 138.769 154.796 160.678 144.211C150.87 141.359 162.324 137.023 165.054 135.558C168.822 133.535 186.285 120.73 185.845 116.364C170.77 116.864 183.67 108.948 187.382 105.458C190.177 102.83 198.152 91.297 198.609 87.4067C191.582 88.0958 194.68 82.8296 196.526 79.3448C199.123 74.4464 206.128 50.8522 203.806 46.491C202.075 46.4868 200.339 46.4564 198.609 46.491ZM6.82066 62.1793C6.14279 63.6887 9.36968 73.4465 10.0769 75.2589C14.755 87.2419 19.8991 94.7063 29.124 103.639C31.734 106.165 33.7359 109.062 28.8311 110.556C29.3242 111.658 31.2493 112.938 32.1902 113.712C45.4414 124.607 61.7541 134.381 79.0111 124.742C79.8887 124.277 80.7966 124.025 81.6942 123.631C62.4404 118.837 50.5166 110.152 40.3154 93.27C38.3921 90.0877 28.5043 71.2912 32.9542 68.9053C34.6159 68.0145 36.3236 69.4218 35.513 66.8176C24.1116 62.5673 18.8264 62.1107 6.82066 62.1793Z" fill="#C6D8B7"/>
</svg>
