<svg width="151" height="185" viewBox="0 0 151 185" fill="none" xmlns="http://www.w3.org/2000/svg">
<path d="M72.7738 23.94C77.7712 9.84548 87.3806 0.371787 103.198 0.168534C109.217 -0.788164 120.797 2.54895 126.968 4.62008C136.834 7.93114 131.66 9.98558 127.688 16.0036C126.284 18.1303 125.106 20.4492 123.806 22.6446C113.702 39.6967 100.506 46.3008 81.0285 39.8262C81.8612 42.8528 82.5595 45.8705 83.181 48.9464C87.1061 48.031 90.9227 46.8756 94.8961 46.0882C117.748 41.5614 139.572 52.1693 147.065 74.8309C154.977 98.7606 146.967 127.772 136.029 149.493C127.906 165.626 107.305 192.976 86.0816 182.074C79.9427 178.921 78.2016 175.877 69.8229 178.694C67.1957 179.723 65.1602 181.71 62.4942 182.755C36.6435 192.889 15.4571 155.929 8.13134 136.75C-2.96823 107.692 -7.79031 61.2617 27.8625 47.6022C39.2199 43.2508 56.3363 43.8763 67.6569 48.9464C66.3729 41.4464 61.1395 32.7131 55.5773 27.6026C54.0094 26.1618 51.9311 25.357 50.5131 23.7597C44.9006 17.4395 52.6687 7.17097 60.7814 11.8077C64.5237 13.9466 69.9529 20.4377 72.7738 23.94ZM103.198 5.58215C89.5525 6.33435 80.136 15.3258 77.4958 28.4334C81.2252 26.2554 98.624 16.2497 102.444 17.1696C103.737 17.4808 104.914 19.216 104.508 20.5374C103.752 22.9952 98.7953 23.8743 96.7374 24.6662C93.6988 25.8356 90.8455 27.2804 88.0206 28.8956C85.3844 30.458 82.7283 31.8868 80.004 33.2854C95.4604 40.7102 109.326 36.1516 118.092 21.6331C120.468 17.6975 122.476 13.6975 125.277 10.0185C119.542 7.62041 109.533 5.25628 103.198 5.58215ZM56.1152 16.1127C51.1711 18.3559 55.8881 20.7914 57.6521 22.1306C66.5896 28.915 73.2614 43.3514 74.4308 54.1416C74.7257 56.8619 74.4717 59.5553 74.52 62.2787H75.796C78.3365 62.0924 78.1537 55.305 78.0795 53.2849C77.6393 41.3393 70.5939 28.1181 62.0698 20.0801C60.4442 18.5472 58.569 16.0604 56.1152 16.1127ZM42.4637 50.1044C16.0538 52.4796 5.4145 71.3416 5.23171 96.2514C5.08578 116.117 13.0097 138.054 23.259 154.728C30.0828 165.83 41.2549 180.179 55.9802 178.661C60.3859 178.207 62.0369 176.412 65.6971 174.418C71.7115 171.143 79.6031 171.543 85.3729 175.124C103.64 186.464 119.371 167.369 127.92 152.694C137.648 135.636 144.634 115.998 144.629 96.1857C144.619 61.176 121.782 44.0736 88.5614 53.2217C86.9268 53.6714 85.2255 54.1077 83.6612 54.7666C83.3046 56.971 83.067 59.1644 83.181 61.3996C84.3001 60.7487 91.0826 56.8958 91.7888 56.6313C93.6101 55.9485 95.5794 58.2963 95.1227 60.027C94.6814 61.6984 91.8022 63.1527 90.4082 63.8963C82.8648 67.9225 73.4268 68.6895 65.2832 66.1983C63.1297 65.5394 49.3158 60.2611 56.2999 56.8908C58.3001 55.9256 60.3565 57.9815 61.9772 58.9034C64.0436 60.0788 66.6439 60.8951 68.9578 61.3996C68.9777 59.2197 69.1919 56.9321 68.9578 54.7666C62.1052 51.9063 49.522 49.8504 42.4637 50.1044Z" fill="#F3D38A"/>
<path d="M33.8017 144.015C31.1372 144.387 30.5196 142.415 29.3188 140.422C19.6168 124.321 13.1607 102.928 17.7402 84.33C19.7807 76.044 24.9275 68.1066 33.4088 65.3031C34.5976 65.1861 35.8771 65.5212 36.3746 66.743C37.6287 69.8234 34.7854 70.7423 32.6712 71.8958C13.2782 82.4763 23.9663 121.355 32.9227 135.741C34.4661 138.221 38.3275 142.186 33.8017 144.015Z" fill="#F3D38A"/>
</svg>
