<svg width="185" height="184" viewBox="0 0 185 184" fill="none" xmlns="http://www.w3.org/2000/svg">
<path d="M60.9478 76.9622C58.1298 75.1895 55.2466 73.8522 52.6125 71.7547C43.0466 64.1393 37.0258 52.4611 35.6823 40.3339C34.9246 33.4922 41.3251 33.0585 47.6808 31.7594C63.8544 28.4528 80.7453 35.5754 90.3788 48.8867C91.6734 50.6758 94.1185 55.9511 95.3609 56.9016C97.2748 58.366 95.8212 53.5517 95.7446 52.999C91.9038 25.3456 114.543 5.2622 139.842 0.0507445C143.115 -0.304473 143.292 1.23116 144.642 3.84395C154.675 23.2641 153.885 44.6986 139.205 61.2355C150.395 65.2213 163.967 65.7803 175.077 61.0139C176.864 60.2469 179.733 58.1626 181.769 58.7301C186.385 60.0167 183.792 63.5096 180.469 65.0299C165.893 71.6983 149.298 71.1547 134.477 65.5649C130.152 69.1194 125.37 71.3348 119.964 72.659C121.296 74.7759 122.341 76.9314 123.354 79.2152C147.691 67.4259 175.993 83.6774 175.778 111.077C175.645 128.138 162.326 143.823 145.363 145.992C142.48 146.361 139.62 146.336 136.722 146.306C136.27 148.289 136.087 150.329 135.667 152.322C129.519 181.468 94.9602 193.376 71.3157 175.747L70.9224 175.431C63.4111 169.275 57.2819 159.792 56.279 149.903C20.9748 169.403 -14.6736 128.256 6.20259 96.155C17.6227 78.5947 40.6486 74.1747 57.9908 85.5224C58.7678 82.5452 59.773 79.7976 60.9478 76.9622ZM139.205 6.00409C135.106 7.01208 130.962 8.17563 127.092 9.89189C107.875 18.4139 96.815 38.1828 102.971 58.8366C105.427 60.0076 107.822 61.2731 110.219 62.5581C110.851 52.2525 114.969 42.082 121.602 34.1959C123.107 32.4067 124.7 29.9155 127.181 29.5086C133.628 30.45 127.209 36.0341 125.939 37.6444C120.704 44.2826 116.644 52.6639 116.01 61.1916C115.63 66.2931 114.641 68.4624 120.026 66.9279C140.691 61.0389 149.64 36.9794 144.009 17.4253C143.38 15.2395 140.014 5.75395 139.205 6.00409ZM53.2918 36.6324C49.0742 37.0865 45.1608 38.0917 41.244 39.7156C43.13 52.2132 51.0602 67.6612 63.931 71.655C65.947 68.7952 68.2559 66.023 71.3157 64.2572C69.0919 62.1626 66.9993 59.8583 64.5292 58.0532C62.8123 56.7984 60.7781 55.8947 59.143 54.5614C57.5549 52.3066 59.5062 49.5066 62.2481 50.2325C66.0611 51.2417 72.9934 57.6235 75.4754 60.7461C79.8895 58.7346 83.6178 57.5039 88.4808 56.954C82.5491 44.286 67.3421 35.2113 53.2918 36.6324ZM90.1744 62.5581C74.9584 63.1672 65.2432 75.32 63.2851 89.6501C69.3649 95.3254 71.986 101.365 74.2262 109.202C78.4382 106.679 82.6762 105.102 87.3678 103.773C92.7955 103.052 98.2573 102.213 103.641 103.773C105.768 95.3989 111.056 87.2524 118.281 82.4033C114.504 71.5838 102.115 60.3164 90.1744 62.5581ZM139.842 80.8608C126.176 81.2739 112 91.2365 109.023 105.105C124.476 110.763 135.28 124.339 136.722 140.784H139.842C156.472 140.742 170.273 127.204 170.141 110.365C170.015 94.102 156.175 80.2523 139.842 80.8608ZM35.6454 84.919C26.5512 85.9321 18.4009 89.7185 12.5957 96.9744C-4.62653 118.502 11.9209 149.868 39.6429 149.302C45.7397 148.943 50.6878 146.903 55.7755 143.593C55.1819 132.13 60.7134 120.705 69.2015 113.189C65.6672 95.5903 53.7476 84.5406 35.6454 84.919ZM93.6502 108.645C93.0815 108.686 92.5142 108.741 91.9481 108.81C91.3824 108.879 90.8186 108.961 90.2567 109.058C89.6945 109.155 89.1352 109.266 88.579 109.39C88.0224 109.514 87.4692 109.652 86.9194 109.804C86.3696 109.955 85.824 110.12 85.2825 110.299C84.7407 110.477 84.2036 110.669 83.6712 110.874C83.1392 111.079 82.6123 111.297 82.0905 111.528C81.5687 111.759 81.053 112.003 80.5433 112.259C80.0336 112.516 79.5306 112.785 79.0341 113.066C78.5377 113.347 78.0482 113.64 77.5658 113.946C77.0837 114.251 76.6094 114.568 76.1429 114.897C75.6764 115.226 75.2179 115.566 74.7677 115.918C74.3178 116.269 73.8766 116.631 73.4441 117.004C73.012 117.377 72.5891 117.761 72.1756 118.155C71.762 118.549 71.3584 118.953 70.9649 119.367C70.571 119.781 70.1875 120.204 69.8145 120.637C69.4418 121.07 69.0796 121.512 68.7281 121.963C68.3766 122.413 68.0364 122.872 67.7076 123.34C67.3788 123.808 67.0615 124.283 66.7558 124.766C66.4501 125.249 66.1565 125.739 65.8749 126.237C65.593 126.735 65.3236 127.239 65.0667 127.75C64.8098 128.261 64.5655 128.778 64.334 129.301C64.1024 129.824 63.8837 130.352 63.6779 130.886C63.472 131.42 63.2794 131.958 63.1001 132.501C62.9203 133.045 62.7542 133.592 62.6017 134.144C62.4493 134.695 62.3102 135.25 62.1846 135.808C62.059 136.366 61.9471 136.927 61.8491 137.491C61.7511 138.055 61.667 138.621 61.5966 139.189C61.5262 139.757 61.4698 140.327 61.4274 140.897C61.3851 141.468 61.3565 142.039 61.3417 142.611C61.3274 143.184 61.327 143.756 61.3406 144.328C61.3538 144.9 61.3813 145.472 61.4229 146.043C61.4645 146.614 61.5199 147.183 61.5892 147.751C61.6584 148.319 61.7417 148.886 61.8389 149.45C61.9358 150.013 62.0465 150.575 62.171 151.133C62.2954 151.692 62.4336 152.247 62.5853 152.798C62.737 153.35 62.9022 153.898 63.0808 154.442C63.2594 154.985 63.451 155.524 63.6557 156.058C63.8608 156.592 64.0788 157.121 64.3096 157.645C64.54 158.168 64.7833 158.685 65.0395 159.197C65.2956 159.708 65.5641 160.213 65.8449 160.711C66.1256 161.209 66.4185 161.7 66.7235 162.184C67.0281 162.667 67.3444 163.143 67.6724 163.611C68.0009 164.079 68.3403 164.539 68.6907 164.991C69.0414 165.442 69.403 165.884 69.7753 166.318C70.1472 166.751 70.5298 167.175 70.9229 167.59C71.3161 168.004 71.719 168.409 72.1319 168.804C72.5447 169.198 72.9669 169.583 73.3987 169.957C73.83 170.331 74.2705 170.694 74.72 171.046C75.1695 171.398 75.6272 171.739 76.0929 172.069C76.5591 172.398 77.033 172.716 77.5147 173.023C77.9964 173.329 78.4853 173.623 78.9813 173.905C79.4774 174.187 79.9801 174.457 80.4894 174.714C80.9987 174.972 81.5138 175.216 82.0349 175.448C82.5563 175.68 83.083 175.899 83.615 176.105C84.1466 176.311 84.6832 176.503 85.2246 176.683C85.7661 176.862 86.3115 177.028 86.8609 177.181C87.4104 177.333 87.9634 177.472 88.52 177.598C89.0762 177.723 89.6351 177.834 90.1966 177.932C90.7585 178.03 91.3223 178.113 91.8879 178.183C92.454 178.253 93.0214 178.309 93.5901 178.351C94.1584 178.393 94.7277 178.421 95.2979 178.435C95.8678 178.449 96.4376 178.449 97.0074 178.434C97.5773 178.42 98.1466 178.392 98.7153 178.349C99.2828 178.307 99.8491 178.251 100.414 178.181C100.979 178.11 101.542 178.026 102.103 177.928C102.663 177.83 103.221 177.719 103.777 177.594C104.332 177.468 104.884 177.329 105.432 177.177C105.981 177.024 106.526 176.858 107.066 176.678C107.606 176.499 108.142 176.307 108.673 176.101C109.204 175.895 109.73 175.676 110.25 175.444C110.77 175.213 111.285 174.969 111.793 174.712C112.301 174.455 112.803 174.185 113.298 173.904C113.794 173.622 114.282 173.328 114.763 173.022C115.243 172.717 115.716 172.399 116.182 172.07C116.647 171.741 117.104 171.401 117.553 171.049C118.002 170.698 118.442 170.335 118.873 169.962C119.304 169.589 119.725 169.205 120.138 168.811C120.55 168.417 120.952 168.013 121.345 167.6C121.737 167.186 122.12 166.762 122.491 166.33C122.863 165.897 123.224 165.456 123.574 165.005C123.925 164.555 124.264 164.096 124.592 163.629C124.92 163.162 125.236 162.687 125.54 162.204C125.845 161.721 126.138 161.232 126.419 160.735C126.699 160.237 126.968 159.734 127.224 159.224C127.48 158.713 127.724 158.197 127.954 157.674C128.185 157.152 128.403 156.624 128.608 156.091C128.813 155.558 129.005 155.021 129.184 154.478C129.363 153.936 129.528 153.389 129.68 152.838C129.832 152.288 129.971 151.734 130.096 151.176C130.221 150.619 130.332 150.059 130.43 149.496C130.528 148.933 130.612 148.368 130.682 147.801C130.752 147.234 130.808 146.665 130.85 146.095C130.893 145.525 130.921 144.955 130.935 144.384C130.95 143.812 130.95 143.241 130.936 142.67C130.923 142.098 130.895 141.528 130.854 140.958C130.813 140.388 130.758 139.82 130.688 139.252C130.619 138.685 130.536 138.12 130.439 137.557C130.342 136.994 130.232 136.433 130.108 135.876C129.984 135.318 129.846 134.764 129.695 134.213C129.543 133.662 129.379 133.115 129.201 132.573C129.023 132.03 128.831 131.492 128.627 130.958C128.423 130.425 128.205 129.897 127.975 129.374C127.745 128.852 127.503 128.335 127.247 127.824C126.992 127.313 126.724 126.809 126.444 126.312C126.164 125.814 125.873 125.324 125.568 124.841C125.264 124.358 124.949 123.882 124.622 123.415C124.295 122.947 123.956 122.488 123.607 122.037C123.257 121.586 122.897 121.144 122.526 120.711C122.154 120.277 121.773 119.854 121.381 119.439C120.989 119.025 120.587 118.62 120.175 118.226C119.764 117.831 119.342 117.447 118.912 117.073C118.482 116.699 118.042 116.336 117.594 115.984C117.146 115.632 116.689 115.291 116.224 114.961C115.76 114.631 115.287 114.313 114.807 114.007C114.326 113.7 113.838 113.406 113.344 113.123C112.849 112.841 112.348 112.571 111.84 112.313C111.332 112.055 110.818 111.81 110.298 111.577C109.778 111.345 109.252 111.126 108.722 110.919C108.191 110.713 107.656 110.519 107.115 110.339C106.575 110.159 106.031 109.992 105.482 109.838C104.934 109.685 104.382 109.545 103.827 109.419C103.272 109.293 102.715 109.18 102.154 109.082C101.593 108.983 101.031 108.898 100.466 108.827C99.9011 108.756 99.3351 108.699 98.7675 108.655C98.1999 108.613 97.6316 108.583 97.0625 108.568C96.4934 108.553 95.9243 108.552 95.3552 108.565C94.7861 108.577 94.2178 108.604 93.6502 108.645Z" fill="#E28E8B"/>
<path d="M153.884 103.773C149.982 99.5193 143.633 99.3581 142.827 97.3911C142.154 95.7495 143.204 94.105 144.727 93.4891C150.346 93.4013 155.988 96.6082 158.899 101.395C166.857 101.478 168.993 111.335 162.018 114.91C154.776 117.702 149.413 109.583 153.884 103.773ZM158.813 107.241C158.771 107.251 158.729 107.263 158.688 107.278C158.646 107.292 158.606 107.309 158.567 107.327C158.527 107.345 158.488 107.366 158.451 107.388C158.413 107.41 158.377 107.434 158.342 107.46C158.307 107.486 158.273 107.513 158.24 107.542C158.208 107.571 158.177 107.602 158.147 107.635C158.118 107.666 158.09 107.7 158.063 107.735C158.037 107.77 158.013 107.806 157.99 107.844C157.967 107.881 157.947 107.919 157.928 107.959C157.909 107.998 157.892 108.039 157.877 108.08C157.861 108.121 157.848 108.162 157.837 108.204C157.827 108.247 157.818 108.29 157.811 108.333C157.804 108.376 157.8 108.42 157.797 108.464C157.795 108.507 157.794 108.551 157.796 108.595C157.798 108.638 157.802 108.682 157.808 108.725C157.814 108.768 157.822 108.811 157.832 108.854C157.842 108.896 157.855 108.938 157.869 108.98C157.884 109.021 157.9 109.062 157.918 109.101C157.937 109.141 157.957 109.18 157.979 109.217C158.001 109.255 158.024 109.292 158.05 109.327C158.076 109.363 158.103 109.397 158.133 109.429C158.161 109.462 158.192 109.493 158.224 109.523C158.256 109.553 158.29 109.58 158.324 109.607C158.359 109.633 158.395 109.658 158.432 109.681C158.469 109.703 158.507 109.724 158.547 109.743C158.586 109.762 158.626 109.779 158.667 109.795C158.708 109.81 158.749 109.823 158.791 109.834C158.834 109.845 158.877 109.854 158.92 109.861C158.962 109.868 159.006 109.872 159.049 109.874C159.093 109.877 159.137 109.877 159.18 109.876C159.224 109.874 159.267 109.87 159.31 109.864C159.353 109.858 159.396 109.85 159.438 109.84C159.481 109.829 159.523 109.817 159.564 109.803C159.605 109.788 159.646 109.772 159.685 109.754C159.725 109.735 159.763 109.715 159.801 109.693C159.839 109.671 159.875 109.647 159.91 109.621C159.946 109.595 159.98 109.567 160.012 109.538C160.045 109.509 160.076 109.479 160.105 109.447C160.135 109.414 160.163 109.381 160.189 109.346C160.216 109.311 160.24 109.275 160.263 109.237C160.286 109.2 160.307 109.161 160.326 109.122C160.345 109.083 160.362 109.042 160.377 109.001C160.391 108.96 160.404 108.918 160.415 108.876C160.426 108.834 160.435 108.791 160.442 108.747C160.449 108.704 160.454 108.661 160.456 108.617C160.458 108.573 160.459 108.53 160.457 108.486C160.455 108.442 160.451 108.398 160.445 108.355C160.439 108.311 160.431 108.269 160.421 108.226C160.411 108.183 160.398 108.141 160.384 108.1C160.37 108.059 160.353 108.018 160.335 107.979C160.317 107.939 160.296 107.9 160.275 107.862C160.252 107.824 160.228 107.788 160.202 107.752C160.177 107.717 160.149 107.683 160.121 107.65C160.092 107.618 160.061 107.587 160.029 107.557C159.997 107.527 159.963 107.499 159.928 107.473C159.894 107.446 159.858 107.422 159.82 107.399C159.783 107.376 159.745 107.355 159.705 107.336C159.666 107.317 159.626 107.3 159.585 107.285C159.544 107.27 159.503 107.257 159.461 107.246C159.418 107.235 159.375 107.226 159.332 107.219C159.289 107.212 159.246 107.208 159.202 107.205C159.159 107.203 159.115 107.202 159.072 107.204C159.028 107.206 158.984 107.21 158.941 107.216C158.898 107.222 158.855 107.231 158.813 107.241Z" fill="#E28E8B"/>
<path d="M110.546 132.064C110.434 132.078 110.322 132.089 110.21 132.097C110.097 132.105 109.984 132.11 109.871 132.113C109.758 132.116 109.646 132.116 109.533 132.113C109.42 132.11 109.307 132.104 109.195 132.096C109.082 132.088 108.97 132.076 108.858 132.062C108.746 132.048 108.635 132.032 108.523 132.012C108.412 131.993 108.301 131.971 108.191 131.946C108.081 131.921 107.972 131.893 107.863 131.863C107.754 131.833 107.646 131.8 107.539 131.764C107.432 131.729 107.326 131.69 107.221 131.65C107.115 131.609 107.011 131.566 106.908 131.52C106.805 131.474 106.703 131.426 106.602 131.375C106.501 131.324 106.402 131.27 106.304 131.214C106.205 131.159 106.108 131.1 106.013 131.04C105.918 130.979 105.824 130.916 105.731 130.851C105.639 130.786 105.548 130.719 105.46 130.649C105.371 130.579 105.283 130.507 105.198 130.433C105.112 130.36 105.029 130.284 104.947 130.205C104.865 130.127 104.785 130.048 104.707 129.965C104.63 129.883 104.554 129.8 104.48 129.714C104.406 129.628 104.334 129.541 104.265 129.452C104.195 129.362 104.128 129.271 104.063 129.179C103.998 129.086 103.935 128.992 103.874 128.897C103.814 128.801 103.756 128.704 103.7 128.605C103.644 128.507 103.591 128.407 103.54 128.306C103.489 128.205 103.441 128.103 103.395 127.999C103.349 127.896 103.306 127.791 103.265 127.686C103.224 127.58 103.186 127.474 103.15 127.366C103.114 127.259 103.082 127.15 103.051 127.041C103.021 126.932 102.993 126.822 102.968 126.711C102.943 126.601 102.921 126.49 102.901 126.379C102.882 126.267 102.865 126.155 102.851 126.042C102.837 125.93 102.826 125.817 102.817 125.704C102.808 125.591 102.802 125.478 102.799 125.365C102.796 125.252 102.796 125.138 102.799 125.025C102.801 124.912 102.806 124.799 102.814 124.686C102.822 124.573 102.833 124.46 102.846 124.348C102.86 124.235 102.876 124.123 102.895 124.012C102.914 123.9 102.935 123.789 102.96 123.678C102.984 123.567 103.011 123.457 103.041 123.348C103.071 123.239 103.103 123.13 103.138 123.022C103.173 122.915 103.211 122.808 103.251 122.702C103.291 122.597 103.334 122.492 103.379 122.388C103.425 122.284 103.473 122.181 103.523 122.08C103.573 121.978 103.626 121.878 103.681 121.78C103.737 121.681 103.794 121.584 103.854 121.488C103.914 121.392 103.976 121.297 104.041 121.205C104.105 121.112 104.172 121.02 104.241 120.931C104.31 120.841 104.381 120.753 104.455 120.667C104.528 120.581 104.603 120.497 104.681 120.414C104.758 120.332 104.838 120.251 104.919 120.173C105.001 120.094 105.084 120.018 105.169 119.944C105.254 119.869 105.341 119.797 105.429 119.727C105.518 119.656 105.608 119.588 105.7 119.523C105.792 119.457 105.886 119.394 105.981 119.333C106.076 119.272 106.172 119.213 106.27 119.156C106.368 119.1 106.467 119.046 106.567 118.994C106.668 118.943 106.77 118.894 106.873 118.847C106.976 118.801 107.08 118.757 107.184 118.716C107.29 118.674 107.396 118.636 107.502 118.6C107.609 118.563 107.717 118.53 107.826 118.499C107.934 118.468 108.044 118.44 108.154 118.414C108.264 118.389 108.374 118.366 108.485 118.346C108.596 118.326 108.708 118.309 108.82 118.294C108.932 118.279 109.045 118.268 109.158 118.259C109.271 118.25 109.384 118.243 109.497 118.239C109.611 118.236 109.724 118.235 109.837 118.238C109.951 118.24 110.064 118.245 110.177 118.253C110.29 118.26 110.403 118.271 110.516 118.284C110.628 118.297 110.741 118.313 110.853 118.332C110.964 118.351 111.075 118.372 111.186 118.397C111.297 118.421 111.407 118.448 111.517 118.478C111.626 118.508 111.735 118.54 111.842 118.576C111.95 118.611 112.057 118.648 112.164 118.689C112.27 118.729 112.374 118.772 112.478 118.818C112.582 118.863 112.685 118.912 112.786 118.962C112.888 119.013 112.988 119.066 113.087 119.121C113.186 119.177 113.283 119.235 113.379 119.296C113.476 119.356 113.57 119.419 113.663 119.484C113.756 119.549 113.848 119.617 113.937 119.686C114.027 119.756 114.115 119.828 114.201 119.902C114.288 119.976 114.372 120.052 114.454 120.13C114.536 120.208 114.617 120.288 114.696 120.37C114.774 120.453 114.85 120.536 114.925 120.622C114.999 120.708 115.072 120.796 115.142 120.886C115.212 120.975 115.28 121.066 115.346 121.159C115.411 121.252 115.474 121.346 115.535 121.442C115.596 121.538 115.655 121.636 115.711 121.735C115.767 121.833 115.821 121.933 115.873 122.035C115.924 122.136 115.973 122.239 116.019 122.343C116.065 122.447 116.109 122.552 116.15 122.658C116.191 122.764 116.23 122.871 116.266 122.979C116.301 123.087 116.335 123.196 116.365 123.306C116.396 123.415 116.424 123.526 116.449 123.637C116.474 123.748 116.496 123.859 116.516 123.972C116.536 124.084 116.553 124.196 116.567 124.309C116.581 124.422 116.592 124.535 116.601 124.649C116.61 124.762 116.616 124.876 116.619 124.99C116.622 125.104 116.622 125.217 116.619 125.331C116.617 125.445 116.612 125.558 116.603 125.672C116.595 125.786 116.585 125.899 116.571 126.012C116.557 126.125 116.54 126.238 116.522 126.35C116.502 126.462 116.48 126.574 116.456 126.685C116.431 126.796 116.404 126.906 116.373 127.016C116.343 127.126 116.311 127.235 116.275 127.343C116.24 127.451 116.202 127.558 116.161 127.665C116.121 127.771 116.077 127.876 116.031 127.98C115.985 128.084 115.937 128.187 115.886 128.289C115.835 128.391 115.782 128.491 115.726 128.591C115.671 128.69 115.612 128.787 115.552 128.883C115.491 128.98 115.428 129.074 115.363 129.167C115.298 129.26 115.23 129.352 115.16 129.442C115.091 129.531 115.019 129.619 114.945 129.706C114.871 129.792 114.795 129.876 114.717 129.959C114.639 130.041 114.559 130.122 114.477 130.2C114.394 130.279 114.31 130.355 114.225 130.43C114.139 130.504 114.051 130.576 113.962 130.646C113.872 130.716 113.781 130.784 113.688 130.85C113.595 130.915 113.501 130.978 113.406 131.04C113.31 131.1 113.213 131.159 113.114 131.214C113.015 131.271 112.915 131.324 112.814 131.376C112.713 131.427 112.61 131.475 112.506 131.522C112.403 131.568 112.298 131.611 112.192 131.652C112.086 131.693 111.979 131.731 111.872 131.767C111.764 131.802 111.656 131.835 111.546 131.865C111.437 131.896 111.327 131.923 111.216 131.948C111.106 131.973 110.994 131.995 110.883 132.014C110.771 132.034 110.658 132.05 110.546 132.064ZM109.176 124.013C109.137 124.03 109.099 124.049 109.062 124.069C109.024 124.09 108.988 124.112 108.954 124.136C108.918 124.16 108.884 124.186 108.852 124.213C108.82 124.241 108.789 124.269 108.759 124.3C108.729 124.33 108.701 124.362 108.675 124.396C108.648 124.429 108.624 124.463 108.6 124.499C108.577 124.535 108.556 124.572 108.536 124.609C108.517 124.647 108.5 124.686 108.484 124.726C108.468 124.765 108.454 124.805 108.443 124.846C108.431 124.887 108.421 124.929 108.414 124.971C108.406 125.012 108.401 125.054 108.397 125.097C108.393 125.14 108.392 125.182 108.393 125.225C108.393 125.267 108.396 125.31 108.401 125.352C108.406 125.394 108.413 125.436 108.422 125.478C108.431 125.519 108.442 125.56 108.455 125.601C108.468 125.641 108.483 125.681 108.5 125.72C108.517 125.76 108.536 125.798 108.557 125.835C108.577 125.872 108.6 125.908 108.624 125.943C108.648 125.978 108.674 126.012 108.701 126.044C108.729 126.076 108.758 126.107 108.789 126.137C108.82 126.166 108.852 126.194 108.885 126.221C108.918 126.247 108.953 126.271 108.989 126.294C109.024 126.317 109.061 126.338 109.099 126.357C109.137 126.377 109.175 126.394 109.215 126.41C109.255 126.425 109.295 126.438 109.336 126.45C109.377 126.461 109.418 126.471 109.46 126.478C109.501 126.485 109.543 126.491 109.586 126.494C109.628 126.497 109.671 126.498 109.713 126.497C109.755 126.496 109.798 126.493 109.84 126.487C109.882 126.482 109.924 126.475 109.965 126.466C110.007 126.456 110.047 126.445 110.088 126.432C110.128 126.418 110.168 126.403 110.206 126.385C110.244 126.368 110.282 126.349 110.319 126.328C110.355 126.308 110.39 126.285 110.425 126.261C110.459 126.236 110.492 126.21 110.524 126.183C110.556 126.155 110.586 126.126 110.615 126.096C110.644 126.065 110.671 126.033 110.697 126C110.723 125.967 110.747 125.932 110.77 125.897C110.792 125.861 110.813 125.825 110.832 125.787C110.851 125.749 110.868 125.711 110.883 125.671C110.898 125.632 110.912 125.592 110.923 125.552C110.934 125.511 110.944 125.47 110.951 125.429C110.958 125.387 110.964 125.345 110.967 125.303C110.97 125.261 110.971 125.219 110.971 125.177C110.97 125.135 110.966 125.093 110.962 125.051C110.957 125.009 110.95 124.967 110.941 124.926C110.932 124.885 110.921 124.844 110.908 124.804C110.895 124.764 110.88 124.725 110.863 124.686C110.847 124.647 110.828 124.61 110.808 124.573C110.787 124.536 110.765 124.5 110.741 124.466C110.717 124.431 110.691 124.398 110.664 124.365C110.637 124.333 110.608 124.303 110.578 124.274C110.548 124.244 110.517 124.216 110.484 124.19C110.451 124.164 110.417 124.139 110.382 124.116C110.346 124.094 110.31 124.073 110.273 124.053C110.235 124.034 110.197 124.016 110.158 124.001C110.119 123.985 110.079 123.971 110.039 123.96C109.998 123.948 109.957 123.939 109.916 123.931C109.875 123.923 109.833 123.918 109.791 123.914C109.75 123.911 109.708 123.909 109.666 123.91C109.624 123.91 109.582 123.913 109.54 123.918C109.498 123.922 109.457 123.929 109.416 123.937C109.375 123.946 109.334 123.957 109.294 123.969C109.254 123.982 109.215 123.997 109.176 124.013Z" fill="#E28E8B"/>
<path d="M117.999 144.262C117.886 144.273 117.772 144.281 117.658 144.287C117.544 144.293 117.43 144.296 117.316 144.295C117.202 144.295 117.088 144.292 116.974 144.287C116.86 144.281 116.746 144.272 116.633 144.261C116.519 144.25 116.406 144.236 116.293 144.219C116.18 144.202 116.068 144.183 115.956 144.16C115.844 144.137 115.733 144.112 115.622 144.084C115.512 144.056 115.402 144.026 115.293 143.993C115.184 143.959 115.075 143.923 114.968 143.884C114.86 143.846 114.754 143.804 114.649 143.761C114.543 143.717 114.439 143.67 114.336 143.621C114.233 143.572 114.131 143.52 114.031 143.466C113.93 143.412 113.831 143.356 113.733 143.297C113.635 143.238 113.539 143.176 113.444 143.113C113.349 143.049 113.256 142.983 113.165 142.915C113.073 142.846 112.983 142.776 112.895 142.703C112.807 142.63 112.721 142.555 112.636 142.478C112.552 142.401 112.469 142.322 112.389 142.241C112.308 142.16 112.23 142.077 112.153 141.992C112.077 141.907 112.002 141.821 111.93 141.732C111.857 141.643 111.787 141.553 111.72 141.461C111.652 141.369 111.586 141.275 111.523 141.179C111.46 141.084 111.399 140.987 111.341 140.889C111.282 140.791 111.226 140.691 111.172 140.59C111.118 140.489 111.067 140.387 111.019 140.283C110.97 140.179 110.924 140.075 110.88 139.969C110.837 139.863 110.796 139.756 110.758 139.648C110.719 139.541 110.684 139.432 110.65 139.322C110.617 139.212 110.587 139.102 110.56 138.991C110.532 138.88 110.508 138.768 110.485 138.656C110.463 138.543 110.444 138.43 110.427 138.317C110.411 138.204 110.397 138.09 110.386 137.976C110.375 137.862 110.367 137.748 110.361 137.634C110.356 137.519 110.353 137.405 110.354 137.29C110.354 137.176 110.356 137.061 110.362 136.947C110.368 136.832 110.376 136.718 110.388 136.604C110.399 136.491 110.413 136.377 110.43 136.263C110.447 136.15 110.467 136.037 110.489 135.925C110.512 135.813 110.537 135.701 110.565 135.59C110.593 135.479 110.623 135.369 110.657 135.259C110.69 135.15 110.726 135.041 110.764 134.933C110.803 134.825 110.844 134.719 110.888 134.613C110.932 134.507 110.978 134.402 111.027 134.299C111.076 134.196 111.127 134.094 111.181 133.992C111.235 133.891 111.292 133.792 111.35 133.694C111.409 133.596 111.471 133.499 111.534 133.404C111.598 133.309 111.663 133.215 111.732 133.124C111.8 133.032 111.87 132.941 111.942 132.853C112.015 132.765 112.09 132.678 112.166 132.594C112.243 132.509 112.322 132.426 112.402 132.345C112.483 132.264 112.566 132.185 112.651 132.109C112.735 132.032 112.822 131.957 112.91 131.885C112.999 131.812 113.088 131.742 113.18 131.674C113.272 131.606 113.365 131.54 113.46 131.477C113.555 131.413 113.652 131.352 113.75 131.293C113.848 131.235 113.947 131.179 114.048 131.125C114.149 131.071 114.251 131.02 114.354 130.971C114.457 130.922 114.561 130.876 114.667 130.832C114.772 130.789 114.879 130.748 114.986 130.709C115.094 130.671 115.202 130.635 115.311 130.602C115.421 130.569 115.531 130.539 115.641 130.511C115.752 130.484 115.863 130.459 115.975 130.436C116.087 130.414 116.199 130.395 116.312 130.379C116.425 130.362 116.538 130.348 116.652 130.337C116.765 130.326 116.879 130.318 116.993 130.313C117.107 130.307 117.221 130.305 117.335 130.305C117.449 130.305 117.562 130.308 117.676 130.314C117.79 130.32 117.904 130.329 118.017 130.34C118.131 130.351 118.244 130.365 118.356 130.382C118.469 130.399 118.581 130.419 118.693 130.442C118.805 130.464 118.916 130.49 119.027 130.518C119.137 130.546 119.247 130.576 119.356 130.61C119.465 130.643 119.573 130.679 119.68 130.718C119.788 130.757 119.894 130.798 119.999 130.842C120.104 130.886 120.209 130.933 120.312 130.982C120.415 131.031 120.516 131.082 120.616 131.137C120.717 131.191 120.816 131.247 120.914 131.306C121.011 131.365 121.108 131.427 121.202 131.49C121.297 131.554 121.39 131.62 121.481 131.688C121.573 131.757 121.663 131.827 121.75 131.9C121.839 131.973 121.925 132.048 122.009 132.125C122.093 132.202 122.176 132.281 122.256 132.362C122.337 132.443 122.415 132.526 122.492 132.611C122.568 132.695 122.642 132.782 122.714 132.871C122.786 132.96 122.856 133.05 122.924 133.142C122.992 133.234 123.057 133.327 123.121 133.423C123.184 133.518 123.245 133.615 123.303 133.713C123.362 133.811 123.418 133.911 123.471 134.012C123.525 134.113 123.576 134.215 123.625 134.318C123.673 134.422 123.719 134.527 123.762 134.632C123.806 134.738 123.847 134.845 123.885 134.953C123.923 135.061 123.959 135.169 123.992 135.279C124.025 135.389 124.055 135.499 124.083 135.61C124.11 135.721 124.135 135.833 124.157 135.945C124.179 136.057 124.198 136.17 124.215 136.283C124.231 136.396 124.245 136.51 124.256 136.624C124.267 136.738 124.276 136.852 124.281 136.966C124.287 137.081 124.289 137.195 124.289 137.309C124.289 137.424 124.286 137.538 124.28 137.652C124.274 137.767 124.266 137.881 124.255 137.995C124.243 138.108 124.229 138.222 124.212 138.335C124.195 138.448 124.176 138.561 124.154 138.673C124.131 138.786 124.106 138.897 124.078 139.008C124.05 139.119 124.02 139.229 123.987 139.338C123.953 139.448 123.917 139.557 123.879 139.664C123.84 139.772 123.799 139.879 123.756 139.985C123.712 140.09 123.665 140.195 123.617 140.298C123.568 140.401 123.517 140.503 123.463 140.605C123.409 140.705 123.352 140.805 123.294 140.903C123.235 141.001 123.174 141.098 123.11 141.193C123.047 141.288 122.981 141.381 122.913 141.473C122.845 141.565 122.775 141.655 122.703 141.744C122.631 141.832 122.556 141.918 122.479 142.003C122.403 142.088 122.324 142.17 122.243 142.251C122.162 142.332 122.08 142.411 121.996 142.488C121.911 142.564 121.824 142.639 121.736 142.712C121.648 142.784 121.558 142.855 121.467 142.923C121.375 142.991 121.282 143.056 121.187 143.12C121.092 143.183 120.996 143.245 120.898 143.303C120.8 143.362 120.701 143.418 120.601 143.472C120.5 143.526 120.398 143.577 120.295 143.626C120.192 143.675 120.088 143.722 119.982 143.765C119.877 143.809 119.771 143.85 119.663 143.888C119.556 143.927 119.448 143.962 119.339 143.995C119.229 144.029 119.12 144.059 119.009 144.087C118.899 144.115 118.787 144.14 118.675 144.162C118.564 144.184 118.451 144.204 118.339 144.221C118.226 144.237 118.113 144.251 117.999 144.262ZM116.871 135.975C116.813 135.99 116.756 136.009 116.7 136.032C116.645 136.054 116.59 136.08 116.538 136.11C116.486 136.14 116.436 136.173 116.388 136.21C116.34 136.246 116.295 136.286 116.252 136.328C116.209 136.371 116.169 136.416 116.133 136.464C116.096 136.511 116.062 136.561 116.032 136.614C116.002 136.666 115.975 136.72 115.952 136.775C115.929 136.831 115.909 136.888 115.894 136.946C115.878 137.004 115.866 137.064 115.858 137.124C115.85 137.184 115.847 137.244 115.847 137.304C115.847 137.364 115.85 137.424 115.858 137.484C115.866 137.544 115.878 137.603 115.894 137.661C115.909 137.72 115.928 137.777 115.952 137.832C115.975 137.888 116.002 137.942 116.032 137.994C116.062 138.047 116.095 138.097 116.133 138.144C116.169 138.192 116.209 138.237 116.252 138.28C116.295 138.322 116.34 138.362 116.388 138.398C116.436 138.435 116.486 138.468 116.538 138.497C116.591 138.527 116.645 138.554 116.7 138.577C116.756 138.599 116.813 138.618 116.872 138.633C116.93 138.648 116.989 138.659 117.048 138.667C117.108 138.674 117.168 138.677 117.228 138.677C117.288 138.676 117.348 138.672 117.408 138.663C117.467 138.654 117.526 138.642 117.584 138.626C117.627 138.613 117.669 138.599 117.71 138.583C117.752 138.567 117.792 138.549 117.832 138.529C117.872 138.509 117.91 138.487 117.948 138.463C117.986 138.439 118.022 138.413 118.057 138.385C118.092 138.358 118.126 138.329 118.158 138.297C118.19 138.267 118.22 138.234 118.25 138.201C118.279 138.167 118.306 138.132 118.331 138.095C118.357 138.059 118.381 138.021 118.403 137.982C118.425 137.944 118.445 137.904 118.463 137.863C118.481 137.822 118.497 137.78 118.511 137.738C118.526 137.696 118.538 137.653 118.548 137.609C118.557 137.565 118.565 137.521 118.571 137.477C118.577 137.433 118.58 137.389 118.581 137.344C118.582 137.299 118.581 137.255 118.578 137.21C118.575 137.165 118.57 137.121 118.563 137.077C118.556 137.033 118.546 136.99 118.535 136.946C118.523 136.903 118.509 136.861 118.494 136.819C118.478 136.777 118.46 136.736 118.44 136.696C118.421 136.656 118.399 136.617 118.376 136.579C118.352 136.541 118.327 136.505 118.3 136.469C118.273 136.434 118.244 136.4 118.214 136.367C118.183 136.334 118.151 136.303 118.118 136.273C118.085 136.244 118.05 136.216 118.014 136.19C117.978 136.164 117.94 136.14 117.902 136.117C117.863 136.095 117.824 136.074 117.784 136.056C117.743 136.037 117.702 136.02 117.659 136.006C117.617 135.991 117.575 135.979 117.532 135.969C117.488 135.958 117.444 135.95 117.401 135.944C117.356 135.937 117.312 135.934 117.268 135.932C117.223 135.93 117.179 135.931 117.134 135.933C117.09 135.936 117.045 135.941 117.002 135.947C116.958 135.954 116.914 135.963 116.871 135.975Z" fill="#E28E8B"/>
</svg>
