<svg width="177" height="191" viewBox="0 0 177 191" fill="none" xmlns="http://www.w3.org/2000/svg">
<path d="M39.6507 27.7428C35.311 21.6906 35.1114 12.1762 36.9633 5.20157C37.4597 3.33105 37.8686 1.05575 39.6507 0.0142695C42.7292 -0.23067 45.3296 2.73156 47.2909 4.76013C52.3185 9.95993 54.5645 15.2769 55.9199 22.3042C58.1577 20.5146 70.4615 9.99433 72.569 14.9516C73.4478 17.0184 70.7135 18.1411 69.4004 19.0531C61.9369 24.2389 68.4844 34.0288 54.3613 40.6516C55.1969 44.2519 56.0986 48.1551 57.7458 51.4703C61.9032 42.8862 69.0933 38.5447 78.6465 39.2808C88.4267 40.0339 81.6766 44.5359 78.5085 47.947C76.4244 50.1908 74.7233 52.7832 72.5435 54.9389C68.187 59.2466 65.7536 59.4793 60.4602 61.8856C61.975 64.9522 63.0214 69.1482 64.2093 72.4675C66.8631 79.8844 69.7395 87.4535 73.2971 94.4834C76.0095 87.4043 84.0254 77.0982 92.5913 79.1031C96.6362 80.05 91.2435 88.6506 90.3397 90.4248C86.8412 97.2906 85.9837 100.267 78.3028 104.157C86.331 115.777 92.3525 127.336 99.6159 139.154C96.7151 122.442 96.9738 93.0167 102.204 78.002C100.814 77.2602 99.289 76.7681 97.8526 76.1227C89.5551 72.3927 89.2465 68.0537 84.1059 62.5721C82.7153 61.089 75.4422 56.7464 79.7427 54.5282C82.2718 53.2236 86.831 53.6696 89.4522 54.5098C97.0527 56.9474 101.987 61.6919 105.568 68.6048C107.032 64.5852 107.965 61.5032 109.782 57.4821C99.315 52.0942 98.2788 48.558 93.9742 38.7656C91.3535 32.8036 89.8988 28.4867 98.2864 31.5394C108.45 35.2381 110.343 38.8625 114.386 47.5707C115.411 44.5877 117.548 41.7246 119.194 39.0296C113.095 33.0322 112.452 26.5961 114.386 18.3133C114.037 17.7346 104.984 8.25967 111.622 8.74662C114.066 8.92584 121.453 18.9152 123.305 21.0257C126.785 12.6644 132.29 5.69513 140.634 1.73161C143.887 0.186105 146.363 -0.637345 146.825 4.29399C147.587 12.4297 144.614 22.1699 139.347 28.5021C142.486 29.0239 151.454 30.6726 153.618 32.5657C154.848 33.6418 154.609 36.0742 152.93 36.5551C151.398 36.9934 149.238 36.0881 147.678 35.8594C140.442 34.7983 136.807 40.6608 130.362 41.723C127.997 42.1126 125.68 41.6759 123.305 41.7456C121.084 43.9607 119.835 47.1001 118.072 49.6751C122.93 47.7322 126.246 45.9461 131.556 47.6522C134.498 48.5975 143.04 53.4799 144.432 56.4363C146.447 60.7194 138.908 59.6803 137.03 59.893C128.164 60.8973 123.544 64.1592 113.799 59.7402C112.63 62.8761 111.31 65.9181 110.342 69.1313C115.869 66.2785 118.522 65.2798 125.114 66.8275C128.149 67.5395 134.017 69.4655 135.686 72.3604C137.583 75.651 132.733 76.4872 130.661 77.2817C121.282 80.8794 116.193 83.3247 106.66 79.4733C100.343 97.7622 102.567 129.275 105.568 147.664C112.222 143.122 125.209 128.057 130.087 121.886C132.255 119.142 134.106 116.171 136.272 113.433C133.94 112.275 132.08 111.143 130.282 109.234C129.178 107.831 123.409 97.7437 123.781 96.1746C124.36 93.7395 128.235 94.9104 129.818 95.3989C135.187 97.0578 138.189 99.6549 140.707 104.445C141.646 102.558 142.31 100.549 143.221 98.646C141.965 96.5565 141.085 94.3624 139.612 92.382C138.575 90.9887 136.421 89.2944 135.686 87.94C134.931 86.5467 136.563 84.0014 138.193 84.4736C141.258 85.3609 144.058 90.4981 145.59 93.1638C146.559 91.3117 147.283 89.2426 148.054 87.2982C140.712 78.326 144.027 78.5418 141.682 70.6026C140.883 67.8979 137.033 64.7687 141.347 62.976C144.766 64.0695 148.077 67.4611 150.406 70.1566C150.994 68.3905 151.67 66.5845 152.649 64.9958C154.52 61.9584 165.255 48.2315 166.978 57.845C168.095 64.0787 167.302 71.2275 163.633 76.5107C167.465 78.3798 174.709 77.7549 176.328 79.2534C177.168 80.0305 177.266 81.7074 176.362 82.4666C174.925 83.6733 170.726 82.9628 168.609 83.5559C162.129 85.3722 161.881 89.1601 152.258 89.0545C151.527 91.1486 150.611 93.1941 149.766 95.2441C150.678 95.1011 164.217 90.8764 160.809 96.8559C159.812 98.6029 150.275 99.7994 147.809 100.585L147.569 100.663C146.56 102.445 145.854 104.541 145.065 106.44C147.498 105.354 149.319 104.946 151.974 105.593C154.412 106.187 167.214 111.542 160.327 114.695C153.097 118.005 147.492 118.333 140.299 115.568C130.254 131.526 119.204 140.74 106.66 153.556C106.771 156.104 107.418 158.679 107.679 161.227C108.547 169.711 108.133 178.648 105.085 186.686C104.435 188.399 103.357 191.971 100.847 190.751C97.8923 189.313 100.755 185.056 101.328 182.949C103.388 175.36 104.171 162.726 101.615 154.961L101.555 154.779C94.7757 148.287 80.3706 141.433 72.0272 136.891C65.5576 133.37 59.2418 129.633 52.9214 125.849C50.0685 130.112 48.0465 132.734 43.1691 134.636C36.3329 137.301 28.1683 139.354 34.091 128.769C36.6333 124.225 40.362 121.86 45.2379 120.462C43.5088 119.455 41.8285 118.36 40.139 117.288C36.6955 117.95 27.4336 123.542 25.9106 120.857C23.6051 116.793 32.5314 115.042 34.756 113.892C32.5228 111.647 29.7539 110.559 26.7604 109.706C24.4803 111.112 21.3285 113.391 18.7078 113.863C14.4837 114.623 -18.2246 100.216 14.1634 98.646C12.4923 96.5483 6.37194 84.8211 9.39242 82.6737C11.2066 81.3844 14.8508 83.1115 16.6451 83.7805C22.9732 86.1407 27.8297 89.5143 31.535 95.2441C32.6613 93.4437 39.0341 81.7602 42.0316 86.7025C43.6849 89.4282 37.4776 90.7401 40.3483 99.7882C41.7816 104.306 41.9792 107.393 40.8208 112.02C43.3886 113.545 45.9273 115.11 48.6331 116.38C48.85 112.473 50.3765 109.349 52.9214 106.44C46.0826 105.238 42.7755 104.676 50.8689 98.6229C56.9413 94.0809 60.8345 94.3409 67.9258 94.4834C62.6803 83.4714 59.9271 74.0342 55.9199 62.976C44.6249 63.9413 43.2531 63.0001 33.5513 59.5947C31.6434 58.9251 24.0755 57.9327 25.9218 54.4088C26.8999 52.5423 33.2987 49.7735 35.3838 49.0758C41.3279 47.0868 46.7777 47.9864 52.2564 50.7767C51.6988 48.5724 50.9448 46.4188 50.238 44.2585C43.5831 43.5962 38.1578 40.8413 34.0966 35.4329C33.1949 34.2323 32.2697 32.354 30.9861 31.5646C29.814 30.8438 17.7867 28.924 22.5236 24.9941C24.1132 23.675 31.3277 26.6786 33.4938 27.0938C35.4892 27.4763 37.6257 27.5388 39.6507 27.7428ZM41.6477 6.08136C39.1914 15.806 41.2898 26.1255 49.2848 32.4678L49.7019 31.5845C50.2059 30.2317 51.1016 28.8542 51.4814 27.4916C53.1052 21.6614 46.6687 9.00253 41.6477 6.08136ZM141.985 6.50121C135.961 9.52045 129.705 16.2848 127.481 22.8707C126.742 25.0581 126.888 27.1682 126.768 29.4335L126.901 29.5965C139.169 27.9776 140.887 17.4798 142.157 6.72067L142.052 6.52018L141.985 6.50121ZM118.072 21.7178C117.948 26.6114 117.972 30.935 121.423 34.7834L121.629 34.8337C121.771 34.6594 121.899 34.4974 122.02 34.3067C123.539 30.8628 120.788 23.572 118.072 21.7178ZM61.3493 23.8232C58.3675 25.862 52.1352 32.4407 53.7422 36.4828C56.8008 33.8801 61.1293 28.0166 61.3493 23.8232ZM37.309 31.5845C40.3844 35.5519 43.9965 39.268 49.2848 39.3787C46.2171 35.5426 42.1655 32.5442 37.309 31.5845ZM134.399 32.7964C131.27 33.2814 128.308 34.8275 126.019 37.016C127.452 37.1339 128.85 37.1605 130.282 37.016C133.418 35.86 135.716 34.2482 138.628 32.7964C137.235 32.7923 135.786 32.7067 134.399 32.7964ZM97.9875 36.4828C100.839 42.8062 103.126 49.8017 110.342 52.3639C109.295 45.0029 104.932 39.0573 97.9875 36.4828ZM75.0863 44.2585C68.9049 44.1222 61.0478 50.7757 60.8452 56.5537L60.9801 56.7146L61.3493 56.6465C66.7038 54.4759 69.6483 51.03 73.3495 46.8212C73.4254 46.7351 76.7941 43.5162 75.0863 44.2585ZM126.019 51.9471C122.789 52.4213 119.173 54.2294 116.956 56.6465C120.323 57.0058 123.515 57.2037 126.901 57.0345C129.983 56.2938 133.112 55.5781 136.272 55.2782C133.135 53.3722 129.856 51.4155 126.019 51.9471ZM40.139 52.8396C38.2062 53.1339 36.5178 53.6885 34.756 54.54C38.668 57.2821 43.8784 58.6688 48.6331 58.7022C50.3556 58.7934 52.0578 58.7867 53.7422 58.3643C50.9397 54.5969 44.8739 51.9779 40.139 52.8396ZM87.4843 59.0692C92.0373 64.435 94.8327 70.8584 102.204 72.8736C99.6612 66.0324 94.6662 60.6604 87.4843 59.0692ZM162.593 60.989C157.282 66.1047 153.474 70.2873 154.68 78.002C159.089 75.9622 159.495 75.4608 161.243 70.7502C162.304 67.8892 163.073 64.2602 162.735 61.192L162.593 60.989ZM118.072 71.0363C114.741 71.6355 111.115 73.6512 108.896 76.2242C112.76 76.3195 115.198 76.6768 119.194 76.2242C122.421 75.4967 125.632 74.434 128.565 72.8736C125.23 71.5925 121.674 70.6185 118.072 71.0363ZM146.848 72.8736C146.849 75.2414 147.025 80.4596 149.766 81.4449C149.818 78.5264 148.942 75.0082 146.848 72.8736ZM160.726 81.4449C157.734 81.5813 155.743 81.9883 154.302 84.7227C154.819 84.573 155.338 84.4259 155.852 84.269C158.22 83.6216 160.407 82.5455 162.593 81.4449C161.972 81.4434 161.346 81.4254 160.726 81.4449ZM87.4843 84.7227C83.1771 86.823 76.4036 94.1353 77.3873 99.1222L77.5283 99.2499C83.7871 95.2082 84.585 91.1635 87.5866 84.8483L87.4843 84.7227ZM14.1634 87.9457C15.5473 95.5266 21.8158 102.09 29.1454 104.157C28.126 95.3984 22.1519 90.4033 14.1634 87.9457ZM63.0026 99.2499C59.6776 99.5267 57.2993 100.218 54.3613 101.805C56.6139 102.296 61.1099 102.802 63.0026 103.559C78.701 103.956 67.5261 98.9715 63.0026 99.2499ZM35.1435 99.9204C34.5946 102.391 34.0936 104.775 33.9653 107.312C34.6924 107.65 35.4093 107.981 36.0941 108.402L36.5285 108.629C37.8116 107.701 36.0661 100.795 35.1435 99.9204ZM130.527 100.663C132.199 103.842 133.973 107.519 137.572 108.824C136.606 105.507 133.869 101.847 130.527 100.663ZM12.3955 103.559C10.73 103.761 9.0803 104.033 7.45175 104.445C10.5539 106.58 13.9801 108.314 17.7378 108.824C19.6264 108.728 21.0016 107.657 22.3545 106.44C19.0678 103.772 16.6166 103.231 12.3955 103.559ZM74.1041 107.312C70.4095 108.407 66.8489 108.805 63.0026 108.402C61.4506 113.555 59.9424 118.717 54.6969 121.147C64.7816 127.483 74.8852 132.596 85.1884 138.362C89.2995 140.675 93.3372 143.06 97.2599 145.686C92.7502 135.161 84.4674 122.443 78.1999 112.985C77.6587 112.168 74.7986 107.014 74.1041 107.312ZM57.7458 107.998C56.1709 109.199 52.6067 114.192 53.5981 116.305L53.7422 116.38C55.5604 114.77 57.9821 110.714 57.9169 108.091L57.7458 107.998ZM148.845 110.135C147.02 110.361 145.448 111.201 143.822 112.02C145.878 112.657 147.628 112.806 149.766 112.767C151.286 112.555 152.793 112.295 154.302 112.02C152.485 110.798 151.029 110.242 148.845 110.135ZM47.0664 125.243C44.4298 125.807 39.0555 127.984 38.3457 130.965L38.4766 131.067C41.4221 130.546 46.1427 128.497 47.2283 125.361L47.0664 125.243Z" fill="#C6D8B7"/>
</svg>
