<svg width="177" height="185" viewBox="0 0 177 185" fill="none" xmlns="http://www.w3.org/2000/svg">
<path d="M99.479 12.5994L99.7134 12.0248C101.418 7.92449 105.444 1.75429 109.698 0C113.787 0.113668 117.517 7.39575 118.683 10.6652C122.155 9.04761 135.319 5.02054 138.163 9.0892C140.209 12.0168 136.023 14.2634 134.371 15.8714C130.294 19.8381 127.296 25.8534 126.359 31.424C128.561 32.4681 130.951 33.2083 133.193 34.1915C159.243 45.6131 176.208 63.9783 176.161 93.7844C176.13 113.586 167.391 137.964 153.069 152.059C139.481 165.433 120.571 167.623 102.28 167.588L101.832 168.01C89.2233 179.835 74.7821 185.422 57.4598 184.975C49.2001 184.963 38.2087 181.483 31.0242 177.468C-4.32851 157.717 -11.4161 108.768 19.9106 81.6813C25.6968 76.6781 26.3227 79.5585 31.5259 83.433C33.5406 84.9331 35.6164 86.3186 37.7538 87.6413C38.8069 82.7405 39.4414 77.8407 41.2322 73.1161C51.4903 46.0506 66.3086 41.056 89.6277 30.5559C88.2403 25.2695 86.8649 19.8148 82.8103 15.8594C81.3647 14.449 79.2011 13.3651 78.8148 11.2336C78.0553 7.04791 84.3151 7.63692 86.8353 7.79557C91.8792 8.11311 95.6106 9.26962 99.479 12.5994ZM109.698 8.02376C107.246 10.557 105.491 13.5366 105.238 17.0753C104.654 25.2412 101.756 24.7333 97.1817 19.1622C95.3895 16.9794 93.1944 15.7666 90.499 14.9698C93.2923 19.73 95.0983 25.0878 95.7758 30.5559C100.857 32.732 103.31 38.708 101.017 43.7598C97.8133 50.8201 88.0474 54.8363 82.4226 61.4751C80.6719 63.5412 78.1068 70.7091 74.3587 68.9583C68.2101 66.0874 79.6479 54.9142 81.9691 52.8263C85.3558 49.7798 101.623 41.3458 92.6468 36.2898C76.0678 41.7763 58.4356 51.9346 50.4686 67.7693C47.2747 74.1177 44.4528 82.4545 44.4341 89.6002C50.4409 89.8646 54.8665 87.0064 60.3782 86.9752C67.0123 86.9374 70.5862 91.3746 77.9512 89.3717C92.0964 85.5251 90.5281 70.7554 105.084 86.5187C119.479 102.107 122.048 121.473 117.728 141.194C115.203 148.731 112.348 154.55 107.664 161.04C122.343 161.076 137.642 158.169 148.483 147.514C161.953 134.276 169.498 112.175 169.521 93.7164C169.559 64.3602 152.836 49.3153 127.427 38.8039C125.398 37.9641 122.742 36.5532 120.531 36.5126C118.572 36.4762 114.743 38.117 114.81 40.506C114.958 45.8217 136.506 62.4692 131.937 67.7239C128.698 71.4493 126.71 66.8809 125.521 64.845C121.27 57.5708 113.385 52.6965 109.57 45.1972C105.18 36.5687 112.098 31.5585 119.843 30.022C120.816 24.7479 123.623 19.1504 126.975 14.9698C120.839 15.7791 117.907 20.9805 115.271 19.0608C112.846 17.2951 113.525 11.2787 109.698 8.02376ZM24.5963 86.2799C1.94276 105.2 1.01085 138.37 19.7454 160.29C38.679 182.442 72.0919 184.678 94.3622 165.868L94.7689 165.52C105.289 156.079 112.511 143.143 113.189 128.911C113.89 114.183 108.195 94.5906 94.7689 86.2799C86.9007 91.6517 81.41 97.9539 70.1981 95.9341C57.5515 93.656 65.1915 92.2748 51.0391 95.6183C39.64 98.3113 33.1057 91.5446 24.5963 86.2799Z" fill="#E28E8B"/>
<path d="M35.3974 120.007C31.3084 120.207 27.8023 112.826 32.8647 111.601C36.8435 112.166 40.372 118.331 35.3974 120.007Z" fill="#E28E8B"/>
<path d="M48.1544 125.407C44.052 126.034 40.0059 119.629 44.4329 117.214C48.8256 117.062 52.8459 122.981 48.1544 125.407Z" fill="#E28E8B"/>
<path d="M87.7741 134.608C83.582 135.078 80.5481 129.319 84.564 126.621C89.1543 126.423 92.0985 132.573 87.7741 134.608Z" fill="#E28E8B"/>
<path d="M37.7554 135.328C33.1317 135.718 29.722 130.072 33.939 127.124C37.986 126.948 42.4435 132.915 37.7554 135.328Z" fill="#E28E8B"/>
<path d="M51.1549 139.361C46.7303 138.943 43.3703 133.188 48.1549 131.274C52.273 131.124 55.4927 136.978 51.1549 139.361Z" fill="#E28E8B"/>
<path d="M64.7585 141.193C60.2594 141.243 57.33 135.324 61.8874 133.081C65.8814 132.978 69.2968 139.352 64.7585 141.193Z" fill="#E28E8B"/>
<path d="M82.2246 147.657C78.1174 148.052 74.1215 142.34 78.4167 139.355C82.4179 138.731 86.686 145.388 82.2246 147.657Z" fill="#E28E8B"/>
<path d="M36.2148 143.69C36.5786 142.258 37.0713 141.043 38.5962 140.522C42.9134 140.441 46.6291 146.927 41.8115 149.19C39.0316 149.678 36.8087 145.853 36.2148 143.69Z" fill="#E28E8B"/>
<path d="M56.1897 153.788L55.9934 153.769C51.7473 153.353 48.1238 147.888 52.2949 144.984C56.9334 144.925 60.0834 150.497 56.1897 153.788Z" fill="#E28E8B"/>
<path d="M70.4391 153.789C66.4255 154.517 62.5365 148.386 67.0203 145.813C71.1657 145.176 75.1998 151.615 70.4391 153.789Z" fill="#E28E8B"/>
</svg>
