<svg width="178" height="180" viewBox="0 0 178 180" fill="none" xmlns="http://www.w3.org/2000/svg">
<path d="M78.6814 24.7034C80.0085 21.8222 82.272 19.4678 84.491 17.2268C94.7849 6.83086 108.127 0.376971 123.079 0.228359C125.395 -0.179519 130.314 -0.0177258 132.511 0.528663C135.62 1.3023 134.852 3.71754 134.128 6.14433C130.343 18.8373 121.029 31.1801 109.182 37.5662C114.416 41.5448 128.67 56.4644 127.719 62.5697C127.523 63.8207 126.671 64.4 125.695 65.0627C133.989 77.8199 136.799 94.8475 134.847 109.644C142.547 107.688 150.684 104.428 158.133 101.596C160.422 100.726 162.647 99.5568 164.985 98.8353C174.577 95.8744 177.192 107.202 177.201 114.1C177.272 164.062 124.849 195.83 79.5527 171.833C72.0793 167.743 74.4921 166.672 65.9504 166.547C28.6178 166.002 -0.674859 134.733 0.0118298 98.164C0.598195 66.9003 25.3643 38.8779 56.7408 34.4807C62.2119 33.7139 67.5441 33.7003 73.0519 33.8004C73.1206 27.7477 72.9392 22.6402 68.1607 18.1722C66.6628 16.7714 63.8528 14.9144 64.9449 12.4975C66.5973 8.84168 70.3092 11.7524 72.143 13.5601C75.5379 16.9067 77.1757 20.2257 78.6814 24.7034ZM121.956 6.26369C108.321 7.32838 95.7254 13.1995 86.8186 23.5457C84.9093 25.7637 83.3879 28.2409 81.5505 30.5002C84.7242 30.4889 87.9368 30.2968 91.1037 30.5002C95.3841 31.1846 98.9454 32.4664 102.9 34.1718C114.083 29.2129 124.079 17.5805 127.768 6.26369C125.86 6.25676 123.853 6.11734 121.956 6.26369ZM85.9065 36.3948C83.3274 36.4913 81.0965 37.2274 78.6814 38.0431C83.2427 51.5083 99.1396 62.1195 113.539 60.9699C115.802 60.8385 118.126 60.4286 120.307 59.8167C115.579 48.7662 99.1955 34.6025 85.9065 36.3948ZM64.4698 39.7254C60.7757 40.032 57.0546 40.2825 53.4283 41.0851C23.1595 47.786 3.71189 75.6105 6.27999 106.033C8.52971 132.686 29.8555 154.961 56.3093 159.467C58.9058 159.909 61.3392 160.254 63.9838 160.07C56.3629 151.19 51.5437 144.204 47.993 132.627C45.9865 124.946 43.6631 109.625 47.4662 103.182C49.3494 99.9908 54.2964 97.6957 58.0391 98.5748C59.9613 99.026 62.0864 100.618 64.0626 101.322C74.111 104.904 84.1387 108.522 94.2925 111.806C112.986 117.852 109.394 116.785 127.768 111.804C131.012 98.3434 128.544 77.4304 119.259 66.5783C116.168 66.6589 113.114 67.139 110.017 67.0774C94.8614 66.7767 77.0648 54.4121 73.0519 39.7254C70.202 39.7168 67.3151 39.6139 64.4698 39.7254ZM55.4128 104.283C54.0862 104.673 53.3143 105.263 52.4668 106.338C51.6541 108.984 51.5859 111.913 51.5854 114.659C51.5831 140.182 68.6495 163.864 93.6117 171.299C125.581 180.82 159.41 163.275 168.906 131.482C169.833 128.378 172.423 111.469 170.706 109.112C171.151 107.394 169.573 105.021 167.87 104.618C165.857 104.142 163.413 105.868 161.454 106.338C163.637 108.243 164.725 114.298 164.911 117.176C165.416 125.007 162.161 128.572 159.563 135.113C157.213 141.028 157.235 144.524 152.43 149.928C148.976 153.812 139.95 158.566 134.784 162.096C128.937 166.09 122.332 167.593 115.355 166.757C110.426 166.166 109.021 166.928 104.512 166.958C92.3469 167.04 86.535 160.457 77.0281 154.699C70.9652 151.028 66.2363 144.843 63.9224 138.268C62.3818 133.888 63.2252 135.04 60.615 130.597C56.4041 123.429 57.3647 113.704 60.3827 106.338C58.8527 105.549 57.2095 104.258 55.4128 104.283ZM66.0315 108.649C63.4043 114.728 62.5889 122.713 66.5263 128.464C70.0211 133.57 68.4109 132.796 70.2978 137.847C74.1779 148.232 81.4117 148.592 88.268 155.001C94.385 160.719 103.897 162.024 111.67 159.508C122.789 163.685 128.323 158.857 136.63 153.412C142.243 149.733 146.676 149.182 150.522 142.507C152.713 138.441 153.765 133.017 156.531 127.684C159.41 122.13 160.24 113.728 155.81 108.649C146.519 112.398 137.044 115.231 127.44 118.071C113.161 122.292 111.904 123.514 97.7236 119.188C90.0399 116.844 82.3563 114.415 74.8045 111.682C71.9575 110.652 68.9872 109.297 66.0315 108.649Z" fill="#F3D38A"/>
<path d="M42.638 66.5758C38.9939 67.0509 37.5545 62.0662 41.5693 60.9674C45.5236 60.2019 45.9093 65.2396 42.638 66.5758Z" fill="#F3D38A"/>
<path d="M28.0178 80.7121C23.8606 80.7216 23.4098 76.1899 26.9326 74.783C30.7778 74.7137 31.1828 79.322 28.0178 80.7121Z" fill="#F3D38A"/>
<path d="M42.6359 90.1203C38.4649 90.2512 37.8488 85.6529 41.5671 84.1364C45.3657 84.0694 45.9548 88.7859 42.6359 90.1203Z" fill="#F3D38A"/>
<path d="M28.0162 102.332C23.6995 102.577 23.2126 98.0004 26.931 96.5047C30.8358 96.252 30.9993 100.805 28.0162 102.332Z" fill="#F3D38A"/>
<path d="M146.65 132.629C144.761 132.63 129.49 126.904 127.506 126.031C125.71 125.24 124.637 123.945 126.676 122.688C128.651 122.231 146.764 128.643 147.608 129.699C148.423 130.718 147.482 131.991 146.65 132.629Z" fill="#F3D38A"/>
<path d="M77.3057 132.076C75.7418 132.456 74.0298 131.232 75.0033 129.547C75.8897 128.013 82.26 126.703 84.015 126.167L95.0955 122.687C96.1074 122.582 97.2444 122.559 97.5939 123.743C98.3434 126.283 90.7431 127.749 89.2469 128.22L77.3057 132.076Z" fill="#F3D38A"/>
<path d="M132.269 148.578C129.902 148.434 119.37 133.8 118.521 132.074C118.547 130.933 119.286 130.623 120.307 130.3C122.634 129.891 132.467 143.778 133.537 145.873C134.162 147.098 133.379 148.063 132.269 148.578Z" fill="#F3D38A"/>
<path d="M91.1044 148.046C82.6782 149.047 100.056 131.232 101.166 130.298C102.528 130.212 104.737 130.946 103.538 132.703C101.708 135.382 93.0408 146.323 91.1044 148.046Z" fill="#F3D38A"/>
<path d="M111.672 154.41C107.777 153.612 110.066 134.624 110.114 134.539C110.422 133.987 111.106 133.805 111.672 133.641C113.158 133.887 113.388 134.556 113.48 135.935C113.748 139.998 115.267 152.509 111.672 154.41Z" fill="#F3D38A"/>
</svg>
