<svg width="233" height="179" viewBox="0 0 233 179" fill="none" xmlns="http://www.w3.org/2000/svg">
<path d="M107.46 83.7945C106.814 81.4192 105.943 79.1112 105.285 76.7406C99.7074 56.6418 103.908 33.8243 119.307 18.8953C130.727 7.82479 146.402 0.349503 162.589 0.485321C165.392 -0.741479 175.844 0.202991 172.99 5.10528C172.092 6.6488 169.153 7.7262 167.641 8.73136C158.18 15.0192 151.491 26.0055 148.731 36.7617C143.685 56.4304 139.904 68.9951 121.6 81.8454C129.511 84.1326 133.871 89.6006 136.78 97.0778C154.874 89.8033 171.115 106.565 163.554 124.951C167.81 127.216 179.532 138.868 182.461 142.33C186.047 142.243 189.695 142.672 193.287 142.792C201.841 143.08 210.609 142.396 219.078 141.2C222.748 140.681 226.834 139.581 230.51 139.831C232.382 140.72 233.407 143.04 231.76 144.676C228.782 147.633 200.292 148.78 192.515 148.659C187.463 148.58 182.365 147.714 177.332 147.943C164.231 161.824 128.766 187.495 128.839 175.727C128.855 173.195 131.968 172.681 133.807 171.909C147.406 166.194 159.882 156.982 170.191 146.627C166.568 146.549 161.632 145.269 158.019 144.482C142.121 141.018 125.918 136.71 111.185 129.83C110.02 132.766 108.255 134.994 106.165 137.331C109.809 144.606 106.601 154.605 100.963 159.915C95.9367 164.65 90.6136 165.303 83.9973 165.12C70.7884 190.703 40.357 177.154 44.3976 153.72C45.25 150.546 46.5101 147.766 48.5195 145.127C44.7829 141.377 41.7385 137.914 40.6186 132.584C36.6 113.46 56.9873 100.49 74.8558 112.508C78.7721 105.199 89.1854 102.222 96.8505 104.336C96.662 101.918 96.811 99.4999 96.8505 97.0778C95.0701 94.3374 87.9735 87.6485 85.2399 85.3425C72.3077 95.2881 55.3107 97.6707 39.6493 93.0803C18.7262 86.9473 5.34929 69.7084 0.740299 49.3115C0.298982 47.358 -1.01669 43.15 1.49044 41.9724C4.47786 40.569 5.95525 43.9659 7.6304 45.666C22.5777 60.8339 41.3483 53.4617 60.0712 59.7488C58.6941 57.6171 57.0789 55.6535 55.7403 53.4857C47.0197 39.3654 44.0814 21.1035 48.878 5.12223C49.5326 2.94171 51.7494 -1.99169 54.6974 0.91994C56.1499 2.35495 55.7013 4.49251 55.7627 6.31778C56.1631 18.301 64.5399 24.604 70.9643 33.4443C78.437 43.7275 82.5028 55.4036 84.327 67.8628C84.6622 70.152 84.6685 74.436 85.6583 76.3154C87.5239 79.8577 96.4915 87.9317 99.6587 90.8894C102.029 87.7424 104.142 85.9209 107.46 83.7945ZM7.94263 53.3962C8.15793 55.7754 9.54034 58.3458 10.5282 60.4737C20.603 82.1782 43.5242 93.3365 67.0704 87.8075C69.7309 87.1828 72.2527 86.1531 74.8558 85.3425C71.4124 84.2583 67.8551 84.0907 64.287 83.6534C56.9897 82.7586 36.5976 78.8193 33.3193 74.0334C32.6569 70.1038 35.3764 69.2773 38.5314 70.663C53.8976 77.413 64.4843 76.8789 79.7185 79.7898C70.7188 70.716 59.1875 64.0286 46.2695 62.6839C30.4576 61.0381 23.3975 64.2419 7.94263 53.3962ZM158.844 6.47479C144.103 7.75828 130.214 14.8982 120.719 26.1255C109.787 39.0528 107.727 53.7405 109.71 69.8832C110.542 67.4659 110.895 64.9152 111.688 62.4854C114.29 54.5116 126.097 28.1825 134.058 24.1493C136.946 22.6866 139.406 25.4941 137.913 28.1584C125.362 41.2558 115.751 61.1638 114.514 79.0953C127.293 72.1266 136.363 60.0648 140.395 46.2835C145.525 28.746 145.172 20.9552 160.557 6.47479H158.844ZM52.5424 18.301C50.9803 37.5473 63.1828 58.6522 78.8208 69.8832C74.7052 46.4294 69.9759 42.8976 57.1475 25.9627C55.8786 24.2885 53.6287 19.1958 52.5424 18.301ZM115.488 87.4193C96.0624 90.2146 100.041 117.224 118.672 115.746C120.899 115.538 122.974 114.866 125.052 114.083C125.427 108.221 127.723 104.93 131.4 100.625C129.904 92.6098 124.079 86.6617 115.488 87.4193ZM143.849 101.256C125.004 103.451 126.655 131.606 147.165 129.83C167.079 126.628 161.316 99.2909 143.849 101.256ZM90.314 109.694C85.4459 110.197 81.2792 112.803 78.8208 116.975C80.0103 119.649 81.3011 122.102 82.0454 124.951C88.0714 124.063 93.7476 124.384 98.7073 128.185C100.661 129.066 101.723 130.063 102.943 131.8C111.586 122.763 102.162 108.632 90.314 109.694ZM60.0712 113.575C51.6126 114.345 45.4716 121.099 46.2564 129.616C46.7902 135.411 49.4357 136.859 52.5424 141.014C54.9039 139.355 57.4096 138.398 60.0712 137.331C62.9231 137.148 65.6115 137.108 68.4591 137.331C70.1542 132.897 72.8723 130.309 76.4905 127.395C74.9834 119.377 68.6554 113.014 60.0712 113.575ZM125.052 120.607C120.947 121.911 116.803 122.179 112.59 121.212V123.929C115.759 125.423 118.912 126.927 122.188 128.185C125.554 129.503 129.065 130.437 132.406 131.8C129.97 129.227 127.572 126.701 126.205 123.373C126.02 122.922 125.409 120.664 125.052 120.607ZM160.557 129.83C156.346 132.734 153.338 134.951 148.029 135.666C152.873 136.915 157.683 138.239 162.589 139.245C166.063 139.821 169.564 140.339 173.019 141.014C171.822 139.931 161.077 130.015 160.557 129.83ZM86.2209 130.446C67.9126 132.119 67.9432 159.623 88.5868 159.198C108.019 156.787 104.014 128.771 86.2209 130.446ZM62.5997 143.242C43.4653 146.518 47.7605 174.366 65.5131 172.807C71.1835 172.163 75.9615 168.52 78.2484 163.391C70.2278 158.209 66.5876 152.55 66.5302 143.242C65.2233 143.16 63.9052 143.086 62.5997 143.242Z" fill="#F3D38A"/>
</svg>
