<svg width="153" height="196" viewBox="0 0 153 196" fill="none" xmlns="http://www.w3.org/2000/svg">
<path d="M61.3169 23.1503C62.9165 14.5825 65.3499 2.52037 75.3394 0.0838704C87.772 -1.27462 90.7573 14.1918 93.3797 23.1503C98.7887 17.42 107.982 8.82884 116.716 11.3148C131.862 15.6265 123.264 29.1361 120.552 38.102C125.852 37.3213 132.113 36.1318 137.411 37.4398C143.182 38.8648 146.96 45.3207 145.414 50.9949C143.889 56.5939 137.569 60.8233 132.766 63.5964C138.543 65.9432 137.848 70.4596 133.879 70.2136C132.363 70.1196 130.089 68.7952 128.535 68.2881C118.889 65.1394 108.123 67.3948 98.8086 70.5767C112.442 74.048 134.021 84.9673 138.136 98.6471C139.907 104.537 136.607 110.615 130.554 112.204C123.428 114.076 114.162 109.862 108.104 106.38C109.03 108.334 111.635 112.817 110.117 114.967C106.643 119.89 104.112 112.253 103.247 110.308C100.083 103.185 92.2326 92.3488 86.0302 87.3695C85.3347 87.736 84.6761 88.209 84.0171 88.6371C83.7512 91.8181 84.1311 95.0621 83.9957 98.2604C83.5422 108.939 82.4965 106.984 88.995 117.114C89.9073 118.535 92.2852 121.161 91.9988 122.983C91.767 124.456 90.2371 125.796 88.6911 125.408C85.9518 124.72 82.7303 118.326 81.306 115.959C80.1039 119.497 80.0012 123.694 79.6096 127.402C78.2 140.742 77.6832 153.864 77.726 167.288C81.1999 164.358 84.0507 160.471 88.1295 158.307C87.2942 141.311 97.6173 126.684 114.797 123.174C123.671 121.361 129.904 124.617 137.002 123.058C140.169 122.353 142.885 120.927 145.21 118.689C150.682 113.423 152.103 117.059 152.242 122.536C152.654 138.662 145.21 154.822 130.278 162.539C116.443 169.691 105.194 167.623 90.9097 163.182C86.2172 167.571 82.9178 170.618 78.5984 175.53C78.6417 181.283 80.1 186.873 80.6003 192.566C80.8911 195.877 77.6403 197.246 75.3394 194.626C70.6006 182.172 71.7491 148.519 72.7169 135.29C68.323 141.105 59.4149 144.205 53.8077 138.509C49.1766 133.803 49.4936 123.77 49.6105 117.67C44.7841 120.771 37.8579 124.414 32.2521 125.748C23.4244 127.848 15.9609 119.098 18.4094 110.636C19.309 107.527 21.3811 104.769 23.0829 102.043L28.204 93.8408C20.121 93.9617 6.13169 94.6677 1.57899 86.2474C-4.73449 74.5706 9.37854 67.9009 17.5984 63.5964C12.9123 59.9329 4.81658 54.7041 4.93884 48.061C5.25349 30.995 24.4842 36.9067 33.7479 37.1417C28.7413 27.3219 25.0804 7.2424 42.3994 9.27513C49.4722 10.1052 57.0813 17.8676 61.3169 23.1503ZM76.2916 5.98591C65.7566 8.75298 66.0343 36.6822 68.2665 44.908C69.1779 48.2652 70.565 51.503 71.7472 54.7735C73.3458 54.5409 74.6969 54.5394 76.2916 54.7735L76.8551 52.7994C78.4493 46.6793 80.7815 40.7802 83.9767 35.2991C85.2782 33.0674 87.0423 30.996 88.1295 28.6631C87.9615 23.524 83.9611 5.54636 76.2916 5.98591ZM40.4525 14.9433C35.5701 15.6425 34.799 19.2235 35.4415 23.5686C37.6046 38.2002 49.5126 51.9947 62.0247 59.6136L62.502 59.8284C63.916 59.1339 65.0947 57.7127 66.4721 56.8559C62.6237 48.3991 60.4387 39.933 60.5415 30.6127C55.8105 25.8333 47.7864 15.3225 40.4525 14.9433ZM112.428 16.6015C96.3913 22.4581 86.5202 40.5442 82.2115 55.9553C83.5193 56.4374 84.7833 56.9296 86.0302 57.5547C86.5674 56.8015 87.0833 55.9905 87.7666 55.3591C94.8083 48.5132 103.963 42.0193 113.806 39.8285C115.183 35.2991 120.781 22.9235 119.198 19.9482C118.016 17.7274 114.917 16.3892 112.428 16.6015ZM16.8362 41.5753C13.5538 42.2423 10.2957 45.0905 11.0473 48.7641C11.7866 52.3809 20.9042 58.3995 24.0298 60.2873C34.123 66.3834 41.828 68.1485 53.3888 69.5894C54.8281 69.5745 56.2655 69.5706 57.7048 69.5894C58.0618 67.9953 58.4592 66.4441 59.1119 64.9371C48.9106 57.6361 44.7836 54.8082 37.7541 44.1119C32.3364 43.153 21.894 41.2223 16.8362 41.5753ZM130.671 43.2811C118.978 42.6305 96.4449 51.226 90.3462 61.801C91.0953 63.3739 91.8483 64.9449 92.5604 66.5346C94.2793 65.8816 95.9242 65.2362 97.7502 64.9371C103.861 62.0013 111.488 61.0396 118.227 60.9837C120.116 60.9683 122.28 61.5125 124.123 61.2158C127.85 60.6158 138.198 53.5835 139.519 49.8949C141.403 44.6296 134.947 41.6923 130.671 43.2811ZM74.7607 60.4906C62.086 61.7581 56.7861 81.2686 76.2916 84.7087C93.2638 81.0606 89.1748 59.6892 74.7607 60.4906ZM23.6411 66.8732C19.4488 70.1254 6.98797 74.376 6.28658 80.0642C4.91156 91.2113 34.6539 87.4341 40.4525 86.5311C47.0963 84.9172 53.1204 82.8242 59.1119 79.518C58.5099 78.184 58.0452 76.8948 57.7048 75.4692C46.5926 75.305 34.8716 73.4759 25.1705 67.8195C24.6703 67.5277 24.1725 67.0779 23.6411 66.8732ZM93.3797 75.4692C92.6764 78.0665 91.6944 80.2896 90.3462 82.6118C97.2261 90.93 116.947 110.021 129.508 106.38C132.994 104.365 133.693 101.547 131.58 98.1217C124.474 86.6033 106.869 77.477 93.3797 75.4692ZM62.0247 84.7087C51.0508 90.3641 46.5663 90.8862 35.5136 93.4218L28.4135 105.048C25.7365 109.363 21.5827 113.673 25.8821 118.495C27.018 119.394 28.0102 119.874 29.4052 120.266C35.7854 118.901 45.9321 113.581 50.9208 109.389C52.4171 103.25 54.0478 97.7966 56.9615 92.1513C57.6892 90.7412 61.9326 85.3237 62.0247 84.7087ZM66.8014 88.6371C58.2493 100.097 53.8267 114.531 56.0132 128.807C56.8577 134.319 60.8177 137.905 65.9193 133.96C75.3881 124.049 78.895 104.001 78.5984 90.2403C73.4398 90.3367 71.5241 89.4987 66.8014 88.6371ZM146.102 125.524C133.218 132.393 131.425 127.95 120.469 128.329C106.925 128.797 96.4064 138.401 94.5014 151.477C101.757 145.358 109.708 140.377 119.381 139.321C128.91 138.281 127.481 143.799 124.242 144.857C113.387 145.023 103.363 150.563 95.9198 158.165L95.782 158.307C115.805 165.398 136.583 158.623 144.004 138.009C144.642 136.235 147.369 126.702 146.102 125.524Z" fill="#C6D8B7"/>
</svg>
