<svg width="153" height="178" viewBox="0 0 153 178" fill="none" xmlns="http://www.w3.org/2000/svg">
<path d="M73.5004 39.4025C73.4594 29.2467 73.7517 20.8965 78.2491 11.4652C79.8276 8.15546 83.8882 1.22854 87.3307 0.00737042C94.0991 -0.248683 87.8266 6.24283 86.741 7.64147C79.6517 16.7741 78.6141 28.2486 78.7088 39.4025C84.8015 31.0079 94.439 25.7295 104.509 23.4823C107.9 22.7257 121.277 20.7447 123.901 22.504C128.191 25.3804 119.08 39.9142 117.135 42.5767C122.361 44.6465 123.547 45.9527 127.166 49.9698C138.79 49.3862 148.32 56.8264 148.176 68.8041C148.15 71.0216 147.601 74.9419 145.919 76.5785C155.786 81.479 154.967 104.185 139.872 108.975C140.009 119.408 137.402 126.58 126.703 130.264C126.811 142.287 122.819 149.449 110.603 152.7C109.234 162.922 102.832 168.889 92.3549 169.534C88.4217 174.313 84.2099 177.884 77.5288 177.958C70.5665 178.426 64.8873 174.959 60.739 169.534C49.7487 169.622 44.4914 161.961 41.7629 152.295C30.0237 150.063 25.9909 141.304 26.2871 130.264C16.341 126.043 12.5383 119.947 12.9311 108.975C-1.5393 102.039 -3.87286 88.5396 5.97004 76.5785C-0.890899 62.2343 10.3357 48.9504 26.2871 49.9698C27.8153 46.0822 32.0024 44.0669 35.668 42.5767C22.3363 25.6362 24.3414 18.1067 47.3918 23.5198C56.414 25.6384 68.3885 31.2067 73.5004 39.4025ZM115.054 27.3434C98.0491 27.7884 86.6488 35.0512 78.7088 49.2607C80.7224 49.8003 82.6217 50.325 84.5145 51.2124C85.4455 51.6404 86.3813 52.0405 87.3307 52.4258C91.7303 48.447 97.8983 47.8094 103.607 48.2295L103.724 48.101C110.668 40.5954 115.613 39.8637 119.152 27.3434C117.794 27.2275 116.401 27.0557 115.054 27.3434ZM34.7992 27.3434C34.2094 27.387 33.6602 27.3848 33.0704 27.3434C35.2973 34.3028 42.3659 44.4922 49.084 48.2295C55.6293 47.9253 60.5019 48.2692 65.8474 52.4258C67.2769 51.5205 68.3912 50.9788 70.0781 50.6218C71.1924 49.9642 72.2472 49.5806 73.5004 49.2607C69.6056 36.0379 47.7176 25.8602 34.7992 27.3434ZM113.552 47.0454C111.914 48.1411 110.57 49.629 108.881 50.6218C111.272 52.3669 113.308 54.177 115.054 56.5749C115.427 56.1962 115.792 55.7991 116.183 55.4378C117.826 54.0475 119.454 52.7352 121.354 51.6975C119.732 49.0711 116.614 47.3396 113.552 47.0454ZM39.4152 47.0454C35.8761 47.9 33.561 49.286 30.892 51.6975C32.9796 52.6358 34.5528 53.8475 36.1582 55.4378L37.228 56.5749C38.762 54.1495 40.7222 52.1268 43.1897 50.6218C42.1398 49.5924 40.6305 47.7519 39.4152 47.0454ZM51.1465 53.4596C35.3489 54.9475 35.8047 79.0078 52.7223 79.112C55.5394 78.9996 57.5962 78.426 59.7367 76.5785C56.9817 71.0055 56.1217 60.5467 62.2395 56.5749C59.0689 54.3923 55.1136 52.4628 51.1465 53.4596ZM97.6678 53.4596C94.9238 53.9442 93.0487 54.7257 90.9567 56.5749C95.4444 62.4683 96.3066 70.5997 92.7816 77.1529C96.1545 79.3186 99.6871 80.1598 103.607 79.112C119.508 74.2764 112.774 51.3013 97.6678 53.4596ZM74.6923 54.5182C56.1689 58.2307 60.9449 84.2849 78.261 81.3696C94.3512 80.7582 93.1347 52.3661 74.6923 54.5182ZM20.9932 55.4378C8.14536 56.0336 2.80471 76.6269 21.4802 81.3696L22.4165 79.7431C25.4474 74.8888 29.1967 72.1901 34.7992 71.0155C34.3245 67.9572 34.2932 65.1779 34.7992 62.114C32.4674 58.279 25.8595 53.3881 20.9932 55.4378ZM128.665 55.4378C123.951 55.3794 119.93 58.201 117.607 62.114C118.221 65.1618 118.4 67.9725 117.607 71.0155C123.072 72.0689 126.912 74.4194 130.017 79.0201C130.435 79.6398 130.803 80.5267 131.399 80.9639C142.943 79.9296 147.138 65.4812 138.244 58.2603C135.945 56.3936 131.717 54.306 128.665 55.4378ZM36.1582 75.8711C21.1492 79.6677 20.782 98.6165 37.228 102.594C40.6362 102.396 43.3387 102.093 46.2409 100.136C43.7248 94.327 43.4026 88.8835 46.2409 83.211C41.3596 81.7549 37.1169 75.9034 36.1582 75.8711ZM115.5 75.8711C112.96 79.6137 110.639 81.7767 106.515 83.7532C108.624 89.6348 109.312 94.2904 106.515 100.136C110.015 102.036 113.059 103.21 117.135 102.594C132.741 98.8689 130.111 76.4142 115.5 75.8711ZM143 80.9639C140.117 83.8474 137 85.5846 132.874 86.0274C133.477 92.5362 131.941 98.0325 127.166 102.594C128.735 103.402 130.263 104.277 132.038 104.54C144.994 107.06 153.035 88.5997 143 80.9639ZM8.9573 80.9639C0.755466 91.308 8.21545 107.056 21.4802 104.136C22.8008 103.725 24.1157 103.195 25.3597 102.594C21.6671 96.6827 18.7266 94.2952 19.9807 86.0274C13.6376 84.8642 13.4195 83.2293 8.9573 80.9639ZM62.7151 81.3696C59.0799 83.5052 55.8484 84.2183 51.6547 84.305C45.209 94.1074 52.3146 104.437 63.4093 105.945C73.0922 104.523 80.0762 96.0525 74.6923 87.0355C67.1486 85.667 67.7273 84.3416 62.7151 81.3696ZM89.5158 81.3696C87.1809 83.6983 84.1443 86.0244 80.6752 86.0279L80.4531 86.0274C81.5929 91.7443 81.8336 95.428 79.78 101.05C83.32 104.753 87.4392 105.749 92.3549 105.429C102.06 102.227 105.655 93.8058 100.964 84.7448C96.0796 85.1771 93.5138 83.1204 89.5158 81.3696ZM103.607 104.54C100.871 106.951 98.3069 108.844 94.8079 110.058C95.4466 114.897 95.343 117.982 93.296 122.554C96.9757 125.746 101.09 127.334 105.953 126.508C114.829 123.424 117.196 116.562 115.5 108.025C108.834 108.078 108.453 106.337 103.607 104.54ZM49.084 104.54C44.8612 107.21 42.1746 107.906 37.228 108.025C35.0743 116.458 37.5013 124.94 47.1855 126.508C52.2833 127.329 56.1155 124.999 59.7367 121.843C57.2453 118.327 57.1545 114.178 57.7372 110.058C52.9912 108.132 51.0222 105.413 49.084 104.54ZM76.3281 105.429C72.0859 109.335 68.3035 110.514 62.7151 111.119C61.8123 119.673 67.2495 127.292 76.3281 127.612C85.155 127.386 91.7872 119.916 89.5158 111.119C86.2557 110.397 82.8902 109.775 80.0189 107.981C78.7842 107.209 77.6611 105.988 76.3281 105.429ZM29.9739 105.945C25.5025 108.736 23.3166 109.189 18.2426 110.058C18.1611 116.203 19.941 122.202 26.2871 124.414C29.3907 126.052 32.4639 125.896 35.668 124.805C30.673 121.079 29.776 112.52 32.18 107.133C31.4677 106.666 30.8004 106.19 29.9739 105.945ZM123.236 105.945L120.748 107.133C122.289 115.958 121.013 117.59 117.607 124.805C120.925 125.995 123.831 126.001 127.166 124.805C133.606 121.379 134.837 116.738 134.764 110.058C128.997 109.78 127.658 108.462 123.236 105.945ZM62.2395 126.508C57.6927 130.501 55.87 130.201 51.1465 132.269C45.1446 140.933 52.8572 151.724 63.4093 152.295C73.3699 150.565 79.0892 142.277 74.6923 132.618C69.6514 131.942 65.8919 129.971 62.2395 126.508ZM90.281 126.508C87.5097 130.053 84.6953 131.172 80.4531 132.269C81.1112 138.776 82.5526 141.8 78.7088 148.334C83.0145 151.119 85.6641 152.384 90.9567 151.899C101.312 150.74 104.756 140.642 101.605 131.786C97.2693 131 93.296 129.903 90.281 126.508ZM113.552 128.962C111.325 129.621 109.316 130.753 107.075 131.38C108.342 138.909 107.707 140.698 105.953 147.411C108.307 147.611 110.499 147.39 112.801 146.898C119.822 143.734 121.622 137.902 121.354 130.832C118.483 130.466 115.759 129.196 113.552 128.962ZM39.4152 128.962C36.7308 130.058 34.2884 130.498 31.4179 130.832C31.3218 138.795 33.2446 143.631 40.7517 146.898C42.6207 147.469 44.2996 147.506 46.2409 147.411C43.5891 141.702 43.5604 137.277 45.4325 131.38C43.5565 130.823 40.7015 129.258 39.4152 128.962ZM49.084 151.899L47.1855 152.295C48.7234 158.213 52.0025 161.407 57.2493 164.121C59.0935 164.098 57.7262 159.586 58.3283 156.625C55.8308 155.956 53.2927 154.879 51.2668 153.273C50.7687 152.878 49.7245 151.789 49.084 151.899ZM102.416 151.899C100.216 154.031 97.7361 155.633 94.8079 156.625C95.4039 159.156 95.0971 161.572 94.8079 164.121C95.5083 163.94 96.2198 163.774 96.9079 163.55C101.668 161.647 104.831 157.718 105.39 152.7C104.414 152.431 103.409 152.083 102.416 151.899ZM75.4082 152.295C70.2262 156.897 68.668 155.778 63.4093 157.505C62.113 165.885 69.1758 173.999 77.5288 172.869C85.337 172.107 90.8179 165.206 89.5158 157.505C85.2224 157.244 81.9099 156.737 78.3417 154.276C77.6932 153.829 76.0786 152.365 75.4082 152.295Z" fill="#E28E8B"/>
</svg>
