<svg width="177" height="206" viewBox="0 0 177 206" fill="none" xmlns="http://www.w3.org/2000/svg">
<path d="M89.4998 68.2831C97.5703 61.0026 103.121 55.7163 105.837 44.2477C108.83 31.6096 104.41 17.0906 94.5331 8.57924C92.1414 6.51875 86.3816 3.17143 92.0887 0.0406248C95.3765 -0.399047 98.2075 2.82995 100.34 4.90027C108.314 12.6441 109.907 18.4351 112.787 28.5766C118.764 18.9338 128.775 11.546 138.908 6.7572C142.916 4.86322 157.094 -0.520131 160.794 0.922663C163.553 1.99831 163.284 5.83871 160.604 6.94907C158.547 7.80168 155.916 7.91113 153.712 8.37945C136.544 12.0279 120.666 24.7283 113.355 40.5967C115.063 45.1246 117.622 48.7397 121.028 52.1312C126.068 44.0631 134.362 39.4524 144.063 39.9211C148.63 40.1423 158.265 41.9184 157.839 48.0408C166.658 51.7656 166.319 56.013 171.471 62.5083C172.864 64.264 174.999 65.5863 176.117 67.4978C176.181 68.2717 176.145 69.0377 176.117 69.8122C172.5 75.081 163.979 78.3215 157.839 78.5529C158.893 83.965 161.792 89.4976 157.839 94.5968C157.947 97.5585 158.275 104.96 156.26 106.724C152.552 109.971 138.379 103.608 135.242 101.208C133.213 99.6565 131.588 97.7707 129.936 95.8436C127.18 99.6247 123.676 96.0708 121.295 93.7912C110.602 83.5538 110.097 69.9854 118.323 57.9012C115.354 55.6174 112.929 53.173 110.751 50.1208C107.284 60.7724 100.024 68.3436 91.4341 75.0181C91.6313 80.2186 90.773 84.2419 87.8077 88.5841C99.4495 89.7547 107.056 101.446 105.342 112.609C104.336 119.16 100.517 123.363 95.3543 127.151C103.532 131.094 106.506 139.019 106.004 147.818C103.478 164.032 81.7775 170.787 72.0802 158.134C74.1242 174.245 59.2911 185.492 44.4729 179.858C52.0471 203.878 17.3086 216.657 6.90454 194.683C-0.990966 178.008 14.5878 160.663 33.4545 167.513C33.1266 165.322 32.8592 163.161 32.8658 160.939C17.2187 172.209 -2.67652 159.608 0.479999 141.457C3.51784 123.994 26.7602 119.428 36.5858 133.577C38.414 131.307 40.7859 129.857 43.2375 128.354C41.4555 123.299 41.6527 118.267 43.5906 113.299C40.0678 113.336 36.8489 113.308 33.5324 111.942C10.1168 102.299 22.9401 63.6118 50.7973 75.5947C51.0245 74.1418 51.2553 72.696 51.6773 71.2843C56.9647 53.5896 80.5673 51.2375 89.4998 68.2831ZM140.856 46.5171C135.235 47.1501 129.926 49.878 126.947 54.783L134.347 60.3138C135.842 61.4228 137.624 62.4951 138.872 63.8684C140.593 65.7637 139.025 68.7908 136.567 68.9892C134.707 69.139 125.928 62.211 123.878 60.6082C122.873 62.5221 121.634 64.3269 120.698 66.272C116.604 74.7849 119.783 83.6323 126.447 89.5863C131.023 82.9957 134.367 91.381 137.267 94.5968C141.406 98.1202 145.989 99.6523 151.27 100.602C151.419 96.7961 149.586 90.7264 153.38 89.5863C153.424 85.7944 152.633 82.6906 150.139 79.8092C148.398 77.7988 145.288 75.2531 147.975 72.5887C150.805 69.784 159.752 75.4809 168.071 68.2831C163.563 62.9171 162.225 56.1953 154.851 54.2334C151.34 53.3001 146.752 52.6048 149.411 48.0408C146.695 46.6166 143.929 46.1473 140.856 46.5171ZM70.3976 63.1047C70.1707 63.1175 69.9443 63.1359 69.7185 63.1599C69.4923 63.1842 69.2671 63.2138 69.043 63.2486C68.8184 63.2838 68.5948 63.3245 68.3722 63.3709C68.1496 63.4168 67.9284 63.4684 67.7087 63.5255C67.4885 63.5823 67.2701 63.6446 67.0535 63.7125C66.8365 63.7801 66.6213 63.853 66.4079 63.9313C66.1945 64.0096 65.9833 64.0932 65.7744 64.1819C65.565 64.2706 65.3579 64.3645 65.1534 64.4636C64.9487 64.5623 64.7467 64.6662 64.5473 64.7753C64.3479 64.884 64.1513 64.9975 63.9575 65.1158C63.7637 65.2344 63.5729 65.3577 63.3851 65.4856C63.1973 65.6135 63.0126 65.7459 62.8312 65.883C62.6498 66.0201 62.472 66.1613 62.2977 66.3068C62.1235 66.4527 61.9529 66.6027 61.7858 66.757C61.6188 66.9108 61.4558 67.0689 61.2967 67.2311C61.1373 67.3933 60.982 67.5594 60.831 67.7292C60.6799 67.8987 60.5333 68.0719 60.391 68.2489C60.2483 68.4259 60.1103 68.6064 59.9768 68.7902C59.8429 68.974 59.7139 69.161 59.5896 69.3512C59.4649 69.5415 59.3452 69.7345 59.2305 69.9303C59.1154 70.1265 59.0053 70.3253 58.9002 70.5267C58.7952 70.7281 58.695 70.9319 58.5999 71.1381C58.5048 71.3447 58.4147 71.5533 58.3296 71.7639C58.2449 71.9749 58.1654 72.1877 58.091 72.4023C58.0167 72.6169 57.9476 72.8332 57.8836 73.0514C57.8201 73.2696 57.7618 73.4892 57.7086 73.7102C57.6559 73.9312 57.6083 74.1532 57.566 74.3761C57.524 74.5995 57.4876 74.8239 57.4569 75.0493C57.4257 75.2743 57.4001 75.4998 57.3801 75.726C57.3605 75.9526 57.3464 76.1794 57.3376 76.4064C57.3288 76.6333 57.3256 76.8605 57.328 77.0879C57.3304 77.3149 57.3384 77.5419 57.352 77.7688C57.3655 77.9958 57.3847 78.2222 57.4095 78.448C57.4343 78.6737 57.4645 78.8989 57.5 79.1235C57.536 79.3477 57.5773 79.5711 57.6241 79.7937C57.6708 80.0158 57.7232 80.2368 57.7811 80.4566C57.8387 80.6764 57.9016 80.8946 57.97 81.1112C58.0383 81.3282 58.112 81.5431 58.1911 81.7561C58.2703 81.9691 58.3544 82.1801 58.4435 82.3891C58.533 82.5981 58.6275 82.8047 58.727 83.0089C58.8265 83.2131 58.931 83.4147 59.0405 83.6137C59.15 83.8131 59.2643 84.0095 59.3834 84.203C59.5025 84.3964 59.6261 84.5868 59.7544 84.7742C59.8831 84.9616 60.0162 85.1458 60.1536 85.3269C60.2911 85.5079 60.433 85.6853 60.5792 85.8591C60.7255 86.033 60.8759 86.203 61.0306 86.3692C61.1852 86.5359 61.3439 86.6985 61.5065 86.8572C61.6691 87.0158 61.8356 87.1705 62.0058 87.3211C62.1761 87.4718 62.3499 87.618 62.5273 87.7599C62.7047 87.9018 62.8856 88.0392 63.0698 88.1723C63.254 88.3054 63.4414 88.4338 63.632 88.5577C63.8227 88.6816 64.0161 88.8007 64.2123 88.915C64.4089 89.0293 64.6081 89.1387 64.8099 89.2434C65.0113 89.3477 65.2155 89.4472 65.4225 89.5419C65.6291 89.6363 65.8379 89.7256 66.0489 89.8099C66.2599 89.8942 66.4729 89.9731 66.6879 90.0467C66.9028 90.1206 67.1194 90.1889 67.3376 90.2517C67.5558 90.3148 67.7756 90.3725 67.997 90.4249C68.218 90.4772 68.4401 90.524 68.6635 90.5652C68.8869 90.6067 69.1113 90.6427 69.3367 90.673C69.562 90.703 69.7878 90.7276 70.014 90.7468C70.2406 90.766 70.4674 90.7795 70.6944 90.7875C70.9213 90.7959 71.1485 90.7985 71.3759 90.7953C71.6033 90.7921 71.8302 90.7833 72.0568 90.769C72.2826 90.7546 72.508 90.7348 72.733 90.7096C72.9579 90.6844 73.1821 90.6537 73.4055 90.6173C73.6289 90.5809 73.8513 90.5392 74.0727 90.492C74.294 90.4449 74.514 90.3923 74.7326 90.3344C74.9516 90.2764 75.169 90.2131 75.3848 90.1444C75.6002 90.0756 75.814 90.0019 76.0262 89.9232C76.2383 89.8441 76.4483 89.7597 76.6561 89.6702C76.8639 89.5807 77.0695 89.4862 77.2729 89.3867C77.4763 89.2876 77.6771 89.1833 77.8753 89.0738C78.0736 88.9647 78.269 88.8506 78.4616 88.7315C78.6542 88.6129 78.8438 88.4894 79.0304 88.3611C79.217 88.2328 79.4003 88.1002 79.5801 87.9631C79.7603 87.826 79.9369 87.6846 80.11 87.5387C80.283 87.3928 80.4524 87.243 80.6183 87.0891C80.7841 86.9349 80.946 86.7768 81.1038 86.615C81.262 86.4528 81.4161 86.2869 81.5659 86.1175C81.7158 85.9477 81.8615 85.7744 82.0029 85.5978C82.1444 85.4212 82.2815 85.2411 82.4141 85.0577C82.5464 84.8743 82.6743 84.6877 82.7978 84.4979C82.9212 84.3085 83.0401 84.1158 83.1544 83.92C83.2683 83.7246 83.3774 83.5266 83.4817 83.326C83.586 83.125 83.6853 82.9216 83.7796 82.7158C83.8739 82.51 83.9632 82.302 84.0475 82.0918C84.1315 81.882 84.2104 81.67 84.2843 81.4558C84.3582 81.242 84.4268 81.0265 84.4899 80.8091C84.553 80.5917 84.6108 80.3729 84.6631 80.1527C84.7159 79.9325 84.763 79.7111 84.8046 79.4886C84.8462 79.2664 84.8823 79.0432 84.9131 78.819C84.9439 78.5944 84.969 78.3694 84.9886 78.1441C85.0082 77.9187 85.0224 77.6929 85.0312 77.4667C85.0396 77.2405 85.0426 77.0144 85.0402 76.7882C85.0378 76.5616 85.0298 76.3354 85.0162 76.1096C85.0026 75.8839 84.9836 75.6585 84.9592 75.4335C84.9345 75.2085 84.9043 74.9841 84.8687 74.7604C84.8332 74.537 84.7922 74.3146 84.7458 74.0932C84.6991 73.8714 84.6471 73.651 84.59 73.4321C84.5329 73.2135 84.4701 72.9961 84.4018 72.7799C84.3343 72.5641 84.2611 72.3501 84.1824 72.1379C84.1041 71.9253 84.0206 71.7149 83.9318 71.5067C83.8431 71.2985 83.7494 71.0927 83.6507 70.8893C83.5516 70.6855 83.4477 70.4843 83.339 70.2857C83.2303 70.0875 83.117 69.8919 82.9992 69.6989C82.8809 69.5059 82.7578 69.3159 82.6299 69.1289C82.5024 68.9418 82.3704 68.7582 82.2337 68.578C82.0974 68.3974 81.9566 68.2203 81.8111 68.0469C81.6661 67.8731 81.5166 67.703 81.3628 67.5368C81.2093 67.3706 81.0518 67.2081 80.8904 67.0495C80.729 66.8912 80.5635 66.7368 80.3941 66.5861C80.2251 66.4359 80.0524 66.2898 79.8762 66.148C79.7 66.0057 79.5203 65.868 79.3373 65.735C79.1543 65.6019 78.9683 65.4732 78.7793 65.3489C78.5899 65.2251 78.3974 65.1058 78.202 64.9911C78.007 64.8764 77.8092 64.7667 77.6086 64.662C77.408 64.5569 77.205 64.4568 76.9996 64.3617C76.7942 64.267 76.5866 64.1771 76.3768 64.092C76.167 64.0072 75.9552 63.9277 75.7414 63.8534C75.5276 63.7791 75.3122 63.7099 75.0953 63.646C74.8783 63.5821 74.6597 63.5235 74.4395 63.4704C74.2197 63.4172 73.9985 63.3695 73.7759 63.3271C73.5538 63.2847 73.3306 63.2478 73.1064 63.2162C72.8822 63.185 72.6574 63.1593 72.4321 63.1389C72.2067 63.1185 71.9809 63.1035 71.7547 63.0939C71.5285 63.0847 71.3024 63.0809 71.0762 63.0825C70.8496 63.0845 70.6234 63.0919 70.3976 63.1047ZM39.2652 79.9279C39.0454 79.9599 38.8266 79.9973 38.6088 80.04C38.391 80.0828 38.1745 80.1307 37.9591 80.1839C37.7437 80.2374 37.5297 80.296 37.3171 80.3595C37.1045 80.4234 36.8937 80.4926 36.6847 80.5669C36.4753 80.6408 36.2681 80.7202 36.0631 80.8049C35.8577 80.8892 35.6545 80.9785 35.4535 81.0728C35.2525 81.1671 35.0541 81.2662 34.8583 81.3701C34.6621 81.474 34.4687 81.5827 34.278 81.6962C34.087 81.8097 33.8992 81.928 33.7146 82.0511C33.5296 82.1737 33.3478 82.3008 33.1691 82.4323C32.9905 82.5642 32.8151 82.7 32.6428 82.8399C32.471 82.9801 32.3026 83.1246 32.1375 83.2733C31.9725 83.4219 31.8113 83.5744 31.6538 83.7306C31.4964 83.8873 31.3429 84.0475 31.1935 84.2113C31.0436 84.3752 30.8981 84.5426 30.7571 84.7137C30.6156 84.8847 30.4784 85.0591 30.3453 85.237C30.2126 85.4148 30.0843 85.5958 29.9605 85.78C29.8366 85.9642 29.7171 86.1513 29.602 86.3411C29.4873 86.5309 29.3772 86.7235 29.2717 86.9189C29.1666 87.1143 29.0661 87.3121 28.9702 87.5123C28.8747 87.7129 28.7842 87.9155 28.6987 88.1201C28.6128 88.3247 28.5321 88.5313 28.4565 88.7399C28.381 88.9489 28.3107 89.1595 28.2455 89.3717C28.18 89.5835 28.1199 89.7971 28.0651 90.0125C28.0104 90.2275 27.961 90.4437 27.917 90.6611C27.8727 90.8784 27.8339 91.0968 27.8008 91.3162C27.7672 91.536 27.739 91.7562 27.7162 91.9768C27.6939 92.1978 27.6767 92.4189 27.6647 92.6403C27.6531 92.8621 27.6467 93.0839 27.6455 93.3057C27.6447 93.5279 27.6493 93.7496 27.6593 93.971C27.6693 94.1928 27.6847 94.4142 27.7055 94.6352C27.7262 94.8562 27.7524 95.0766 27.784 95.2963C27.8155 95.5161 27.8525 95.7349 27.8949 95.9527C27.9372 96.1705 27.985 96.3871 28.0381 96.6025C28.0909 96.8183 28.149 97.0325 28.2126 97.245C28.2761 97.4576 28.3448 97.6686 28.4188 97.878C28.4923 98.0874 28.571 98.2948 28.6549 98.5002C28.7393 98.7056 28.8284 98.9088 28.9223 99.1098C29.0162 99.3108 29.1149 99.5094 29.2184 99.7056C29.3223 99.9019 29.4308 100.095 29.5439 100.286C29.6574 100.477 29.7752 100.666 29.8975 100.851C30.0198 101.036 30.1467 101.218 30.2782 101.397C30.4096 101.576 30.5453 101.751 30.6852 101.923C30.825 102.096 30.9691 102.264 31.1173 102.429C31.2656 102.594 31.4178 102.756 31.5741 102.914C31.7299 103.072 31.8898 103.225 32.0536 103.375C32.2175 103.525 32.3847 103.671 32.5553 103.813C32.7264 103.954 32.9006 104.092 33.078 104.225C33.2554 104.358 33.4363 104.486 33.6205 104.611C33.8043 104.735 33.9911 104.855 34.181 104.97C34.3704 105.085 34.5628 105.195 34.7582 105.301C34.9532 105.407 35.1508 105.507 35.351 105.603C35.5512 105.7 35.7536 105.791 35.9582 105.877C36.1628 105.963 36.3694 106.043 36.578 106.119C36.7862 106.195 36.9964 106.266 37.2086 106.332C37.4208 106.398 37.6344 106.458 37.8494 106.513C38.0644 106.568 38.2806 106.618 38.4979 106.662C38.7153 106.707 38.9337 106.746 39.1531 106.78C39.3725 106.814 39.5925 106.842 39.8131 106.865C40.0336 106.888 40.2548 106.906 40.4766 106.918C40.6984 106.93 40.9202 106.937 41.142 106.938C41.3637 106.939 41.5855 106.935 41.8073 106.926C42.0291 106.916 42.2505 106.901 42.4715 106.881C42.6924 106.86 42.9128 106.834 43.1326 106.803C43.3528 106.772 43.5722 106.735 43.7908 106.693C44.009 106.651 44.2261 106.604 44.4423 106.551C44.6585 106.498 44.8731 106.44 45.0861 106.377C45.2995 106.314 45.5111 106.245 45.7209 106.172C45.9307 106.098 46.1387 106.019 46.3449 105.935C46.5507 105.851 46.7545 105.762 46.9563 105.668C47.1577 105.574 47.3569 105.475 47.5539 105.372C47.7505 105.268 47.9445 105.159 48.1359 105.046C48.3274 104.933 48.516 104.815 48.7018 104.692C48.8872 104.57 49.0696 104.443 49.2491 104.312C49.4285 104.18 49.6045 104.044 49.7771 103.904C49.9498 103.764 50.119 103.619 50.2848 103.471C50.4503 103.322 50.6121 103.17 50.7704 103.013C50.9286 102.857 51.0829 102.697 51.2331 102.532C51.3834 102.369 51.5294 102.201 51.6713 102.03C51.8132 101.859 51.9508 101.684 52.0843 101.506C52.2178 101.328 52.3468 101.147 52.4715 100.963C52.5958 100.778 52.7157 100.591 52.8312 100.401C52.9467 100.211 53.0573 100.018 53.1632 99.8225C53.2687 99.6267 53.3696 99.4285 53.4659 99.2279C53.5618 99.0273 53.653 98.8245 53.7393 98.6195C53.8252 98.4145 53.9063 98.2073 53.9826 97.9979C54.0586 97.7889 54.1293 97.5781 54.1948 97.3655C54.2604 97.1533 54.3207 96.9393 54.3759 96.7235C54.431 96.5082 54.4808 96.2916 54.5251 96.0738C54.5695 95.8556 54.6084 95.6366 54.642 95.4168C54.6756 95.197 54.7037 94.9765 54.7265 94.7551C54.7497 94.5337 54.7671 94.3119 54.7787 94.0897C54.7907 93.8679 54.7972 93.6458 54.7984 93.4232C54.7992 93.2006 54.7947 92.9782 54.7847 92.756C54.7751 92.5338 54.7597 92.312 54.7385 92.0907C54.7177 91.8693 54.6916 91.6485 54.66 91.4283C54.6284 91.2081 54.5912 90.9889 54.5485 90.7708C54.5061 90.5522 54.4584 90.335 54.4052 90.1192C54.3521 89.903 54.2937 89.6884 54.2302 89.4754C54.1667 89.2624 54.0977 89.051 54.0234 88.8412C53.9495 88.6314 53.8704 88.4236 53.786 88.2178C53.7017 88.012 53.6124 87.8084 53.5181 87.607C53.4238 87.4056 53.3247 87.2066 53.2208 87.01C53.1165 86.8134 53.0076 86.6194 52.8941 86.428C52.7806 86.237 52.6623 86.0488 52.5392 85.8633C52.4166 85.6779 52.2893 85.4955 52.1574 85.3161C52.0255 85.137 51.8893 84.9614 51.7486 84.7892C51.6084 84.6165 51.4639 84.4475 51.3152 84.2821C51.1662 84.1166 51.0133 83.955 50.8567 83.7971C50.7 83.6393 50.5396 83.4855 50.3754 83.3356C50.2111 83.1858 50.0433 83.0399 49.8718 82.898C49.7004 82.7566 49.5256 82.6191 49.3474 82.4856C49.1691 82.3526 48.9877 82.2239 48.8031 82.0996C48.6185 81.9757 48.4311 81.8562 48.2408 81.7412C48.0506 81.6261 47.8576 81.5158 47.6618 81.4103C47.466 81.3048 47.2676 81.2043 47.0666 81.1088C46.866 81.0129 46.663 80.922 46.4576 80.836C46.2526 80.7505 46.0454 80.67 45.836 80.5945C45.627 80.5186 45.416 80.448 45.203 80.3829C44.9904 80.3177 44.7764 80.2578 44.561 80.2031C44.3452 80.1483 44.1284 80.099 43.9107 80.055C43.6925 80.011 43.4735 79.9723 43.2537 79.9387C43.0335 79.9055 42.8129 79.8778 42.5919 79.8554C42.3706 79.833 42.1488 79.816 41.9266 79.8044C41.7044 79.7929 41.4822 79.7869 41.26 79.7865C41.0375 79.7857 40.8151 79.7905 40.5929 79.8008C40.3707 79.8112 40.1489 79.827 39.9275 79.8482C39.7062 79.8694 39.4854 79.896 39.2652 79.9279ZM61.1858 95.0668C60.8951 97.4291 60.3502 99.5684 59.4847 101.784C60.3275 101.763 66.3911 102.116 66.6675 101.913L66.716 101.784C67.2195 99.9232 67.8855 98.5356 68.9872 96.9561C66.1903 96.6948 63.8712 95.7147 61.1858 95.0668ZM83.77 95.0668C77.9754 95.8178 74.328 99.4581 72.0802 104.563C79.0802 108.839 82.1444 115.038 82.0329 123.006C83.9684 123.102 85.8775 123.258 87.8077 123.006C105.87 119.093 100.763 93.0066 83.77 95.0668ZM61.63 108.191C61.4074 108.199 61.185 108.212 60.9628 108.231C60.7407 108.249 60.5191 108.273 60.2981 108.302C60.0771 108.332 59.8571 108.367 59.6381 108.407C59.4187 108.448 59.2006 108.493 58.9836 108.544C58.7666 108.595 58.551 108.652 58.3368 108.713C58.1226 108.775 57.91 108.842 57.699 108.914C57.488 108.986 57.279 109.063 57.072 109.146C56.865 109.228 56.66 109.315 56.457 109.408C56.2544 109.5 56.054 109.597 55.8558 109.7C55.658 109.802 55.4626 109.909 55.2696 110.021C55.077 110.133 54.8872 110.25 54.7001 110.371C54.5131 110.492 54.3291 110.618 54.1481 110.748C53.9671 110.878 53.7894 111.013 53.6152 111.152C53.441 111.291 53.2703 111.434 53.1033 111.581C52.9363 111.729 52.7728 111.88 52.613 112.036C52.4531 112.191 52.2973 112.35 52.1454 112.513C51.9936 112.676 51.8457 112.843 51.7019 113.014C51.558 113.184 51.4185 113.358 51.2835 113.535C51.1484 113.712 51.0175 113.893 50.8909 114.076C50.7646 114.26 50.6429 114.447 50.5258 114.636C50.4087 114.826 50.2964 115.018 50.1889 115.213C50.081 115.409 49.9781 115.606 49.8802 115.807C49.7823 116.007 49.6892 116.209 49.6009 116.414C49.513 116.619 49.4301 116.826 49.3522 117.034C49.2742 117.243 49.2017 117.454 49.1346 117.667C49.067 117.879 49.0047 118.093 48.9475 118.308C48.8904 118.524 48.8389 118.74 48.7929 118.958C48.7465 119.176 48.7056 119.395 48.67 119.615C48.6345 119.835 48.6043 120.056 48.5795 120.278C48.5547 120.499 48.5354 120.721 48.5214 120.944C48.5078 121.166 48.4996 121.389 48.4968 121.612C48.494 121.835 48.4966 122.058 48.5046 122.28C48.5126 122.503 48.5262 122.725 48.5453 122.947C48.5645 123.17 48.5889 123.391 48.6185 123.612C48.6484 123.833 48.6838 124.053 48.7246 124.272C48.7653 124.491 48.8115 124.709 48.863 124.926C48.9146 125.143 48.9713 125.358 49.0333 125.572C49.0952 125.786 49.1625 125.999 49.2353 126.21C49.3076 126.421 49.3851 126.629 49.4678 126.836C49.5506 127.043 49.6383 127.248 49.731 127.451C49.8241 127.653 49.922 127.854 50.0247 128.051C50.1274 128.249 50.2349 128.444 50.3472 128.637C50.4595 128.83 50.5764 129.019 50.6978 129.206C50.8193 129.393 50.9454 129.577 51.0761 129.757C51.2067 129.938 51.3418 130.115 51.4813 130.289C51.6203 130.463 51.7638 130.634 51.9117 130.801C52.0595 130.968 52.2112 131.131 52.3666 131.29C52.5225 131.449 52.6821 131.605 52.8456 131.757C53.009 131.908 53.176 132.056 53.3467 132.199C53.5173 132.343 53.6913 132.482 53.8688 132.617C54.0462 132.752 54.2268 132.882 54.4106 133.008C54.5944 133.134 54.7815 133.255 54.9717 133.372C55.1615 133.489 55.3541 133.601 55.5495 133.708C55.7445 133.816 55.9423 133.918 56.1429 134.016C56.3431 134.113 56.5457 134.206 56.7507 134.294C56.9557 134.381 57.1627 134.464 57.3717 134.541C57.5807 134.619 57.7915 134.691 58.0041 134.758C58.2167 134.825 58.4309 134.887 58.6467 134.943C58.8621 135 59.0789 135.051 59.2971 135.097C59.5153 135.143 59.7344 135.183 59.9546 135.219C60.1748 135.254 60.3956 135.284 60.617 135.308C60.8384 135.332 61.0603 135.351 61.2829 135.364C61.5055 135.377 61.7283 135.385 61.9513 135.388C62.1743 135.39 62.397 135.387 62.6196 135.379C62.8418 135.37 63.0636 135.356 63.285 135.337C63.5068 135.318 63.7277 135.293 63.9479 135.262C64.1681 135.232 64.3875 135.196 64.6061 135.156C64.8247 135.115 65.0421 135.068 65.2582 135.017C65.4744 134.965 65.6892 134.908 65.9026 134.846C66.116 134.783 66.3278 134.716 66.538 134.644C66.7482 134.571 66.9566 134.493 67.1632 134.411C67.3694 134.328 67.5736 134.24 67.7758 134.147C67.9776 134.054 68.1772 133.957 68.3746 133.854C68.5716 133.752 68.7662 133.644 68.9584 133.532C69.1503 133.42 69.3393 133.303 69.5255 133.182C69.7121 133.06 69.8953 132.934 70.0751 132.804C70.2554 132.673 70.4322 132.539 70.6056 132.4C70.7791 132.261 70.9491 132.117 71.1157 131.97C71.282 131.823 71.4446 131.671 71.6037 131.516C71.7627 131.361 71.918 131.201 72.0694 131.038C72.2205 130.875 72.3675 130.709 72.5106 130.539C72.6536 130.369 72.7925 130.195 72.9272 130.018C73.0618 129.841 73.1919 129.661 73.3174 129.477C73.4433 129.294 73.5643 129.108 73.6806 128.918C73.7973 128.729 73.9092 128.537 74.0163 128.342C74.1238 128.147 74.2261 127.95 74.3232 127.75C74.4207 127.55 74.5134 127.348 74.6013 127.144C74.6889 126.939 74.7714 126.733 74.8489 126.525C74.926 126.316 74.9982 126.106 75.0653 125.894C75.1324 125.682 75.1944 125.469 75.2511 125.254C75.3079 125.039 75.3592 124.823 75.4052 124.605C75.4515 124.387 75.4923 124.169 75.5274 123.95C75.563 123.73 75.593 123.509 75.6173 123.288C75.6421 123.067 75.6613 122.846 75.6749 122.624C75.6885 122.403 75.6967 122.18 75.6995 121.958C75.7023 121.736 75.6997 121.513 75.6917 121.291C75.6837 121.069 75.6701 120.847 75.6509 120.626C75.6321 120.404 75.6078 120.183 75.5778 119.963C75.5482 119.742 75.5131 119.523 75.4723 119.304C75.4319 119.086 75.3862 118.868 75.335 118.652C75.2835 118.436 75.2269 118.221 75.1654 118.007C75.1034 117.794 75.0365 117.582 74.9646 117.371C74.8923 117.161 74.8149 116.952 74.7326 116.746C74.6503 116.539 74.563 116.335 74.4707 116.133C74.378 115.93 74.2807 115.731 74.1788 115.533C74.0765 115.336 73.9694 115.141 73.8575 114.949C73.746 114.757 73.6297 114.567 73.5086 114.381C73.3875 114.194 73.2618 114.01 73.1316 113.83C73.0017 113.65 72.8674 113.473 72.7288 113.299C72.5901 113.125 72.4472 112.955 72.3002 112.788C72.1531 112.621 72.0021 112.458 71.847 112.299C71.692 112.14 71.5331 111.984 71.3705 111.833C71.2079 111.681 71.0414 111.534 70.8712 111.391C70.7013 111.247 70.5281 111.108 70.3515 110.973C70.1749 110.838 69.9948 110.707 69.8114 110.581C69.6284 110.455 69.4424 110.334 69.2534 110.217C69.0643 110.1 68.8725 109.988 68.6779 109.88C68.4833 109.773 68.2861 109.67 68.0863 109.572C67.8865 109.474 67.6845 109.381 67.4803 109.293C67.2761 109.205 67.0699 109.122 66.8617 109.045C66.6535 108.967 66.4435 108.894 66.2317 108.826C66.0199 108.759 65.8065 108.696 65.5915 108.639C65.3769 108.582 65.1607 108.53 64.943 108.484C64.7256 108.437 64.5072 108.396 64.2878 108.361C64.0684 108.325 63.8482 108.294 63.6272 108.269C63.4063 108.244 63.1849 108.225 62.9631 108.211C62.7413 108.196 62.5191 108.188 62.2965 108.184C62.0744 108.181 61.8522 108.183 61.63 108.191ZM18.7814 131.692C18.56 131.716 18.3392 131.746 18.119 131.78C17.8992 131.815 17.6802 131.855 17.462 131.901C17.2443 131.946 17.0277 131.997 16.8123 132.053C16.5965 132.109 16.3825 132.171 16.1703 132.238C15.9577 132.304 15.7469 132.376 15.5379 132.454C15.3289 132.531 15.1221 132.613 14.9175 132.7C14.7125 132.788 14.5099 132.88 14.3097 132.977C14.1095 133.075 13.9117 133.177 13.7163 133.284C13.5209 133.391 13.3283 133.503 13.1385 133.62C12.949 133.737 12.7624 133.858 12.5786 133.983C12.3948 134.109 12.2142 134.239 12.0367 134.374C11.8593 134.509 11.6853 134.648 11.5146 134.791C11.3444 134.934 11.1776 135.082 11.0141 135.233C10.8511 135.385 10.6916 135.54 10.5358 135.699C10.3803 135.859 10.2289 136.022 10.0814 136.189C9.93358 136.356 9.79012 136.526 9.65106 136.7C9.512 136.874 9.37733 137.051 9.24705 137.231C9.11638 137.412 8.9905 137.596 8.86942 137.782C8.74794 137.969 8.63125 138.159 8.51936 138.351C8.40707 138.544 8.29978 138.739 8.19748 138.937C8.09518 139.135 7.99767 139.335 7.90496 139.537C7.81265 139.74 7.72514 139.945 7.64242 140.151C7.5601 140.358 7.48297 140.567 7.41104 140.778C7.33871 140.989 7.27178 141.201 7.21024 141.415C7.1483 141.629 7.09195 141.844 7.0412 142.061C6.99005 142.278 6.9443 142.496 6.90394 142.715C6.86358 142.934 6.82861 143.154 6.79904 143.374C6.76947 143.595 6.74549 143.817 6.72711 144.038C6.70833 144.26 6.69514 144.482 6.68755 144.705C6.67996 144.928 6.67796 145.15 6.68155 145.373C6.68475 145.596 6.69354 145.818 6.70793 146.04C6.72231 146.263 6.74209 146.484 6.76727 146.706C6.79244 146.927 6.82321 147.148 6.85958 147.368C6.89554 147.587 6.9369 147.806 6.98366 148.023C7.03081 148.241 7.08316 148.458 7.14071 148.673C7.19825 148.888 7.26099 149.102 7.32892 149.314C7.39726 149.526 7.47058 149.736 7.54891 149.944C7.62723 150.153 7.71075 150.359 7.79946 150.564C7.88818 150.768 7.98189 150.97 8.08059 151.17C8.17889 151.369 8.28219 151.566 8.39049 151.761C8.49878 151.955 8.61187 152.147 8.72976 152.336C8.84764 152.525 8.96992 152.711 9.0966 152.894C9.22367 153.077 9.35515 153.257 9.49102 153.434C9.62688 153.61 9.76695 153.783 9.91121 153.953C10.0555 154.122 10.2039 154.288 10.3566 154.451C10.5088 154.613 10.6651 154.772 10.8253 154.926C10.986 155.08 11.15 155.231 11.3174 155.378C11.4853 155.524 11.6565 155.666 11.8311 155.804C12.0062 155.943 12.1842 156.076 12.3652 156.205C12.5466 156.335 12.7311 156.46 12.9185 156.58C13.1059 156.7 13.2963 156.815 13.4897 156.926C13.6827 157.037 13.8785 157.143 14.0771 157.244C14.2754 157.345 14.4762 157.442 14.6796 157.533C14.8826 157.624 15.0878 157.71 15.2952 157.791C15.5026 157.873 15.7118 157.949 15.9227 158.02C16.1341 158.091 16.3469 158.156 16.5611 158.216C16.7753 158.277 16.9911 158.332 17.2085 158.381C17.4255 158.431 17.6437 158.476 17.8631 158.514C18.082 158.553 18.302 158.587 18.523 158.615C18.744 158.643 18.9656 158.666 19.1878 158.683C19.4095 158.701 19.6317 158.712 19.8543 158.718C20.0769 158.725 20.2997 158.725 20.5227 158.721C20.7452 158.716 20.9676 158.706 21.1898 158.69C21.412 158.674 21.6336 158.653 21.8546 158.626C22.0739 158.6 22.2925 158.568 22.5103 158.531C22.7281 158.494 22.9449 158.452 23.1607 158.404C23.3765 158.356 23.5909 158.304 23.8039 158.245C24.0173 158.187 24.2291 158.123 24.4392 158.055C24.649 157.986 24.8572 157.913 25.0638 157.834C25.27 157.755 25.4744 157.672 25.677 157.583C25.8792 157.494 26.0792 157.401 26.2771 157.302C26.4749 157.204 26.6703 157.1 26.8633 156.992C27.0559 156.884 27.2457 156.771 27.4327 156.654C27.6201 156.537 27.8046 156.415 27.986 156.289C28.167 156.162 28.345 156.032 28.5201 155.897C28.6947 155.762 28.8661 155.622 29.0344 155.479C29.2026 155.335 29.367 155.188 29.5277 155.036C29.6887 154.885 29.8458 154.73 29.9988 154.57C30.1523 154.411 30.3015 154.248 30.4466 154.082C30.592 153.916 30.7333 153.746 30.8704 153.572C31.007 153.399 31.1397 153.222 31.2684 153.042C31.3967 152.862 31.5205 152.68 31.64 152.494C31.7591 152.308 31.8738 152.119 31.9841 151.927C32.0944 151.736 32.1999 151.542 32.3006 151.345C32.4013 151.149 32.497 150.95 32.5877 150.748C32.6788 150.547 32.7649 150.343 32.8461 150.137C32.9268 149.932 33.0027 149.725 33.0738 149.515C33.1446 149.306 33.2101 149.095 33.2704 148.883C33.3312 148.67 33.3865 148.456 33.4365 148.241C33.4868 148.026 33.5318 147.81 33.5713 147.592C33.6105 147.375 33.6445 147.157 33.6732 146.937C33.7024 146.718 33.726 146.499 33.744 146.278C33.762 146.058 33.7745 145.838 33.7817 145.617C33.7893 145.396 33.7913 145.175 33.7877 144.954C33.7841 144.733 33.7751 144.513 33.7608 144.292C33.7468 144.071 33.7272 143.851 33.702 143.632C33.6768 143.413 33.6465 143.194 33.6109 142.976C33.5749 142.757 33.5338 142.54 33.4874 142.325C33.4411 142.109 33.3895 141.894 33.3328 141.68C33.276 141.467 33.2139 141.255 33.1464 141.044C33.0792 140.834 33.0069 140.625 32.9294 140.418C32.8522 140.211 32.7699 140.006 32.6824 139.804C32.5949 139.601 32.5024 139.4 32.4049 139.201C32.3078 139.003 32.2059 138.807 32.0992 138.614C31.9921 138.42 31.8804 138.23 31.7641 138.042C31.6482 137.854 31.5275 137.669 31.4021 137.487C31.277 137.305 31.1475 137.126 31.0136 136.95C30.8794 136.774 30.7411 136.602 30.5988 136.433C30.4566 136.264 30.3101 136.099 30.1595 135.937C30.0092 135.775 29.855 135.617 29.6967 135.463C29.5385 135.309 29.3764 135.158 29.2106 135.012C29.0452 134.866 28.8761 134.724 28.7035 134.586C28.5313 134.447 28.3554 134.314 28.176 134.184C27.997 134.055 27.815 133.93 27.6299 133.809C27.4449 133.689 27.2569 133.573 27.0659 133.461C26.8749 133.35 26.6815 133.244 26.4856 133.142C26.2894 133.04 26.091 132.943 25.8904 132.85C25.6894 132.758 25.4864 132.671 25.2814 132.588C25.0764 132.506 24.8694 132.429 24.6604 132.357C24.4518 132.285 24.2414 132.218 24.0292 132.156C23.8171 132.094 23.6035 132.038 23.3885 131.986C23.1735 131.935 22.9575 131.889 22.7405 131.848C22.5235 131.807 22.3055 131.771 22.0865 131.741C21.8676 131.711 21.648 131.686 21.4278 131.666C21.208 131.647 20.9876 131.633 20.7666 131.625C20.546 131.616 20.3253 131.613 20.1043 131.615C19.8833 131.617 19.6625 131.624 19.4419 131.637C19.2213 131.65 19.0011 131.669 18.7814 131.692ZM84.4611 131.58C84.2473 131.612 84.0343 131.65 83.8222 131.693C83.6104 131.737 83.3996 131.786 83.1898 131.839C82.98 131.893 82.7718 131.951 82.5652 132.015C82.3582 132.078 82.153 132.147 81.9496 132.221C81.7462 132.294 81.5446 132.373 81.3448 132.457C81.1454 132.54 80.948 132.628 80.7525 132.721C80.5571 132.815 80.3641 132.913 80.1735 133.015C79.9829 133.118 79.7951 133.225 79.6101 133.337C79.4246 133.449 79.242 133.565 79.0622 133.685C78.8828 133.806 78.7063 133.931 78.5329 134.061C78.3591 134.19 78.1886 134.323 78.0216 134.46C77.8546 134.598 77.6909 134.74 77.5307 134.885C77.3708 135.031 77.2144 135.18 77.0613 135.333C76.9087 135.487 76.7596 135.643 76.6142 135.804C76.4691 135.964 76.3281 136.128 76.191 136.296C76.0535 136.463 75.9205 136.633 75.7918 136.807C75.6627 136.981 75.538 137.158 75.4177 137.338C75.2975 137.518 75.1818 137.701 75.0707 137.886C74.9592 138.072 74.8525 138.26 74.7506 138.451C74.6483 138.641 74.5508 138.835 74.4581 139.03C74.3654 139.226 74.2775 139.423 74.1943 139.623C74.1112 139.823 74.0331 140.025 73.96 140.229C73.8864 140.432 73.8181 140.637 73.755 140.844C73.6918 141.051 73.6337 141.26 73.5805 141.469C73.5274 141.679 73.4794 141.89 73.4367 142.102C73.3939 142.315 73.3564 142.527 73.324 142.741C73.2916 142.955 73.2645 143.17 73.2425 143.385C73.2205 143.6 73.2039 143.816 73.1927 144.032C73.1811 144.249 73.1749 144.465 73.1741 144.681C73.1733 144.898 73.1779 145.114 73.1879 145.33C73.1975 145.546 73.2123 145.762 73.2323 145.978C73.2526 146.193 73.2782 146.408 73.309 146.622C73.3398 146.836 73.3757 147.049 73.4169 147.262C73.4581 147.474 73.5044 147.685 73.556 147.896C73.6071 148.106 73.6635 148.315 73.725 148.523C73.7869 148.73 73.8537 148.936 73.9252 149.14C73.9967 149.344 74.0732 149.546 74.1548 149.747C74.2367 149.947 74.3232 150.146 74.4143 150.342C74.5054 150.538 74.6013 150.732 74.702 150.923C74.8027 151.115 74.908 151.304 75.0179 151.49C75.1278 151.677 75.2421 151.861 75.3608 152.041C75.4799 152.222 75.6032 152.4 75.7306 152.575C75.8581 152.75 75.9898 152.921 76.1257 153.09C76.2615 153.258 76.4016 153.423 76.5458 153.585C76.6897 153.746 76.8374 153.904 76.9888 154.059C77.1407 154.213 77.2961 154.364 77.4552 154.51C77.6142 154.657 77.7766 154.8 77.9425 154.939C78.1083 155.078 78.2776 155.213 78.4502 155.343C78.6228 155.474 78.7985 155.6 78.9771 155.722C79.1557 155.844 79.3373 155.962 79.5219 156.075C79.7066 156.188 79.8936 156.297 80.083 156.401C80.2728 156.505 80.465 156.604 80.6596 156.699C80.8542 156.793 81.0511 156.883 81.2501 156.968C81.4491 157.054 81.6501 157.134 81.8531 157.209C82.0561 157.284 82.2607 157.355 82.4669 157.42C82.6731 157.485 82.8809 157.545 83.0903 157.6C83.2993 157.655 83.5097 157.706 83.7215 157.751C83.9332 157.795 84.146 157.835 84.3598 157.869C84.5732 157.904 84.7874 157.933 85.0024 157.957C85.2178 157.981 85.4334 158 85.6492 158.014C85.8654 158.027 86.0816 158.036 86.2977 158.038C86.5143 158.042 86.7307 158.039 86.9469 158.032C87.1631 158.024 87.3791 158.011 87.5949 157.993C87.8103 157.975 88.0253 157.952 88.2398 157.923C88.4572 157.895 88.6736 157.86 88.889 157.82C89.1044 157.781 89.3188 157.736 89.5322 157.685C89.7456 157.635 89.9576 157.58 90.1682 157.519C90.3788 157.459 90.5878 157.393 90.7952 157.321C91.0025 157.25 91.208 157.174 91.4114 157.093C91.6152 157.012 91.8166 156.926 92.0156 156.835C92.215 156.744 92.412 156.648 92.6066 156.546C92.8012 156.446 92.9932 156.34 93.1826 156.23C93.372 156.12 93.5585 156.005 93.7419 155.885C93.9257 155.765 94.1063 155.641 94.2838 155.513C94.4616 155.384 94.6358 155.251 94.8064 155.114C94.9775 154.977 95.1451 154.836 95.3094 154.691C95.4732 154.545 95.6334 154.396 95.7901 154.242C95.9467 154.089 96.0996 153.932 96.2486 153.771C96.3973 153.61 96.5419 153.446 96.6826 153.278C96.8237 153.11 96.9604 152.939 97.0926 152.764C97.2249 152.589 97.3528 152.411 97.4762 152.23C97.5997 152.049 97.7186 151.865 97.8329 151.678C97.9472 151.491 98.0569 151.302 98.162 151.109C98.2671 150.917 98.3672 150.722 98.4623 150.525C98.5578 150.327 98.6483 150.128 98.7338 149.926C98.8193 149.724 98.8998 149.52 98.9754 149.314C99.0509 149.109 99.1212 148.901 99.1864 148.692C99.2515 148.483 99.3117 148.272 99.3668 148.06C99.4216 147.848 99.4709 147.634 99.5148 147.42C99.5592 147.205 99.5982 146.99 99.6317 146.773C99.6653 146.556 99.6937 146.339 99.7169 146.121C99.7396 145.903 99.757 145.685 99.769 145.466C99.781 145.247 99.7876 145.028 99.7888 144.809C99.7904 144.59 99.7864 144.371 99.7768 144.152C99.7672 143.933 99.7522 143.714 99.7318 143.496C99.7115 143.278 99.6857 143.06 99.6545 142.843C99.6233 142.626 99.587 142.41 99.5454 142.195C99.5035 141.98 99.4563 141.766 99.404 141.553C99.3516 141.34 99.2941 141.129 99.2313 140.919C99.1682 140.709 99.1003 140.5 99.0275 140.294C98.9544 140.087 98.8761 139.883 98.7926 139.68C98.7094 139.477 98.6213 139.276 98.5282 139.078C98.4351 138.88 98.3372 138.684 98.2345 138.49C98.1314 138.297 98.0239 138.106 97.912 137.918C97.7997 137.73 97.6828 137.544 97.5614 137.362C97.4399 137.179 97.314 136.999 97.1837 136.823C97.0534 136.647 96.919 136.474 96.7803 136.305C96.6413 136.135 96.4984 135.969 96.3517 135.807C96.2047 135.644 96.0536 135.485 95.8986 135.33C95.7439 135.175 95.5853 135.024 95.4226 134.876C95.2604 134.729 95.0946 134.586 94.9251 134.447C94.7557 134.308 94.5831 134.173 94.4072 134.043C94.231 133.912 94.0518 133.786 93.8696 133.664C93.6873 133.542 93.5021 133.425 93.3139 133.313C93.1257 133.2 92.9349 133.092 92.7415 132.989C92.548 132.886 92.3522 132.788 92.154 132.694C91.9558 132.601 91.7554 132.513 91.5528 132.43C91.3502 132.346 91.1456 132.268 90.939 132.194C90.7324 132.12 90.5242 132.052 90.3144 131.989C90.1046 131.926 89.8934 131.868 89.6808 131.815C89.4678 131.763 89.2539 131.715 89.0389 131.673C88.8239 131.631 88.6079 131.594 88.3909 131.563C88.1739 131.531 87.9563 131.505 87.7381 131.485C87.52 131.464 87.3014 131.449 87.0824 131.439C86.8634 131.429 86.6444 131.424 86.4254 131.426C86.2064 131.426 85.9874 131.433 85.7684 131.444C85.5495 131.456 85.3311 131.473 85.1133 131.496C84.8951 131.518 84.6777 131.546 84.4611 131.58ZM46.4576 134.092C43.8855 135.943 41.332 138.053 39.7136 140.826C39.9527 142.534 40.0942 144.185 40.0726 145.909L42.4787 144.578C44.3746 143.663 46.3886 142.738 48.4572 142.293C49.0219 140.89 49.6057 139.493 50.1464 138.081C49.3042 137.232 47.2416 134.541 46.4576 134.092ZM55.9487 140.826C55.7563 141.237 55.5075 141.621 55.5807 142.089C61.8608 143.875 61.4747 143.832 66.5224 147.407L66.716 147.276C66.6465 145.382 66.6795 143.494 66.716 141.599C63.1225 141.574 59.4235 142.008 55.9487 140.826ZM51.205 148.581C50.99 148.601 50.7758 148.627 50.5624 148.657C50.349 148.687 50.1362 148.723 49.924 148.764C49.7122 148.805 49.5016 148.851 49.2922 148.902C49.0828 148.953 48.8746 149.01 48.6676 149.071C48.4606 149.132 48.2554 149.199 48.052 149.27C47.8486 149.342 47.647 149.418 47.4472 149.5C47.2474 149.581 47.0498 149.667 46.8544 149.758C46.6586 149.849 46.4654 149.945 46.2748 150.046C46.0837 150.146 45.8953 150.252 45.7095 150.362C45.5241 150.472 45.3413 150.586 45.161 150.705C44.9808 150.823 44.8038 150.946 44.63 151.074C44.4557 151.201 44.2849 151.333 44.1175 151.469C43.95 151.605 43.786 151.745 43.6253 151.888C43.4647 152.033 43.3077 152.18 43.1542 152.332C43.0008 152.484 42.8511 152.639 42.7052 152.798C42.5594 152.957 42.4175 153.119 42.2797 153.286C42.1418 153.451 42.0081 153.621 41.8786 153.793C41.7492 153.966 41.6239 154.141 41.5028 154.32C41.3821 154.499 41.2656 154.68 41.1533 154.864C41.0415 155.049 40.9342 155.236 40.8315 155.426C40.7284 155.615 40.6303 155.807 40.5371 156.002C40.4436 156.196 40.3549 156.393 40.271 156.591C40.1875 156.79 40.1088 156.991 40.0348 157.194C39.9609 157.396 39.892 157.601 39.828 157.807C39.7641 158.013 39.7054 158.221 39.6518 158.429C39.5983 158.638 39.5497 158.848 39.5061 159.06C39.463 159.271 39.4248 159.484 39.3917 159.697C39.3589 159.91 39.3313 160.124 39.3089 160.338C39.2866 160.553 39.2694 160.768 39.2574 160.983C39.2454 161.199 39.2388 161.414 39.2376 161.63C39.2364 161.846 39.2404 162.061 39.2496 162.277C39.2588 162.492 39.2734 162.707 39.2934 162.922C39.3133 163.137 39.3385 163.352 39.3689 163.565C39.3993 163.778 39.4348 163.991 39.4756 164.203C39.5163 164.415 39.5623 164.626 39.6134 164.835C39.6646 165.045 39.7209 165.253 39.7825 165.46C39.8436 165.667 39.91 165.872 39.9815 166.075C40.053 166.279 40.1293 166.48 40.2105 166.68C40.292 166.88 40.3783 167.078 40.4694 167.274C40.5601 167.469 40.6558 167.662 40.7565 167.853C40.8572 168.044 40.9623 168.232 41.0718 168.418C41.1817 168.604 41.296 168.786 41.4147 168.966C41.5334 169.147 41.6565 169.324 41.7839 169.498C41.9114 169.672 42.0431 169.843 42.1789 170.011C42.3148 170.178 42.4547 170.342 42.5985 170.503C42.7424 170.664 42.8903 170.821 43.0421 170.974C43.1936 171.128 43.3488 171.277 43.5079 171.423C43.6665 171.569 43.8289 171.711 43.9952 171.849C44.161 171.987 44.3301 172.12 44.5023 172.25C44.6749 172.379 44.8505 172.505 45.0292 172.626C45.2078 172.747 45.3892 172.863 45.5734 172.975C45.7581 173.087 45.9451 173.195 46.1345 173.298C46.3243 173.4 46.5163 173.499 46.7105 173.592C46.9051 173.686 47.1017 173.774 47.3004 173.858C47.4994 173.942 47.7002 174.02 47.9028 174.094C48.1054 174.168 48.3096 174.237 48.5154 174.301C48.7216 174.365 48.9292 174.424 49.1382 174.478C49.3472 174.532 49.5574 174.58 49.7687 174.624C49.9797 174.667 50.1919 174.705 50.4053 174.738C50.6183 174.771 50.8321 174.799 51.0467 174.821C51.2613 174.844 51.4763 174.861 51.6917 174.873C51.9071 174.885 52.1227 174.892 52.3384 174.893C52.5542 174.894 52.7698 174.891 52.9852 174.881C53.2006 174.872 53.4158 174.858 53.6308 174.838C53.8458 174.818 54.06 174.793 54.2734 174.763C54.4871 174.732 54.6999 174.697 54.9117 174.656C55.1239 174.615 55.3347 174.569 55.5441 174.518C55.7539 174.467 55.9623 174.411 56.1693 174.349C56.3763 174.288 56.5815 174.222 56.7849 174.15C56.9887 174.079 57.1905 174.002 57.3903 173.921C57.5901 173.84 57.7879 173.753 57.9837 173.662C58.1795 173.571 58.3728 173.476 58.5634 173.375C58.7544 173.274 58.9428 173.169 59.1286 173.06C59.3144 172.95 59.4975 172.836 59.6777 172.717C59.8579 172.598 60.0351 172.475 60.2094 172.347C60.3832 172.22 60.554 172.088 60.7219 171.952C60.8897 171.816 61.0539 171.676 61.2146 171.532C61.3752 171.389 61.5325 171.241 61.6863 171.089C61.8398 170.938 61.9894 170.782 62.1353 170.623C62.2812 170.464 62.423 170.302 62.5609 170.136C62.6987 169.97 62.8326 169.801 62.9625 169.628C63.092 169.455 63.2172 169.28 63.3383 169.101C63.4594 168.923 63.5759 168.741 63.6878 168.556C63.8001 168.372 63.9076 168.185 64.0103 167.995C64.1134 167.805 64.2117 167.613 64.3052 167.419C64.3983 167.225 64.4868 167.028 64.5707 166.829C64.6546 166.63 64.7336 166.429 64.8075 166.226C64.8814 166.024 64.9503 165.819 65.0143 165.613C65.0782 165.407 65.137 165.199 65.1905 164.99C65.2445 164.781 65.293 164.571 65.3362 164.36C65.3797 164.148 65.4179 163.936 65.4507 163.723C65.4838 163.51 65.5116 163.296 65.534 163.081C65.5564 162.866 65.5735 162.651 65.5855 162.436C65.5975 162.22 65.6041 162.005 65.6053 161.789C65.6065 161.573 65.6025 161.357 65.5933 161.142C65.5841 160.926 65.5695 160.711 65.5496 160.496C65.5296 160.281 65.5044 160.067 65.474 159.853C65.4437 159.64 65.4081 159.427 65.3673 159.215C65.3266 159.003 65.2806 158.792 65.2295 158.583C65.1783 158.373 65.122 158.165 65.0604 157.958C64.9989 157.751 64.9326 157.546 64.8614 157.342C64.7899 157.138 64.7134 156.937 64.6319 156.737C64.5503 156.537 64.464 156.339 64.3729 156.144C64.2818 155.948 64.1861 155.755 64.0858 155.564C63.9851 155.373 63.8798 155.185 63.7699 154.999C63.66 154.813 63.5457 154.63 63.427 154.45C63.308 154.27 63.1847 154.093 63.0572 153.919C62.9297 153.744 62.798 153.574 62.6622 153.406C62.5263 153.238 62.3864 153.074 62.2426 152.913C62.0983 152.753 61.9505 152.596 61.799 152.442C61.6472 152.289 61.4917 152.139 61.3327 151.993C61.1736 151.847 61.0112 151.705 60.8454 151.567C60.6791 151.429 60.5099 151.296 60.3376 151.166C60.165 151.037 59.9892 150.911 59.8102 150.79C59.6315 150.67 59.4501 150.553 59.2659 150.441C59.0813 150.329 58.8941 150.222 58.7042 150.119C58.5148 150.016 58.3228 149.917 58.1282 149.824C57.9336 149.731 57.7368 149.642 57.5378 149.558C57.3392 149.475 57.1384 149.396 56.9354 149.322C56.7328 149.248 56.5284 149.179 56.3222 149.115C56.116 149.052 55.9084 148.993 55.6994 148.939C55.4904 148.886 55.2802 148.837 55.0688 148.794C54.8574 148.75 54.645 148.712 54.4316 148.679C54.2182 148.646 54.0042 148.619 53.7896 148.596C53.575 148.574 53.36 148.557 53.1447 148.545C52.9293 148.533 52.7137 148.527 52.4979 148.526C52.2821 148.524 52.0663 148.528 51.8505 148.538C51.6351 148.547 51.4199 148.561 51.205 148.581ZM24.6724 172.186C24.4482 172.195 24.2243 172.209 24.0005 172.229C23.7767 172.249 23.5537 172.274 23.3315 172.305C23.1089 172.336 22.8874 172.373 22.6668 172.415C22.4462 172.456 22.2266 172.503 22.008 172.556C21.7898 172.609 21.573 172.667 21.3576 172.73C21.1423 172.793 20.9285 172.862 20.7163 172.936C20.5045 173.01 20.2945 173.089 20.0863 173.172C19.8781 173.257 19.6721 173.346 19.4683 173.44C19.2645 173.535 19.0631 173.634 18.8641 173.738C18.6651 173.843 18.4689 173.952 18.2755 174.066C18.082 174.179 17.8914 174.298 17.7036 174.421C17.5158 174.544 17.3312 174.672 17.1497 174.805C16.9683 174.937 16.7903 175.074 16.6157 175.215C16.441 175.356 16.27 175.501 16.1026 175.65C15.9351 175.8 15.7713 175.954 15.611 176.111C15.4512 176.269 15.2952 176.43 15.1429 176.596C14.9911 176.761 14.8432 176.93 14.6993 177.102C14.5559 177.275 14.4166 177.451 14.2815 177.63C14.1465 177.81 14.0158 177.992 13.8895 178.178C13.7636 178.364 13.6424 178.553 13.5257 178.745C13.409 178.936 13.2969 179.131 13.1894 179.328C13.0823 179.525 12.98 179.725 12.8825 179.928C12.7854 180.13 12.6931 180.335 12.6056 180.542C12.5185 180.749 12.4363 180.957 12.3592 181.168C12.2825 181.379 12.2108 181.592 12.144 181.806C12.0777 182.021 12.0166 182.237 11.9606 182.454C11.9047 182.672 11.8541 182.891 11.809 183.111C11.7638 183.331 11.724 183.551 11.6897 183.773C11.6557 183.995 11.6269 184.218 11.6034 184.441C11.5802 184.665 11.5624 184.889 11.55 185.113C11.538 185.337 11.5314 185.561 11.5302 185.786C11.5286 186.011 11.5328 186.235 11.5428 186.459C11.5528 186.683 11.5682 186.907 11.589 187.131C11.6098 187.354 11.6359 187.577 11.6675 187.8C11.6995 188.022 11.7368 188.244 11.7796 188.464C11.8223 188.684 11.8705 188.903 11.924 189.122C11.9772 189.34 12.0359 189.556 12.1003 189.771C12.1646 189.987 12.2339 190.2 12.3083 190.412C12.383 190.624 12.4629 190.834 12.548 191.042C12.6331 191.249 12.7233 191.455 12.8184 191.658C12.9135 191.862 13.0136 192.063 13.1187 192.261C13.2234 192.46 13.3331 192.655 13.4478 192.848C13.5624 193.042 13.6817 193.232 13.8056 193.419C13.9299 193.606 14.0586 193.79 14.1916 193.971C14.3247 194.152 14.462 194.33 14.6034 194.504C14.7453 194.678 14.8913 194.848 15.0416 195.015C15.1919 195.182 15.3461 195.345 15.5044 195.505C15.6626 195.664 15.8246 195.819 15.9905 195.971C16.1563 196.122 16.3258 196.269 16.4988 196.412C16.6718 196.555 16.8484 196.694 17.0287 196.828C17.2085 196.963 17.3915 197.092 17.5777 197.218C17.7643 197.343 17.9538 197.464 18.146 197.579C18.3382 197.696 18.5332 197.807 18.731 197.913C18.9288 198.02 19.129 198.121 19.3316 198.218C19.5342 198.314 19.7392 198.406 19.9466 198.492C20.1536 198.579 20.3628 198.66 20.5742 198.736C20.7856 198.812 20.9986 198.883 21.2132 198.949C21.4278 199.015 21.644 199.075 21.8618 199.13C22.0795 199.185 22.2985 199.234 22.5187 199.279C22.7389 199.323 22.9601 199.362 23.1823 199.395C23.4041 199.429 23.6266 199.457 23.85 199.479C24.0734 199.501 24.2974 199.518 24.522 199.53C24.7461 199.541 24.9705 199.547 25.1951 199.547C25.4197 199.548 25.6441 199.543 25.8682 199.532C26.0912 199.521 26.314 199.505 26.5366 199.483C26.7588 199.462 26.9806 199.435 27.202 199.402C27.4229 199.37 27.6429 199.332 27.8619 199.289C28.0813 199.246 28.2993 199.197 28.5159 199.143C28.7329 199.09 28.9483 199.031 29.162 198.966C29.3762 198.902 29.5886 198.832 29.7992 198.757C30.0094 198.683 30.2178 198.603 30.4244 198.518C30.6314 198.432 30.8358 198.342 31.0376 198.247C31.2398 198.152 31.4396 198.053 31.637 197.947C31.8344 197.843 32.029 197.733 32.2209 197.619C32.4131 197.505 32.6021 197.386 32.7879 197.262C32.9741 197.138 33.1571 197.01 33.337 196.878C33.5168 196.745 33.6932 196.608 33.8663 196.467C34.0397 196.326 34.2093 196.181 34.3752 196.031C34.5414 195.881 34.7036 195.728 34.8619 195.57C35.0205 195.413 35.1752 195.251 35.3258 195.086C35.4765 194.921 35.6229 194.753 35.7652 194.581C35.9075 194.409 36.0455 194.233 36.1794 194.054C36.3129 193.875 36.4421 193.693 36.5672 193.508C36.6919 193.322 36.812 193.134 36.9275 192.943C37.0434 192.752 37.1542 192.558 37.2601 192.362C37.3664 192.165 37.4677 191.966 37.5641 191.764C37.6604 191.562 37.7517 191.359 37.838 191.152C37.9243 190.947 38.0056 190.739 38.0819 190.529C38.1583 190.318 38.2292 190.107 38.2947 189.893C38.3607 189.68 38.4214 189.465 38.477 189.248C38.5321 189.032 38.5821 188.814 38.6268 188.595C38.6712 188.376 38.7103 188.156 38.7443 187.935C38.7783 187.715 38.8066 187.493 38.8294 187.271C38.8526 187.048 38.8702 186.826 38.8822 186.603C38.8945 186.38 38.9011 186.157 38.9019 185.933C38.9031 185.71 38.8989 185.487 38.8894 185.263C38.8798 185.04 38.8646 184.817 38.8438 184.595C38.823 184.372 38.7968 184.15 38.7653 183.929C38.7337 183.708 38.6967 183.488 38.6544 183.268C38.612 183.049 38.5645 182.831 38.5117 182.614C38.4586 182.397 38.4002 182.181 38.3367 181.967C38.2732 181.753 38.2044 181.54 38.1305 181.329C38.0566 181.119 37.9774 180.91 37.8931 180.703C37.8088 180.496 37.7195 180.291 37.6252 180.088C37.5313 179.886 37.4322 179.686 37.3279 179.488C37.224 179.29 37.1153 179.095 37.0018 178.903C36.8879 178.711 36.7696 178.521 36.6469 178.335C36.5239 178.148 36.3966 177.964 36.2651 177.784C36.1332 177.604 35.997 177.426 35.8563 177.253C35.7157 177.079 35.571 176.909 35.4223 176.743C35.2733 176.576 35.1204 176.413 34.9638 176.254C34.8067 176.095 34.6461 175.94 34.4819 175.788C34.3172 175.637 34.1492 175.49 33.9777 175.347C33.8059 175.204 33.6309 175.065 33.4527 174.931C33.274 174.796 33.0924 174.666 32.9078 174.541C32.7228 174.415 32.535 174.294 32.3443 174.178C32.1537 174.061 31.9603 173.95 31.7641 173.843C31.5679 173.736 31.3691 173.634 31.1677 173.537C30.9667 173.44 30.7633 173.348 30.5575 173.261C30.3517 173.173 30.1441 173.091 29.9347 173.014C29.7249 172.937 29.5133 172.865 29.2999 172.798C29.0869 172.732 28.8721 172.67 28.6555 172.614C28.4393 172.558 28.222 172.507 28.0034 172.462C27.7844 172.416 27.5646 172.376 27.344 172.342C27.1234 172.307 26.902 172.277 26.6799 172.254C26.4577 172.23 26.2351 172.211 26.0121 172.198C25.7891 172.185 25.5659 172.178 25.3426 172.176C25.1192 172.174 24.8958 172.177 24.6724 172.186Z" fill="#E28E8B"/>
</svg>
