<svg width="175" height="200" viewBox="0 0 175 200" fill="none" xmlns="http://www.w3.org/2000/svg">
<path d="M53.7232 51.593C54.5271 41.8291 58.5806 31.9083 66.6129 25.9283C75.519 19.2976 78.6618 17.6386 83.4509 6.01942C84.2996 3.96013 84.4615 1.12987 86.5339 0.0126368C90.0111 -0.212223 89.8904 2.60615 90.972 5.087C95.8823 16.3496 98.8713 19.1439 108.14 25.615C116.544 31.482 120.362 40.636 122.065 50.4931C131.022 46.2299 141.191 45.0652 150.568 48.7757C157.888 51.6717 158.527 53.0512 166.817 52.5376C169.027 52.4005 173.301 50.7753 174.686 53.2606C175.998 55.6147 172.857 57.4263 171.507 58.8609C161.683 69.3033 166.675 75.1136 163.39 86.378C161.326 93.4558 156.314 99.3688 149.907 102.919C153.203 107.735 158.545 112.481 163.38 115.721C165.207 116.945 173.761 120.592 166.961 122.887C160.895 124.934 155.123 127.16 150.897 132.29C143.777 140.933 138.616 146.845 125.809 146.562C116.083 146.346 109.374 141.791 102.9 134.988C99.4476 138.626 95.033 143.707 92.4841 147.967C93.8253 165.102 95.2413 176.312 89.2345 193.778C88.3633 196.311 87.3693 201.313 83.7308 199.678C81.6418 198.324 82.756 196.328 83.4749 194.539C88.7185 181.49 89.8541 166.474 88.0482 152.591C87.4168 147.737 73.4893 137.197 69.674 134.258C57.0845 146.688 39.5564 149.352 26.9295 135.091C21.9049 129.417 21.0487 126.922 13.5671 124.353C11.6341 123.689 7.76213 122.866 6.29647 121.683C2.1931 118.37 11.8803 114.131 13.7364 112.891C18.1286 109.958 21.6052 106.142 25.0392 102.174C23.3107 100.768 21.3927 99.6511 19.7016 98.172C6.08229 86.2623 14.9291 73.1343 5.40394 61.0758C4.33407 59.7215 0.526235 56.3381 0.171143 55.2473C-0.616222 52.8295 1.45296 51.8179 3.52325 52.0128C10.7837 52.6956 14.661 52.981 21.6939 49.9003C24.0104 48.8855 26.2239 47.5836 28.6633 46.8778C37.3723 44.3594 46.138 47.401 53.7232 51.593ZM87.3762 9.6974C84.7654 15.6728 79.932 22.6322 74.6916 26.5302C72.2325 28.3595 69.612 29.551 67.4045 31.7637C47.5443 51.6669 64.9715 76.4095 84.6196 87.7012C85.2851 80.8628 84.8193 73.8224 85.8112 67.0451C83.3067 64.2438 80.7829 61.472 78.1672 58.7736C76.1616 56.7049 68.8755 51.3927 74.9822 49.4879C78.4482 50.6066 83.4963 57.1184 85.8112 59.9576C85.8133 56.7242 84.7712 35.3018 86.1717 33.9475C87.5845 32.5814 89.5063 33.3284 90.0832 35.0073C90.9036 38.0623 90.6638 43.8024 90.6643 47.0862L90.6595 59.9576L97.2005 53.2145C98.5524 51.8211 100.723 48.7473 102.876 48.6863C104.059 48.6525 105.208 49.8665 105.202 51.0296C105.192 53.177 92.7378 65.0396 90.6595 67.0451C90.1014 73.8476 90.5992 80.9838 89.3477 87.7012C98.9738 83.6388 111.414 72.3193 115.21 62.9377C119.972 51.1683 115.203 36.4927 104.842 29.3228C98.2805 24.7823 94.2275 22.0576 90.2146 14.8178C89.657 13.8113 88.0551 10.2473 87.3762 9.6974ZM32.6639 51.1849C28.6702 51.7113 25.295 54.0301 21.5663 55.4149C17.3883 56.9663 13.4277 57.2887 9.06542 57.709C19.6551 70.898 11.9145 80.912 20.2705 91.5649C22.6052 94.5407 25.788 96.0942 28.3989 98.6395C34.0019 91.273 43.7253 88.762 52.4306 90.9592C51.6224 88.0311 48.2537 85.7161 45.8153 84.1604L45.6199 84.1722C40.9003 84.4898 34.2978 86.6987 30.5546 86.725C27.6025 86.7458 24.0227 80.934 40.9291 79.8887C38.2264 77.2497 35.2336 74.8683 32.3568 72.4194C30.5546 70.8852 25.8495 68.0245 28.635 65.3186C30.8543 63.1626 35.6129 68.6725 37.1245 69.9663C39.6766 72.1506 42.4599 74.216 44.7818 76.6446C44.4106 74.419 41.3858 66.0238 45.6562 65.7475C48.118 65.5885 48.4764 69.4838 48.8327 71.1695L50.1541 77.5292C50.4431 79.0522 50.6856 80.6036 51.0792 82.103C54.933 84.999 57.6015 87.547 57.3152 92.6027C65.4784 96.1462 72.4328 102.525 77.804 109.532C82.2405 115.319 81.2924 113.361 79.0074 117.555C77.9691 119.462 77.4483 121.83 76.5274 123.827C75.4351 126.196 73.9203 128.308 72.7356 130.622C76.825 132.461 82.749 138.833 86.5339 141.82C81.6322 126.112 84.1666 109.293 84.141 93.3288C70.9645 85.9554 57.6143 73.5777 54.3342 58.2697C48.9512 53.5385 39.8534 50.1921 32.6639 51.1849ZM136.943 51.593C131.724 52.0209 126.666 53.6777 122.065 56.1657C121.455 59.3182 120.692 62.535 119.41 65.4846C114.53 76.7179 100.832 88.4616 89.3477 93.3288C89.4086 103.116 88.3606 112.359 88.8414 122.492C89.1431 128.858 90.5618 135.028 91.2508 141.335C93.766 137.486 96.9815 134.238 99.7991 130.622C98.5006 128.402 94.8306 123.465 94.149 121.324C93.6747 119.833 95.1644 118.069 95.6238 116.713C98.3169 108.775 100.863 102.892 108.67 98.2459C115.722 94.0507 112.641 95.7611 117.714 89.2986C120.033 86.3448 122.629 83.686 125.236 80.9924L126.107 73.5686C126.256 72.3359 126.488 71.0817 126.575 69.8468C127.019 66.7313 129.357 63.7597 131.319 67.0601C132.083 68.3442 131.05 74.6723 131.16 76.6446C133.095 74.2091 135.881 72.1709 138.18 70.0637C139.604 68.7576 144.208 63.1187 146.453 65.2163C149.954 68.4872 137.786 76.9702 135.201 79.8887C136.779 80.0756 151.86 81.839 145.055 86.1118C143.77 86.9183 132.449 84.1599 129.543 84.1604C126.929 86.2425 122.578 90.3172 121.228 93.3288C128.034 91.9633 134.971 92.1486 141.229 95.4827C143.03 96.4428 144.63 97.9439 146.553 98.6395C150.109 98.0922 153.183 94.4122 155.191 91.6623C163.551 80.2121 155.145 70.6704 165.978 57.4381C153.272 58.1685 146.968 50.2194 136.943 51.593ZM45.2139 95.2395C32.618 95.9716 29.0436 107.231 20.4959 114.102C18.1521 115.986 15.5679 117.381 13.0837 119.043C26.2073 123.447 23.7343 125.221 32.79 133.853C39.4447 140.196 49.6632 141.132 57.7206 137.081C65.8587 132.99 70.4747 125.571 73.8231 117.413C69.7456 117.344 65.6637 117.763 61.5781 117.767C60.3934 119.263 59.2087 120.756 57.9776 122.215C56.5493 123.901 52.9813 128.857 50.9024 129.101C49.7626 129.235 48.5421 128.327 48.4807 127.149C48.3664 124.953 53.384 120.048 55.089 118.363C49.7418 118.327 41.5514 119.675 36.7746 119.139C34.9174 118.93 34.246 116.292 35.591 115.075C37.0732 113.732 51.6144 113.59 54.3342 113.332C52.4594 111.553 44.98 106.256 47.8659 103.495C50.7043 100.781 58.1618 110.359 61.1118 112.494C64.6158 112.956 70.1066 112.551 73.8231 112.311C66.8495 104.749 56.5402 94.3806 45.2139 95.2395ZM126.575 97.645C113.892 98.6052 103.879 105.41 100.316 117.767C104.423 117.556 109.111 116.833 113.132 117.051C114.163 115.346 120.401 107.678 122.206 106.132C124.063 104.543 130.154 106.6 119.695 116.345C122.898 116.493 137.843 114.571 139.284 116.216C140.094 117.143 140.049 119.056 139.048 119.84C137.62 120.958 124.577 121.593 121.228 121.578C122.723 123.329 127.333 128.024 127.243 130.139C127.189 131.419 125.884 132.574 124.603 132.394C122.713 132.129 119.404 127.182 118.129 125.585L115.282 121.964C110.488 122.113 105.7 122.595 100.904 122.601C107.924 140.301 131.125 149.682 144.394 132.484C149.443 125.939 152.435 122.999 160.561 119.86C150.064 112.984 144.431 100.3 133.429 98.0349C131.348 97.607 128.673 97.1893 126.575 97.645Z" fill="#C6D8B7"/>
</svg>
