<svg width="168" height="175" viewBox="0 0 168 175" fill="none" xmlns="http://www.w3.org/2000/svg">
<path d="M88.6449 48.0527C91.7296 46.5707 94.302 44.2386 96.8809 42.0277C103.359 36.4736 105.16 33.8367 107.089 25.4453C110.424 10.9411 114.064 1.64789 130.955 0.156277C142.253 -1.18007 149.436 6.17568 149.066 17.5577C148.795 25.9112 145.103 32.8549 141.636 40.2367C149.534 37.8027 159.836 34.3581 165.486 42.7086C168.488 47.1471 168.025 53.2372 164.352 57.1351C160.924 60.7725 157.463 60.7983 152.815 61.1996C145.584 61.8235 138.758 64.3367 132.71 68.3593C123.036 74.7927 122.984 78.9646 120.979 89.0602C123.986 89.9334 126.683 91.8697 129.786 92.316C142.482 94.1412 148.231 82.2825 158.537 83.9024C165.015 84.921 168.857 90.9349 167.768 97.2764C166.7 103.496 161.32 108.905 156.337 112.386C144.224 120.851 131.853 120.032 118.239 116.835C107.925 114.414 110.412 112.189 100.42 118.812C94.9218 122.456 88.597 126.502 90.137 134.338C91.5333 141.441 94.8885 145.27 93.3378 153.839C91.6337 163.256 83.2287 170.634 73.694 170.941C56.6856 171.488 53.3975 151.589 40.5519 160.502C35.2482 164.403 34.7339 172.085 27.8649 174.351C17.2727 177.846 6.24433 166.525 3.22845 157.151C0.839194 149.725 1.35684 137.908 4.98593 130.849C0.58378 123.838 -1.92233 111.765 1.82447 104.215C10.5415 86.6478 36.2265 86.1269 51.8054 93.8671C57.731 91.2711 65.2642 79.1125 66.1148 73.5524C67.1571 66.7375 61.1311 61.617 57.4634 56.5854C51.2148 48.0133 44.8874 35.5519 46.6294 24.6694C48.3542 13.894 59.5724 1.10566 69.9016 10.4494C78.2082 17.963 69.6992 27.8707 75.0175 37.1839C77.9674 42.3492 84.428 42.0363 88.6449 48.0527ZM130.955 5.1637C125.076 5.85898 119.166 8.05809 116.058 13.3756C123.179 13.1939 131.381 17.0186 136.298 22.1102C138.262 24.249 140.042 26.4286 141.636 28.8601C144.929 18.5162 146.99 3.11532 130.955 5.1637ZM61.2407 12.3772C55.6836 14.0051 52.3445 20.2824 51.4697 25.68C55.3035 24.4908 59.8995 22.8497 63.7867 24.8729C65.8397 25.9415 65.8947 29.1105 63.3754 29.6152C61.1155 30.0675 57.5659 26.3569 51.4697 31.968C53.2061 41.0267 57.8587 49.2985 63.5712 56.4471C72.6804 67.8475 73.8949 71.6944 66.46 84.9462C73.484 92.268 73.3144 99.2097 85.7344 103.97C90.3157 105.725 88.7343 111.122 82.1454 107.931C70.8067 102.441 70.5765 97.5591 63.8019 89.2495C60.4996 94.069 57.6492 97.3849 51.8054 98.87C51.4869 105.088 52.7801 110.405 55.9738 115.741C56.73 117.003 58.0136 118.301 58.4846 119.679C59.319 122.124 55.891 124.113 53.6614 121.204C48.4946 114.46 45.5896 105.516 47.3482 97.0614C41.2662 95.1013 35.0236 93.4638 28.5701 93.8671C27.6655 102.009 33.8571 104.639 33.5648 107.245C33.4063 108.66 32.0389 109.551 30.6694 109.301C26.4545 108.53 23.4506 98.4056 23.5233 94.6415C17.7628 95.4294 11.5536 99.0789 8.01761 103.69C1.80271 111.793 6.24585 120.932 9.37294 129.197C20.5143 126.446 26.5924 129.216 36.4128 135.135C38.4611 136.369 38.4773 139.739 35.7005 139.923C34.1049 140.029 28.3015 136.178 26.4278 135.307C19.8268 132.239 15.5665 132.838 8.66019 134.328C7.38866 139.365 6.46997 144.322 6.76426 149.549C8.00701 156.994 9.87367 162.493 16.2949 167.046C18.7875 168.813 22.0988 170.432 25.2456 169.855C29.2853 169.116 30.4246 165.372 32.366 162.331C37.4011 154.448 46.9414 150.327 55.3247 155.899C60.4073 159.278 62.5521 163.822 69.0309 165.539C75.7075 167.307 82.3842 164.256 86.165 158.564C89.7817 153.119 88.9544 146.742 87.1609 140.851C83.6789 144.817 77.0517 148.843 71.7052 149.143C69.3756 149.273 67.3318 146.696 69.4266 144.854C71.3407 143.171 78.9295 144.363 85.3629 135.437C83.0545 124.63 91.4308 118.644 99.429 113.47C106.852 108.669 108.049 108.732 116.688 111.185C125.119 113.579 134.013 115.157 142.704 113.223C138.545 107.843 137.137 103.957 137.678 97.0614C133.086 97.5066 128.935 97.9003 124.553 96.0256C123.084 95.3971 121.743 94.3961 120.192 93.9762C118.301 93.4633 114.859 94.069 114.774 91.2489C114.755 90.6517 117.113 82.6182 117.513 80.7839C118.945 74.2122 122.772 69.2921 128.2 65.521C118.165 60.0931 109.793 51.7704 104.757 41.4755C101.634 44.384 92.0643 53.8142 88.0619 53.6325C86.5648 53.5648 84.948 51.258 83.9535 50.2273C80.0925 46.2249 75.6449 45.8458 72.3417 41.906C63.9781 31.9301 71.8546 20.2476 67.3247 14.8268C65.665 12.8405 63.7181 12.152 61.2407 12.3772ZM114.039 18.0357C112.21 24.5791 111.69 31.0357 108.169 37.0324C112.391 47.6201 122.705 58.0725 133.253 62.0612C138.964 59.3258 144.107 57.2093 150.444 56.4042C152.751 56.1109 155.296 56.3578 157.537 55.7556C163.652 53.7385 164.734 45.7277 158.434 43.0054C152.472 40.4296 143.797 45.8458 137.678 46.126C133.269 44.3537 137.557 37.5821 138.97 34.4535C132.319 23.4943 127 18.7787 114.039 18.0357ZM155.318 89.0602C152.291 89.4074 146.342 93.0524 143.131 94.6415C141.842 101.128 142.799 106.965 147.839 111.419C148.438 111.161 149.077 110.929 149.647 110.613C154.718 108.083 166.041 99.086 162.564 92.1751C161.217 89.4953 158.172 88.1723 155.318 89.0602Z" fill="#F3D38A"/>
<path d="M111.645 84.5349C103.705 84.281 94.6079 78.6946 90.544 72.0815C89.0266 69.6122 84.9177 62.2495 88.6465 60.188C91.5253 60.0457 91.5621 61.3914 92.2062 63.6043C94.4095 71.177 99.8778 76.2591 107.408 78.6477C108.857 79.107 110.552 79.1822 111.917 79.7481C114.3 80.7359 113.764 83.6772 111.645 84.5349Z" fill="#F3D38A"/>
</svg>
